<svg class="svg-icon" style="width: 1em; height: 1em;vertical-align: middle;fill: currentColor;overflow: hidden;" viewBox="0 0 1024 1024" version="1.1" xmlns="http://www.w3.org/2000/svg"><path d="M293.970295 144.589217l0.208342-0.625026 262.30234 31.667955 303.76236 526.063073-183.340794 105.83764-283.344862-490.644965 2.500101-1.250051c21.87589-12.70885 29.376195-40.626653 16.667345-62.502543s-40.626653-29.376195-62.502543-16.667345c-0.833367 0.416684-1.666734 1.041709-2.29176 1.458393l-53.960529-93.337131z" fill="#F4511E" /><path d="M190.424415 386.890743l103.54588-242.301526 53.752187 93.128789c-20.000814 13.333876-26.45941 40.001628-14.375585 61.044151 12.083825 21.042523 38.543235 28.75117 60.002442 18.125737l283.344862 490.644965-182.507426 105.420956L190.424415 386.890743z" fill="#FF7043" /><path d="M350.014242 236.259613c21.87589-12.70885 49.793693-5.208545 62.502543 16.667345 12.70885 21.87589 5.208545 49.793693-16.667345 62.502544-21.87589 12.70885-49.793693 5.208545-62.502543-16.667345-12.70885-21.87589-5.208545-49.793693 16.667345-62.502544z" fill="#4D4D4D" /><path d="M359.389624 252.301933c13.125534-7.500305 29.792879-3.125127 37.293184 10.000407 7.500305 13.125534 3.125127 29.792879-10.000407 37.293184-13.125534 7.500305-29.792879 3.125127-37.293184-10.000407-7.500305-13.125534-3.125127-29.792879 10.000407-37.293184z" fill="#FFFFFF" /></svg>