<?xml version="1.0" encoding="UTF-8"?>
<svg xmlns="http://www.w3.org/2000/svg" xmlns:xlink="http://www.w3.org/1999/xlink" width="30px" height="30px" viewBox="0 0 30 30" version="1.1">
<g id="surface1">
<path style=" stroke:none;fill-rule:nonzero;fill:rgb(47.058824%,12.156863%,9.803922%);fill-opacity:1;" d="M 29.992188 14.996094 C 29.992188 23.277344 23.277344 29.992188 14.996094 29.992188 C 6.714844 29.992188 0 23.277344 0 14.996094 C 0 6.714844 6.714844 0 14.996094 0 C 23.277344 0 29.992188 6.714844 29.992188 14.996094 "/>
<path style=" stroke:none;fill-rule:nonzero;fill:rgb(83.921569%,65.098039%,30.980392%);fill-opacity:1;" d="M 26.570312 14.996094 C 26.570312 21.386719 21.386719 26.570312 14.996094 26.570312 C 8.605469 26.570312 3.421875 21.386719 3.421875 14.996094 C 3.421875 8.605469 8.605469 3.421875 14.996094 3.421875 C 21.386719 3.421875 26.570312 8.605469 26.570312 14.996094 "/>
<path style="fill:none;stroke-width:0.75;stroke-linecap:butt;stroke-linejoin:miter;stroke:rgb(100%,100%,100%);stroke-opacity:1;stroke-miterlimit:10;" d="M 252.53808 225.592323 C 252.53808 210.251136 240.094464 197.807521 224.753277 197.807521 C 209.41209 197.807521 196.968475 210.251136 196.968475 225.592323 C 196.968475 240.93351 209.41209 253.377126 224.753277 253.377126 C 240.094464 253.377126 252.53808 240.93351 252.53808 225.592323 Z M 252.53808 225.592323 " transform="matrix(0.416567,0,0,-0.416567,-78.628599,108.970305)"/>
<path style=" stroke:none;fill-rule:nonzero;fill:rgb(100%,100%,100%);fill-opacity:1;" d="M 4.972656 24.957031 C 4.972656 24.957031 6.21875 23.683594 6.21875 23.683594 C 6.21875 23.683594 6.503906 23.964844 6.503906 23.964844 C 6.503906 23.964844 5.261719 25.238281 5.261719 25.238281 C 5.261719 25.238281 4.972656 24.957031 4.972656 24.957031 "/>
<path style=" stroke:none;fill-rule:nonzero;fill:rgb(100%,100%,100%);fill-opacity:1;" d="M 5.855469 23.332031 C 5.855469 23.332031 4.46875 24.453125 4.46875 24.453125 C 4.46875 24.453125 4.175781 24.085938 4.175781 24.085938 C 4.175781 24.085938 4.449219 23.386719 4.449219 23.386719 C 4.527344 23.1875 4.636719 22.96875 4.742188 22.777344 C 4.742188 22.777344 4.738281 22.773438 4.738281 22.773438 C 4.570312 22.941406 4.386719 23.097656 4.179688 23.265625 C 4.179688 23.265625 3.777344 23.59375 3.777344 23.59375 C 3.777344 23.59375 3.542969 23.304688 3.542969 23.304688 C 3.542969 23.304688 4.925781 22.1875 4.925781 22.1875 C 4.925781 22.1875 5.191406 22.515625 5.191406 22.515625 C 5.191406 22.515625 4.898438 23.242188 4.898438 23.242188 C 4.816406 23.445312 4.714844 23.679688 4.605469 23.878906 C 4.605469 23.878906 4.609375 23.886719 4.609375 23.886719 C 4.785156 23.726562 4.980469 23.5625 5.203125 23.382812 C 5.203125 23.382812 5.621094 23.042969 5.621094 23.042969 C 5.621094 23.042969 5.855469 23.332031 5.855469 23.332031 "/>
<path style=" stroke:none;fill-rule:nonzero;fill:rgb(100%,100%,100%);fill-opacity:1;" d="M 4.175781 21.566406 C 4.164062 21.535156 4.136719 21.484375 4.113281 21.441406 C 3.933594 21.121094 3.640625 21.011719 3.269531 21.226562 C 2.9375 21.414062 2.886719 21.691406 3.0625 21.996094 C 3.105469 22.070312 3.140625 22.121094 3.164062 22.144531 C 3.164062 22.144531 4.175781 21.566406 4.175781 21.566406 Z M 3.117188 22.636719 C 3.019531 22.519531 2.914062 22.359375 2.8125 22.1875 C 2.644531 21.890625 2.582031 21.671875 2.609375 21.460938 C 2.636719 21.230469 2.773438 21.019531 3.046875 20.863281 C 3.34375 20.691406 3.609375 20.683594 3.820312 20.757812 C 4.046875 20.84375 4.253906 21.058594 4.429688 21.359375 C 4.53125 21.542969 4.59375 21.679688 4.632812 21.769531 C 4.632812 21.769531 3.117188 22.636719 3.117188 22.636719 "/>
<path style=" stroke:none;fill-rule:nonzero;fill:rgb(100%,100%,100%);fill-opacity:1;" d="M 1.90625 20.324219 C 1.90625 20.324219 3.542969 19.628906 3.542969 19.628906 C 3.542969 19.628906 3.699219 20 3.699219 20 C 3.699219 20 2.0625 20.695312 2.0625 20.695312 C 2.0625 20.695312 1.90625 20.324219 1.90625 20.324219 "/>
<path style=" stroke:none;fill-rule:nonzero;fill:rgb(100%,100%,100%);fill-opacity:1;" d="M 2.375 18.546875 C 2.375 18.546875 2.042969 18.757812 2.042969 18.757812 C 1.949219 18.816406 1.828125 18.886719 1.738281 18.941406 C 1.738281 18.941406 1.742188 18.949219 1.742188 18.949219 C 1.847656 18.941406 1.984375 18.929688 2.09375 18.925781 C 2.09375 18.925781 2.484375 18.921875 2.484375 18.921875 C 2.484375 18.921875 2.375 18.546875 2.375 18.546875 Z M 2.789062 18.894531 C 2.789062 18.894531 3.265625 18.882812 3.265625 18.882812 C 3.265625 18.882812 3.382812 19.285156 3.382812 19.285156 C 3.382812 19.285156 1.519531 19.265625 1.519531 19.265625 C 1.519531 19.265625 1.371094 18.761719 1.371094 18.761719 C 1.371094 18.761719 2.921875 17.726562 2.921875 17.726562 C 2.921875 17.726562 3.046875 18.140625 3.046875 18.140625 C 3.046875 18.140625 2.644531 18.402344 2.644531 18.402344 C 2.644531 18.402344 2.789062 18.894531 2.789062 18.894531 "/>
<path style=" stroke:none;fill-rule:nonzero;fill:rgb(100%,100%,100%);fill-opacity:1;" d="M 2.847656 17.339844 C 2.847656 17.339844 1.082031 17.570312 1.082031 17.570312 C 1.082031 17.570312 1.019531 17.101562 1.019531 17.101562 C 1.019531 17.101562 1.621094 16.652344 1.621094 16.652344 C 1.792969 16.523438 2 16.390625 2.1875 16.285156 C 2.1875 16.285156 2.1875 16.277344 2.1875 16.277344 C 1.957031 16.332031 1.71875 16.371094 1.453125 16.40625 C 1.453125 16.40625 0.9375 16.472656 0.9375 16.472656 C 0.9375 16.472656 0.890625 16.105469 0.890625 16.105469 C 0.890625 16.105469 2.65625 15.878906 2.65625 15.878906 C 2.65625 15.878906 2.710938 16.296875 2.710938 16.296875 C 2.710938 16.296875 2.078125 16.761719 2.078125 16.761719 C 1.902344 16.890625 1.691406 17.039062 1.496094 17.148438 C 1.496094 17.148438 1.496094 17.160156 1.496094 17.160156 C 1.730469 17.117188 1.980469 17.078125 2.265625 17.039062 C 2.265625 17.039062 2.796875 16.972656 2.796875 16.972656 C 2.796875 16.972656 2.847656 17.339844 2.847656 17.339844 "/>
<path style=" stroke:none;fill-rule:nonzero;fill:rgb(100%,100%,100%);fill-opacity:1;" d="M 0.886719 14.199219 C 0.886719 14.199219 2.667969 14.273438 2.667969 14.273438 C 2.667969 14.273438 2.648438 14.671875 2.648438 14.671875 C 2.648438 14.671875 0.871094 14.601562 0.871094 14.601562 C 0.871094 14.601562 0.886719 14.199219 0.886719 14.199219 "/>
<path style=" stroke:none;fill-rule:nonzero;fill:rgb(100%,100%,100%);fill-opacity:1;" d="M 2.6875 13.761719 C 2.6875 13.761719 0.929688 13.480469 0.929688 13.480469 C 0.929688 13.480469 1.003906 13.015625 1.003906 13.015625 C 1.003906 13.015625 1.703125 12.753906 1.703125 12.753906 C 1.90625 12.679688 2.140625 12.613281 2.351562 12.5625 C 2.351562 12.5625 2.355469 12.558594 2.355469 12.558594 C 2.117188 12.546875 1.878906 12.515625 1.613281 12.472656 C 1.613281 12.472656 1.101562 12.390625 1.101562 12.390625 C 1.101562 12.390625 1.160156 12.027344 1.160156 12.027344 C 1.160156 12.027344 2.917969 12.304688 2.917969 12.304688 C 2.917969 12.304688 2.851562 12.722656 2.851562 12.722656 C 2.851562 12.722656 2.113281 12.992188 2.113281 12.992188 C 1.90625 13.066406 1.664062 13.148438 1.445312 13.195312 C 1.445312 13.195312 1.441406 13.207031 1.441406 13.207031 C 1.679688 13.230469 1.929688 13.265625 2.214844 13.3125 C 2.214844 13.3125 2.742188 13.398438 2.742188 13.398438 C 2.742188 13.398438 2.6875 13.761719 2.6875 13.761719 "/>
<path style=" stroke:none;fill-rule:nonzero;fill:rgb(100%,100%,100%);fill-opacity:1;" d="M 2.660156 11.679688 C 2.742188 11.59375 2.847656 11.449219 2.898438 11.285156 C 2.953125 11.109375 2.910156 10.996094 2.796875 10.957031 C 2.691406 10.925781 2.605469 10.988281 2.46875 11.167969 C 2.28125 11.421875 2.066406 11.558594 1.816406 11.480469 C 1.527344 11.390625 1.382812 11.074219 1.507812 10.675781 C 1.570312 10.484375 1.652344 10.355469 1.730469 10.269531 C 1.730469 10.269531 2.011719 10.453125 2.011719 10.453125 C 1.957031 10.507812 1.871094 10.617188 1.820312 10.78125 C 1.765625 10.945312 1.820312 11.050781 1.90625 11.078125 C 2.015625 11.113281 2.089844 11.035156 2.246094 10.839844 C 2.453125 10.574219 2.652344 10.484375 2.894531 10.558594 C 3.179688 10.648438 3.351562 10.941406 3.207031 11.410156 C 3.144531 11.601562 3.03125 11.777344 2.949219 11.855469 C 2.949219 11.855469 2.660156 11.679688 2.660156 11.679688 "/>
<path style=" stroke:none;fill-rule:nonzero;fill:rgb(100%,100%,100%);fill-opacity:1;" d="M 2.390625 9.394531 C 2.390625 9.394531 2.1875 9.832031 2.1875 9.832031 C 2.1875 9.832031 1.878906 9.6875 1.878906 9.6875 C 1.878906 9.6875 2.453125 8.449219 2.453125 8.449219 C 2.453125 8.449219 2.761719 8.589844 2.761719 8.589844 C 2.761719 8.589844 2.558594 9.03125 2.558594 9.03125 C 2.558594 9.03125 3.867188 9.636719 3.867188 9.636719 C 3.867188 9.636719 3.699219 10 3.699219 10 C 3.699219 10 2.390625 9.394531 2.390625 9.394531 "/>
<path style=" stroke:none;fill-rule:nonzero;fill:rgb(100%,100%,100%);fill-opacity:1;" d="M 2.941406 7.617188 C 2.941406 7.617188 4.472656 8.527344 4.472656 8.527344 C 4.472656 8.527344 4.269531 8.871094 4.269531 8.871094 C 4.269531 8.871094 2.738281 7.964844 2.738281 7.964844 C 2.738281 7.964844 2.941406 7.617188 2.941406 7.617188 "/>
<path style=" stroke:none;fill-rule:nonzero;fill:rgb(100%,100%,100%);fill-opacity:1;" d="M 3.789062 6.957031 C 3.789062 6.957031 3.5 7.34375 3.5 7.34375 C 3.5 7.34375 3.230469 7.140625 3.230469 7.140625 C 3.230469 7.140625 4.042969 6.042969 4.042969 6.042969 C 4.042969 6.042969 4.316406 6.246094 4.316406 6.246094 C 4.316406 6.246094 4.027344 6.632812 4.027344 6.632812 C 4.027344 6.632812 5.183594 7.492188 5.183594 7.492188 C 5.183594 7.492188 4.945312 7.816406 4.945312 7.816406 C 4.945312 7.816406 3.789062 6.957031 3.789062 6.957031 "/>
<path style=" stroke:none;fill-rule:nonzero;fill:rgb(100%,100%,100%);fill-opacity:1;" d="M 4.730469 5.28125 C 4.730469 5.28125 5.457031 6 5.457031 6 C 5.675781 6.21875 5.871094 6.242188 6.015625 6.097656 C 6.164062 5.949219 6.140625 5.761719 5.914062 5.539062 C 5.914062 5.539062 5.1875 4.820312 5.1875 4.820312 C 5.1875 4.820312 5.472656 4.535156 5.472656 4.535156 C 5.472656 4.535156 6.179688 5.238281 6.179688 5.238281 C 6.570312 5.625 6.5625 6.003906 6.234375 6.335938 C 5.917969 6.652344 5.554688 6.664062 5.15625 6.265625 C 5.15625 6.265625 4.449219 5.566406 4.449219 5.566406 C 4.449219 5.566406 4.730469 5.28125 4.730469 5.28125 "/>
<path style=" stroke:none;fill-rule:nonzero;fill:rgb(100%,100%,100%);fill-opacity:1;" d="M 6.535156 4.101562 C 6.535156 4.101562 6.152344 4.390625 6.152344 4.390625 C 6.152344 4.390625 5.949219 4.121094 5.949219 4.121094 C 5.949219 4.121094 7.039062 3.296875 7.039062 3.296875 C 7.039062 3.296875 7.246094 3.566406 7.246094 3.566406 C 7.246094 3.566406 6.855469 3.859375 6.855469 3.859375 C 6.855469 3.859375 7.722656 5.011719 7.722656 5.011719 C 7.722656 5.011719 7.40625 5.253906 7.40625 5.253906 C 7.40625 5.253906 6.535156 4.101562 6.535156 4.101562 "/>
<path style=" stroke:none;fill-rule:nonzero;fill:rgb(100%,100%,100%);fill-opacity:1;" d="M 8.976562 3.34375 C 8.976562 3.34375 8.40625 3.667969 8.40625 3.667969 C 8.40625 3.667969 8.617188 4.035156 8.617188 4.035156 C 8.617188 4.035156 9.25 3.671875 9.25 3.671875 C 9.25 3.671875 9.414062 3.960938 9.414062 3.960938 C 9.414062 3.960938 8.429688 4.519531 8.429688 4.519531 C 8.429688 4.519531 7.550781 2.976562 7.550781 2.976562 C 7.550781 2.976562 8.5 2.433594 8.5 2.433594 C 8.5 2.433594 8.664062 2.71875 8.664062 2.71875 C 8.664062 2.71875 8.0625 3.0625 8.0625 3.0625 C 8.0625 3.0625 8.246094 3.382812 8.246094 3.382812 C 8.246094 3.382812 8.8125 3.058594 8.8125 3.058594 C 8.8125 3.058594 8.976562 3.34375 8.976562 3.34375 "/>
<path style=" stroke:none;fill-rule:nonzero;fill:rgb(100%,100%,100%);fill-opacity:1;" d="M 11.085938 2.972656 C 11.34375 2.890625 11.414062 2.597656 11.304688 2.265625 C 11.207031 1.960938 10.980469 1.746094 10.714844 1.832031 C 10.453125 1.917969 10.386719 2.222656 10.488281 2.539062 C 10.59375 2.859375 10.828125 3.058594 11.082031 2.972656 C 11.082031 2.972656 11.085938 2.972656 11.085938 2.972656 Z M 11.167969 3.28125 C 10.667969 3.445312 10.25 3.160156 10.089844 2.679688 C 9.925781 2.171875 10.128906 1.6875 10.625 1.523438 C 11.148438 1.355469 11.558594 1.652344 11.707031 2.121094 C 11.890625 2.679688 11.664062 3.121094 11.171875 3.28125 C 11.171875 3.28125 11.167969 3.28125 11.167969 3.28125 "/>
<path style=" stroke:none;fill-rule:nonzero;fill:rgb(100%,100%,100%);fill-opacity:1;" d="M 12.117188 1.152344 C 12.117188 1.152344 13.1875 0.96875 13.1875 0.96875 C 13.1875 0.96875 13.242188 1.296875 13.242188 1.296875 C 13.242188 1.296875 12.566406 1.410156 12.566406 1.410156 C 12.566406 1.410156 12.632812 1.8125 12.632812 1.8125 C 12.632812 1.8125 13.265625 1.703125 13.265625 1.703125 C 13.265625 1.703125 13.320312 2.027344 13.320312 2.027344 C 13.320312 2.027344 12.6875 2.132812 12.6875 2.132812 C 12.6875 2.132812 12.808594 2.839844 12.808594 2.839844 C 12.808594 2.839844 12.414062 2.90625 12.414062 2.90625 C 12.414062 2.90625 12.117188 1.152344 12.117188 1.152344 "/>
<path style=" stroke:none;fill-rule:nonzero;fill:rgb(100%,100%,100%);fill-opacity:1;" d="M 15.003906 1.203125 C 15.003906 1.203125 14.527344 1.195312 14.527344 1.195312 C 14.527344 1.195312 14.53125 0.855469 14.53125 0.855469 C 14.53125 0.855469 15.898438 0.878906 15.898438 0.878906 C 15.898438 0.878906 15.894531 1.21875 15.894531 1.21875 C 15.894531 1.21875 15.40625 1.210938 15.40625 1.210938 C 15.40625 1.210938 15.382812 2.652344 15.382812 2.652344 C 15.382812 2.652344 14.984375 2.644531 14.984375 2.644531 C 14.984375 2.644531 15.003906 1.203125 15.003906 1.203125 "/>
<path style=" stroke:none;fill-rule:nonzero;fill:rgb(100%,100%,100%);fill-opacity:1;" d="M 17.398438 2.101562 C 17.398438 2.101562 16.75 2.011719 16.75 2.011719 C 16.75 2.011719 16.6875 2.429688 16.6875 2.429688 C 16.6875 2.429688 17.414062 2.53125 17.414062 2.53125 C 17.414062 2.53125 17.367188 2.859375 17.367188 2.859375 C 17.367188 2.859375 16.242188 2.699219 16.242188 2.699219 C 16.242188 2.699219 16.496094 0.9375 16.496094 0.9375 C 16.496094 0.9375 17.582031 1.089844 17.582031 1.089844 C 17.582031 1.089844 17.535156 1.417969 17.535156 1.417969 C 17.535156 1.417969 16.847656 1.320312 16.847656 1.320312 C 16.847656 1.320312 16.792969 1.6875 16.792969 1.6875 C 16.792969 1.6875 17.441406 1.777344 17.441406 1.777344 C 17.441406 1.777344 17.398438 2.101562 17.398438 2.101562 "/>
<path style=" stroke:none;fill-rule:nonzero;fill:rgb(100%,100%,100%);fill-opacity:1;" d="M 19.058594 3.257812 C 18.980469 3.273438 18.804688 3.265625 18.597656 3.207031 C 18.007812 3.039062 17.808594 2.582031 17.945312 2.09375 C 18.113281 1.507812 18.621094 1.304688 19.140625 1.449219 C 19.339844 1.507812 19.480469 1.59375 19.539062 1.648438 C 19.539062 1.648438 19.371094 1.929688 19.371094 1.929688 C 19.304688 1.875 19.203125 1.8125 19.0625 1.773438 C 18.761719 1.6875 18.46875 1.804688 18.359375 2.1875 C 18.261719 2.53125 18.402344 2.804688 18.746094 2.902344 C 18.867188 2.9375 19 2.949219 19.085938 2.9375 C 19.085938 2.9375 19.058594 3.257812 19.058594 3.257812 "/>
<path style=" stroke:none;fill-rule:nonzero;fill:rgb(100%,100%,100%);fill-opacity:1;" d="M 20.554688 2 C 20.554688 2 20.269531 2.621094 20.269531 2.621094 C 20.269531 2.621094 20.871094 2.898438 20.871094 2.898438 C 20.871094 2.898438 21.15625 2.273438 21.15625 2.273438 C 21.15625 2.273438 21.523438 2.441406 21.523438 2.441406 C 21.523438 2.441406 20.785156 4.058594 20.785156 4.058594 C 20.785156 4.058594 20.417969 3.890625 20.417969 3.890625 C 20.417969 3.890625 20.726562 3.21875 20.726562 3.21875 C 20.726562 3.21875 20.125 2.941406 20.125 2.941406 C 20.125 2.941406 19.816406 3.617188 19.816406 3.617188 C 19.816406 3.617188 19.449219 3.449219 19.449219 3.449219 C 19.449219 3.449219 20.1875 1.832031 20.1875 1.832031 C 20.1875 1.832031 20.554688 2 20.554688 2 "/>
<path style=" stroke:none;fill-rule:nonzero;fill:rgb(100%,100%,100%);fill-opacity:1;" d="M 21.230469 4.308594 C 21.230469 4.308594 22.21875 2.828125 22.21875 2.828125 C 22.21875 2.828125 22.609375 3.089844 22.609375 3.089844 C 22.609375 3.089844 22.554688 3.835938 22.554688 3.835938 C 22.539062 4.050781 22.5 4.292969 22.457031 4.503906 C 22.457031 4.503906 22.460938 4.507812 22.460938 4.507812 C 22.574219 4.300781 22.699219 4.09375 22.847656 3.871094 C 22.847656 3.871094 23.136719 3.441406 23.136719 3.441406 C 23.136719 3.441406 23.445312 3.644531 23.445312 3.644531 C 23.445312 3.644531 22.457031 5.125 22.457031 5.125 C 22.457031 5.125 22.105469 4.890625 22.105469 4.890625 C 22.105469 4.890625 22.167969 4.109375 22.167969 4.109375 C 22.1875 3.890625 22.214844 3.636719 22.261719 3.414062 C 22.261719 3.414062 22.253906 3.410156 22.253906 3.410156 C 22.132812 3.613281 21.996094 3.824219 21.835938 4.066406 C 21.835938 4.066406 21.539062 4.511719 21.539062 4.511719 C 21.539062 4.511719 21.230469 4.308594 21.230469 4.308594 "/>
<path style=" stroke:none;fill-rule:nonzero;fill:rgb(100%,100%,100%);fill-opacity:1;" d="M 23.621094 5.757812 C 23.820312 5.941406 24.109375 5.863281 24.347656 5.605469 C 24.566406 5.375 24.644531 5.070312 24.441406 4.878906 C 24.238281 4.691406 23.941406 4.78125 23.710938 5.023438 C 23.484375 5.269531 23.421875 5.570312 23.621094 5.753906 C 23.621094 5.753906 23.621094 5.757812 23.621094 5.757812 Z M 23.390625 5.976562 C 23.007812 5.617188 23.050781 5.113281 23.398438 4.746094 C 23.761719 4.355469 24.285156 4.296875 24.664062 4.652344 C 25.066406 5.027344 25.003906 5.53125 24.667969 5.890625 C 24.269531 6.316406 23.773438 6.335938 23.390625 5.980469 C 23.390625 5.980469 23.390625 5.976562 23.390625 5.976562 "/>
<path style=" stroke:none;fill-rule:nonzero;fill:rgb(100%,100%,100%);fill-opacity:1;" d="M 25.707031 5.769531 C 25.707031 5.769531 25.957031 6.082031 25.957031 6.082031 C 25.957031 6.082031 24.835938 6.984375 24.835938 6.984375 C 24.835938 6.984375 25.277344 7.535156 25.277344 7.535156 C 25.277344 7.535156 25.015625 7.746094 25.015625 7.746094 C 25.015625 7.746094 24.320312 6.882812 24.320312 6.882812 C 24.320312 6.882812 25.707031 5.769531 25.707031 5.769531 "/>
<path style=" stroke:none;fill-rule:nonzero;fill:rgb(100%,100%,100%);fill-opacity:1;" d="M 25.839844 8.5 C 25.980469 8.734375 26.28125 8.734375 26.582031 8.554688 C 26.855469 8.390625 27.011719 8.121094 26.871094 7.882812 C 26.726562 7.644531 26.414062 7.652344 26.128906 7.820312 C 25.84375 7.996094 25.703125 8.265625 25.839844 8.496094 C 25.839844 8.496094 25.839844 8.5 25.839844 8.5 Z M 25.558594 8.648438 C 25.289062 8.199219 25.46875 7.726562 25.902344 7.464844 C 26.359375 7.191406 26.878906 7.277344 27.148438 7.726562 C 27.429688 8.195312 27.234375 8.664062 26.8125 8.914062 C 26.308594 9.21875 25.828125 9.097656 25.558594 8.652344 C 25.558594 8.652344 25.558594 8.648438 25.558594 8.648438 "/>
<path style=" stroke:none;fill-rule:nonzero;fill:rgb(100%,100%,100%);fill-opacity:1;" d="M 26.835938 11.117188 C 26.75 11.019531 26.609375 10.820312 26.523438 10.601562 C 26.402344 10.300781 26.394531 10.054688 26.476562 9.84375 C 26.5625 9.636719 26.746094 9.464844 26.988281 9.371094 C 27.539062 9.15625 28.011719 9.429688 28.226562 9.972656 C 28.3125 10.1875 28.335938 10.367188 28.332031 10.460938 C 28.332031 10.460938 28 10.503906 28 10.503906 C 28.003906 10.394531 27.988281 10.273438 27.917969 10.09375 C 27.792969 9.78125 27.523438 9.613281 27.164062 9.753906 C 26.820312 9.890625 26.707031 10.1875 26.828125 10.492188 C 26.863281 10.578125 26.898438 10.640625 26.921875 10.667969 C 26.921875 10.667969 27.273438 10.527344 27.273438 10.527344 C 27.273438 10.527344 27.171875 10.273438 27.171875 10.273438 C 27.171875 10.273438 27.460938 10.15625 27.460938 10.15625 C 27.460938 10.15625 27.707031 10.773438 27.707031 10.773438 C 27.707031 10.773438 26.835938 11.117188 26.835938 11.117188 "/>
<path style=" stroke:none;fill-rule:nonzero;fill:rgb(100%,100%,100%);fill-opacity:1;" d="M 26.984375 12.007812 C 26.984375 12.007812 27.695312 11.84375 27.695312 11.84375 C 27.695312 11.84375 28.59375 11.058594 28.59375 11.058594 C 28.59375 11.058594 28.695312 11.511719 28.695312 11.511719 C 28.695312 11.511719 28.320312 11.78125 28.320312 11.78125 C 28.207031 11.863281 28.121094 11.925781 28.019531 11.992188 C 28.019531 11.992188 28.019531 11.996094 28.019531 11.996094 C 28.136719 12.011719 28.246094 12.027344 28.382812 12.050781 C 28.382812 12.050781 28.839844 12.128906 28.839844 12.128906 C 28.839844 12.128906 28.941406 12.570312 28.941406 12.570312 C 28.941406 12.570312 27.796875 12.230469 27.796875 12.230469 C 27.796875 12.230469 27.074219 12.398438 27.074219 12.398438 C 27.074219 12.398438 26.984375 12.007812 26.984375 12.007812 "/>
<path style=" stroke:none;fill-rule:nonzero;fill:rgb(100%,100%,100%);fill-opacity:1;" d="M 28.035156 15.503906 C 28.25 15.492188 28.507812 15.480469 28.765625 15.476562 C 28.765625 15.476562 28.765625 15.46875 28.765625 15.46875 C 28.539062 15.414062 28.285156 15.34375 28.074219 15.28125 C 28.074219 15.28125 27.378906 15.074219 27.378906 15.074219 C 27.378906 15.074219 27.371094 14.761719 27.371094 14.761719 C 27.371094 14.761719 28.054688 14.558594 28.054688 14.558594 C 28.265625 14.5 28.515625 14.4375 28.75 14.386719 C 28.75 14.386719 28.75 14.382812 28.75 14.382812 C 28.507812 14.378906 28.234375 14.371094 28.011719 14.363281 C 28.011719 14.363281 27.335938 14.339844 27.335938 14.339844 C 27.335938 14.339844 27.332031 13.96875 27.332031 13.96875 C 27.332031 13.96875 29.113281 14.054688 29.113281 14.054688 C 29.113281 14.054688 29.121094 14.589844 29.121094 14.589844 C 29.121094 14.589844 28.527344 14.773438 28.527344 14.773438 C 28.324219 14.835938 28.101562 14.890625 27.894531 14.933594 C 27.894531 14.933594 27.894531 14.945312 27.894531 14.945312 C 28.101562 14.988281 28.335938 15.046875 28.535156 15.105469 C 28.535156 15.105469 29.132812 15.28125 29.132812 15.28125 C 29.132812 15.28125 29.140625 15.808594 29.140625 15.808594 C 29.140625 15.808594 27.363281 15.933594 27.363281 15.933594 C 27.363281 15.933594 27.355469 15.542969 27.355469 15.542969 C 27.355469 15.542969 28.035156 15.503906 28.035156 15.503906 "/>
<path style=" stroke:none;fill-rule:nonzero;fill:rgb(100%,100%,100%);fill-opacity:1;" d="M 27.890625 17.378906 C 27.890625 17.378906 28.28125 17.332031 28.28125 17.332031 C 28.386719 17.320312 28.527344 17.3125 28.632812 17.304688 C 28.632812 17.304688 28.632812 17.296875 28.632812 17.296875 C 28.535156 17.253906 28.40625 17.203125 28.308594 17.160156 C 28.308594 17.160156 27.953125 16.992188 27.953125 16.992188 C 27.953125 16.992188 27.890625 17.378906 27.890625 17.378906 Z M 27.667969 16.882812 C 27.667969 16.882812 27.238281 16.683594 27.238281 16.683594 C 27.238281 16.683594 27.308594 16.273438 27.308594 16.273438 C 27.308594 16.273438 28.972656 17.109375 28.972656 17.109375 C 28.972656 17.109375 28.882812 17.625 28.882812 17.625 C 28.882812 17.625 27.035156 17.875 27.035156 17.875 C 27.035156 17.875 27.109375 17.445312 27.109375 17.445312 C 27.109375 17.445312 27.582031 17.386719 27.582031 17.386719 C 27.582031 17.386719 27.667969 16.882812 27.667969 16.882812 "/>
<path style=" stroke:none;fill-rule:nonzero;fill:rgb(100%,100%,100%);fill-opacity:1;" d="M 27.09375 18.738281 C 27.074219 18.769531 27.054688 18.824219 27.039062 18.867188 C 26.917969 19.214844 27.03125 19.507812 27.433594 19.644531 C 27.796875 19.765625 28.039062 19.621094 28.152344 19.289062 C 28.179688 19.207031 28.191406 19.148438 28.195312 19.113281 C 28.195312 19.113281 27.09375 18.738281 27.09375 18.738281 Z M 28.59375 18.824219 C 28.570312 18.972656 28.523438 19.160156 28.457031 19.351562 C 28.347656 19.671875 28.222656 19.863281 28.046875 19.984375 C 27.859375 20.113281 27.609375 20.152344 27.308594 20.050781 C 26.988281 19.941406 26.804688 19.75 26.722656 19.542969 C 26.632812 19.3125 26.65625 19.019531 26.769531 18.6875 C 26.835938 18.488281 26.898438 18.351562 26.941406 18.261719 C 26.941406 18.261719 28.59375 18.824219 28.59375 18.824219 "/>
<path style=" stroke:none;fill-rule:nonzero;fill:rgb(100%,100%,100%);fill-opacity:1;" d="M 26.941406 20.945312 C 26.941406 20.945312 26.867188 21.085938 26.867188 21.085938 C 26.773438 21.265625 26.808594 21.417969 26.949219 21.488281 C 27.089844 21.5625 27.21875 21.503906 27.300781 21.339844 C 27.347656 21.253906 27.367188 21.199219 27.375 21.171875 C 27.375 21.171875 26.941406 20.945312 26.941406 20.945312 Z M 27.800781 20.945312 C 27.761719 21.070312 27.691406 21.246094 27.589844 21.4375 C 27.46875 21.671875 27.347656 21.820312 27.199219 21.882812 C 27.074219 21.941406 26.9375 21.933594 26.792969 21.859375 C 26.589844 21.757812 26.527344 21.542969 26.550781 21.378906 C 26.550781 21.378906 26.542969 21.375 26.542969 21.375 C 26.441406 21.464844 26.304688 21.472656 26.140625 21.433594 C 25.933594 21.390625 25.703125 21.332031 25.625 21.328125 C 25.625 21.328125 25.816406 20.964844 25.816406 20.964844 C 25.871094 20.964844 26.023438 20.992188 26.238281 21.046875 C 26.460938 21.105469 26.550781 21.066406 26.628906 20.917969 C 26.628906 20.917969 26.683594 20.8125 26.683594 20.8125 C 26.683594 20.8125 26.0625 20.492188 26.0625 20.492188 C 26.0625 20.492188 26.246094 20.136719 26.246094 20.136719 C 26.246094 20.136719 27.800781 20.945312 27.800781 20.945312 "/>
<path style=" stroke:none;fill-rule:nonzero;fill:rgb(100%,100%,100%);fill-opacity:1;" d="M 25.519531 22.816406 C 25.519531 22.816406 25.890625 22.949219 25.890625 22.949219 C 25.992188 22.984375 26.121094 23.039062 26.21875 23.078125 C 26.21875 23.078125 26.222656 23.070312 26.222656 23.070312 C 26.152344 22.992188 26.058594 22.886719 25.992188 22.804688 C 25.992188 22.804688 25.75 22.496094 25.75 22.496094 C 25.75 22.496094 25.519531 22.816406 25.519531 22.816406 Z M 25.539062 22.273438 C 25.539062 22.273438 25.242188 21.90625 25.242188 21.90625 C 25.242188 21.90625 25.488281 21.566406 25.488281 21.566406 C 25.488281 21.566406 26.609375 23.050781 26.609375 23.050781 C 26.609375 23.050781 26.300781 23.476562 26.300781 23.476562 C 26.300781 23.476562 24.535156 22.882812 24.535156 22.882812 C 24.535156 22.882812 24.789062 22.53125 24.789062 22.53125 C 24.789062 22.53125 25.238281 22.6875 25.238281 22.6875 C 25.238281 22.6875 25.539062 22.273438 25.539062 22.273438 "/>
<path style=" stroke:none;fill-rule:nonzero;fill:rgb(100%,100%,100%);fill-opacity:1;" d="M 24.550781 23.472656 C 24.4375 23.507812 24.28125 23.59375 24.164062 23.714844 C 24.035156 23.847656 24.023438 23.972656 24.109375 24.054688 C 24.183594 24.128906 24.292969 24.113281 24.492188 24.011719 C 24.773438 23.871094 25.027344 23.84375 25.214844 24.027344 C 25.433594 24.238281 25.421875 24.582031 25.132812 24.882812 C 24.992188 25.027344 24.863281 25.105469 24.753906 25.144531 C 24.753906 25.144531 24.585938 24.859375 24.585938 24.859375 C 24.65625 24.832031 24.78125 24.773438 24.902344 24.652344 C 25.023438 24.523438 25.023438 24.40625 24.957031 24.34375 C 24.875 24.265625 24.773438 24.300781 24.546875 24.40625 C 24.242188 24.550781 24.023438 24.542969 23.84375 24.367188 C 23.628906 24.160156 23.601562 23.820312 23.941406 23.46875 C 24.082031 23.324219 24.261719 23.21875 24.371094 23.183594 C 24.371094 23.183594 24.550781 23.472656 24.550781 23.472656 "/>
<path style=" stroke:none;fill-rule:nonzero;fill:rgb(100%,100%,100%);fill-opacity:1;" d="M 23.375 25.597656 C 23.375 25.742188 23.257812 25.859375 23.113281 25.859375 C 22.964844 25.859375 22.847656 25.742188 22.847656 25.597656 C 22.847656 25.449219 22.964844 25.332031 23.113281 25.332031 C 23.257812 25.332031 23.375 25.449219 23.375 25.597656 "/>
<path style=" stroke:none;fill-rule:nonzero;fill:rgb(100%,100%,100%);fill-opacity:1;" d="M 7.144531 25.597656 C 7.144531 25.742188 7.027344 25.859375 6.882812 25.859375 C 6.734375 25.859375 6.617188 25.742188 6.617188 25.597656 C 6.617188 25.449219 6.734375 25.332031 6.882812 25.332031 C 7.027344 25.332031 7.144531 25.449219 7.144531 25.597656 "/>
<path style=" stroke:none;fill-rule:nonzero;fill:rgb(100%,100%,100%);fill-opacity:1;" d="M 8.703125 22.082031 C 8.703125 22.082031 12.90625 22.832031 12.90625 22.832031 C 12.90625 22.832031 12.457031 23.359375 12.457031 23.359375 C 12.457031 23.359375 16.585938 23.71875 16.585938 23.71875 C 16.585938 23.71875 16.171875 24.054688 16.171875 24.054688 C 16.171875 24.054688 20.246094 24.234375 20.246094 24.234375 C 20.246094 24.234375 14.859375 24.769531 14.859375 24.769531 C 14.859375 24.769531 15.535156 24.167969 15.535156 24.167969 C 15.535156 24.167969 11.253906 23.734375 11.253906 23.734375 C 11.253906 23.734375 11.96875 23.207031 11.96875 23.207031 C 11.96875 23.207031 8.703125 22.082031 8.703125 22.082031 "/>
<path style=" stroke:none;fill-rule:nonzero;fill:rgb(100%,100%,100%);fill-opacity:1;" d="M 8.21875 25.738281 C 8.21875 25.738281 8.589844 25.953125 8.589844 25.953125 C 8.589844 25.882812 8.597656 25.816406 8.617188 25.75 C 8.632812 25.683594 8.65625 25.625 8.691406 25.566406 C 8.742188 25.480469 8.820312 25.425781 8.925781 25.40625 C 9.035156 25.382812 9.136719 25.402344 9.234375 25.460938 C 9.355469 25.53125 9.457031 25.660156 9.539062 25.847656 C 9.617188 26.03125 9.667969 26.253906 9.6875 26.507812 C 9.6875 26.507812 9.613281 26.519531 9.613281 26.519531 C 9.597656 26.332031 9.550781 26.164062 9.472656 26.019531 C 9.394531 25.871094 9.292969 25.761719 9.171875 25.691406 C 9.101562 25.648438 9.023438 25.644531 8.9375 25.679688 C 8.851562 25.710938 8.785156 25.769531 8.730469 25.859375 C 8.695312 25.921875 8.671875 25.96875 8.667969 26 C 8.667969 26 8.8125 26.085938 8.8125 26.085938 C 8.8125 26.085938 8.839844 26.3125 8.839844 26.3125 C 8.839844 26.3125 8.640625 26.195312 8.640625 26.195312 C 8.640625 26.195312 7.957031 27.359375 7.957031 27.359375 C 7.957031 27.359375 7.824219 27.105469 7.824219 27.105469 C 7.824219 27.105469 8.429688 26.074219 8.429688 26.074219 C 8.429688 26.074219 8.242188 25.964844 8.242188 25.964844 C 8.242188 25.964844 8.21875 25.738281 8.21875 25.738281 "/>
<path style=" stroke:none;fill-rule:nonzero;fill:rgb(100%,100%,100%);fill-opacity:1;" d="M 9.179688 26.703125 C 9.164062 26.777344 9.136719 26.851562 9.097656 26.929688 C 9.121094 26.984375 9.152344 27.035156 9.183594 27.074219 C 9.214844 27.113281 9.253906 27.140625 9.289062 27.160156 C 9.332031 27.179688 9.375 27.191406 9.421875 27.1875 C 9.46875 27.1875 9.519531 27.175781 9.5625 27.15625 C 9.5625 27.15625 9.75 26.769531 9.75 26.769531 C 9.75 26.769531 9.203125 26.503906 9.203125 26.503906 C 9.207031 26.5625 9.199219 26.632812 9.179688 26.703125 Z M 9.230469 27.847656 C 9.230469 27.847656 9.445312 27.40625 9.445312 27.40625 C 9.429688 27.410156 9.40625 27.40625 9.378906 27.398438 C 9.351562 27.390625 9.316406 27.378906 9.277344 27.359375 C 9.21875 27.332031 9.167969 27.285156 9.125 27.222656 C 9.082031 27.160156 9.050781 27.085938 9.027344 27 C 8.976562 27.050781 8.921875 27.085938 8.859375 27.113281 C 8.800781 27.136719 8.742188 27.148438 8.6875 27.140625 C 8.722656 27.355469 8.808594 27.570312 8.933594 27.789062 C 8.933594 27.789062 8.785156 27.851562 8.785156 27.851562 C 8.566406 27.222656 8.488281 26.847656 8.550781 26.71875 C 8.566406 26.683594 8.59375 26.65625 8.621094 26.644531 C 8.652344 26.628906 8.683594 26.628906 8.707031 26.640625 C 8.738281 26.65625 8.761719 26.679688 8.777344 26.714844 C 8.792969 26.75 8.800781 26.789062 8.800781 26.839844 C 8.851562 26.839844 8.898438 26.824219 8.945312 26.796875 C 8.988281 26.769531 9.023438 26.730469 9.046875 26.683594 C 9.066406 26.640625 9.078125 26.601562 9.085938 26.5625 C 9.09375 26.519531 9.097656 26.484375 9.089844 26.449219 C 9.089844 26.449219 8.679688 26.25 8.679688 26.25 C 8.679688 26.25 8.636719 26.023438 8.636719 26.023438 C 8.636719 26.023438 10.136719 26.75 10.136719 26.75 C 10.136719 26.75 10.179688 26.976562 10.179688 26.976562 C 10.179688 26.976562 9.972656 26.875 9.972656 26.875 C 9.972656 26.875 9.382812 28.089844 9.382812 28.089844 C 9.382812 28.089844 9.230469 27.847656 9.230469 27.847656 "/>
<path style=" stroke:none;fill-rule:nonzero;fill:rgb(100%,100%,100%);fill-opacity:1;" d="M 9.976562 26.671875 C 9.976562 26.671875 10.378906 26.828125 10.378906 26.828125 C 10.367188 26.757812 10.367188 26.691406 10.371094 26.625 C 10.378906 26.558594 10.394531 26.492188 10.417969 26.433594 C 10.453125 26.339844 10.523438 26.273438 10.625 26.234375 C 10.726562 26.199219 10.828125 26.199219 10.933594 26.242188 C 11.066406 26.292969 11.1875 26.402344 11.296875 26.574219 C 11.402344 26.742188 11.488281 26.953125 11.546875 27.203125 C 11.546875 27.203125 11.476562 27.222656 11.476562 27.222656 C 11.429688 27.042969 11.359375 26.882812 11.257812 26.753906 C 11.160156 26.621094 11.042969 26.53125 10.910156 26.476562 C 10.835938 26.449219 10.757812 26.457031 10.679688 26.503906 C 10.601562 26.546875 10.542969 26.617188 10.503906 26.714844 C 10.480469 26.78125 10.464844 26.832031 10.464844 26.859375 C 10.464844 26.859375 10.621094 26.921875 10.621094 26.921875 C 10.621094 26.921875 10.679688 27.144531 10.679688 27.144531 C 10.679688 27.144531 10.464844 27.0625 10.464844 27.0625 C 10.464844 27.0625 9.976562 28.320312 9.976562 28.320312 C 9.976562 28.320312 9.804688 28.085938 9.804688 28.085938 C 9.804688 28.085938 10.238281 26.972656 10.238281 26.972656 C 10.238281 26.972656 10.035156 26.894531 10.035156 26.894531 C 10.035156 26.894531 9.976562 26.671875 9.976562 26.671875 "/>
<path style=" stroke:none;fill-rule:nonzero;fill:rgb(100%,100%,100%);fill-opacity:1;" d="M 10.773438 28.480469 C 10.789062 28.507812 10.8125 28.527344 10.847656 28.535156 C 10.914062 28.558594 10.984375 28.554688 11.058594 28.527344 C 11.132812 28.5 11.199219 28.453125 11.257812 28.390625 C 11.125 28.347656 11.035156 28.304688 10.992188 28.261719 C 10.9375 28.257812 10.886719 28.273438 10.84375 28.296875 C 10.800781 28.324219 10.773438 28.355469 10.761719 28.398438 C 10.753906 28.425781 10.757812 28.453125 10.773438 28.480469 Z M 12.042969 27.375 C 12.042969 27.375 12.121094 27.59375 12.121094 27.59375 C 12.121094 27.59375 11.859375 27.515625 11.859375 27.515625 C 11.859375 27.515625 11.734375 27.921875 11.734375 27.921875 C 11.734375 27.921875 11.164062 27.75 11.164062 27.75 C 11.117188 27.738281 11.074219 27.742188 11.03125 27.769531 C 10.992188 27.792969 10.964844 27.832031 10.949219 27.878906 C 10.933594 27.933594 10.941406 27.984375 10.976562 28.035156 C 11.011719 28.085938 11.0625 28.121094 11.125 28.140625 C 11.125 28.140625 11.304688 28.179688 11.304688 28.179688 C 11.304688 28.164062 11.300781 28.152344 11.300781 28.140625 C 11.300781 28.125 11.304688 28.113281 11.304688 28.105469 C 11.316406 28.066406 11.34375 28.042969 11.386719 28.023438 C 11.429688 28.007812 11.476562 28.007812 11.527344 28.023438 C 11.582031 28.039062 11.621094 28.070312 11.644531 28.121094 C 11.671875 28.175781 11.675781 28.226562 11.65625 28.285156 C 11.648438 28.320312 11.621094 28.351562 11.585938 28.378906 C 11.550781 28.402344 11.507812 28.414062 11.457031 28.417969 C 11.457031 28.417969 11.6875 28.871094 11.6875 28.871094 C 11.6875 28.871094 11.546875 28.921875 11.546875 28.921875 C 11.546875 28.921875 11.425781 28.582031 11.425781 28.582031 C 11.351562 28.640625 11.269531 28.679688 11.183594 28.699219 C 11.097656 28.71875 11.019531 28.714844 10.941406 28.691406 C 10.847656 28.664062 10.761719 28.605469 10.6875 28.515625 C 10.613281 28.421875 10.582031 28.347656 10.601562 28.289062 C 10.609375 28.265625 10.617188 28.246094 10.628906 28.226562 C 10.636719 28.210938 10.652344 28.195312 10.664062 28.179688 C 10.566406 28.140625 10.492188 28.085938 10.441406 28.011719 C 10.390625 27.9375 10.375 27.863281 10.398438 27.792969 C 10.40625 27.769531 10.425781 27.738281 10.457031 27.707031 C 10.488281 27.675781 10.53125 27.640625 10.582031 27.609375 C 10.582031 27.609375 10.734375 27.847656 10.734375 27.847656 C 10.699219 27.863281 10.671875 27.878906 10.648438 27.898438 C 10.625 27.917969 10.609375 27.933594 10.605469 27.953125 C 10.597656 27.980469 10.605469 28.007812 10.625 28.035156 C 10.648438 28.066406 10.679688 28.085938 10.722656 28.097656 C 10.722656 28.097656 10.867188 28.046875 10.867188 28.046875 C 10.832031 27.992188 10.808594 27.9375 10.800781 27.875 C 10.789062 27.8125 10.792969 27.753906 10.8125 27.695312 C 10.832031 27.625 10.882812 27.574219 10.960938 27.546875 C 11.042969 27.515625 11.128906 27.515625 11.222656 27.546875 C 11.222656 27.546875 11.5625 27.644531 11.5625 27.644531 C 11.5625 27.644531 11.621094 27.441406 11.621094 27.441406 C 11.621094 27.441406 10.515625 27.109375 10.515625 27.109375 C 10.515625 27.109375 10.4375 26.894531 10.4375 26.894531 C 10.4375 26.894531 12.042969 27.375 12.042969 27.375 "/>
<path style=" stroke:none;fill-rule:nonzero;fill:rgb(100%,100%,100%);fill-opacity:1;" d="M 12.171875 27.691406 C 12.207031 27.734375 12.257812 27.765625 12.320312 27.785156 C 12.320312 27.785156 12.367188 27.527344 12.367188 27.527344 C 12.371094 27.5 12.371094 27.472656 12.363281 27.453125 C 12.351562 27.429688 12.339844 27.414062 12.324219 27.414062 C 12.277344 27.402344 12.238281 27.414062 12.199219 27.4375 C 12.160156 27.464844 12.136719 27.503906 12.128906 27.546875 C 12.121094 27.597656 12.132812 27.644531 12.171875 27.691406 Z M 12.65625 27.488281 C 12.65625 27.488281 13.394531 27.621094 13.394531 27.621094 C 13.394531 27.621094 13.496094 27.828125 13.496094 27.828125 C 13.496094 27.828125 13.269531 27.785156 13.269531 27.785156 C 13.269531 27.785156 13.027344 29.113281 13.027344 29.113281 C 13.027344 29.113281 12.8125 28.917969 12.8125 28.917969 C 12.8125 28.917969 12.886719 28.527344 12.886719 28.527344 C 12.886719 28.527344 12.449219 28.445312 12.449219 28.445312 C 12.449219 28.445312 12.421875 28.597656 12.421875 28.597656 C 12.414062 28.632812 12.402344 28.660156 12.378906 28.679688 C 12.355469 28.699219 12.335938 28.707031 12.308594 28.703125 C 12.238281 28.6875 12.164062 28.625 12.09375 28.511719 C 12.019531 28.398438 11.992188 28.304688 12.007812 28.226562 C 12.011719 28.207031 12.023438 28.191406 12.046875 28.179688 C 12.070312 28.167969 12.097656 28.164062 12.125 28.171875 C 12.125 28.171875 12.246094 28.191406 12.246094 28.191406 C 12.246094 28.191406 12.296875 27.90625 12.296875 27.90625 C 12.183594 27.851562 12.097656 27.777344 12.035156 27.6875 C 11.972656 27.59375 11.953125 27.503906 11.96875 27.410156 C 11.980469 27.351562 12.011719 27.304688 12.066406 27.273438 C 12.121094 27.242188 12.183594 27.230469 12.25 27.242188 C 12.339844 27.257812 12.421875 27.324219 12.492188 27.4375 C 12.566406 27.550781 12.59375 27.65625 12.574219 27.753906 C 12.574219 27.753906 12.488281 28.234375 12.488281 28.234375 C 12.488281 28.234375 12.921875 28.316406 12.921875 28.316406 C 12.921875 28.316406 13.027344 27.742188 13.027344 27.742188 C 13.027344 27.742188 12.742188 27.691406 12.742188 27.691406 C 12.742188 27.691406 12.65625 27.488281 12.65625 27.488281 "/>
<path style=" stroke:none;fill-rule:nonzero;fill:rgb(100%,100%,100%);fill-opacity:1;" d="M 13.027344 26.867188 C 13.09375 26.820312 13.164062 26.800781 13.242188 26.8125 C 13.324219 26.820312 13.394531 26.851562 13.457031 26.90625 C 13.523438 26.957031 13.566406 27.023438 13.589844 27.101562 C 13.589844 27.101562 13.539062 27.140625 13.539062 27.140625 C 13.515625 27.105469 13.488281 27.074219 13.457031 27.050781 C 13.421875 27.027344 13.390625 27.015625 13.355469 27.011719 C 13.285156 27 13.222656 27.019531 13.164062 27.0625 C 13.109375 27.109375 13.074219 27.167969 13.066406 27.238281 C 13.0625 27.277344 13.066406 27.320312 13.085938 27.367188 C 13.101562 27.414062 13.132812 27.464844 13.171875 27.515625 C 13.171875 27.515625 13.105469 27.554688 13.105469 27.554688 C 13.035156 27.480469 12.984375 27.398438 12.953125 27.308594 C 12.917969 27.222656 12.910156 27.136719 12.917969 27.050781 C 12.929688 26.972656 12.964844 26.914062 13.027344 26.867188 "/>
<path style=" stroke:none;fill-rule:nonzero;fill:rgb(100%,100%,100%);fill-opacity:1;" d="M 13.605469 28.632812 C 13.644531 28.667969 13.6875 28.6875 13.742188 28.691406 C 13.820312 28.695312 13.902344 28.683594 13.988281 28.652344 C 14.074219 28.625 14.160156 28.578125 14.25 28.515625 C 14.199219 28.445312 14.148438 28.394531 14.089844 28.355469 C 14.03125 28.316406 13.972656 28.292969 13.910156 28.289062 C 13.816406 28.28125 13.738281 28.300781 13.667969 28.34375 C 13.597656 28.386719 13.5625 28.441406 13.558594 28.507812 C 13.554688 28.554688 13.570312 28.597656 13.605469 28.632812 Z M 14.648438 27.710938 C 14.648438 27.710938 14.769531 27.90625 14.769531 27.90625 C 14.769531 27.90625 14.539062 27.890625 14.539062 27.890625 C 14.539062 27.890625 14.441406 29.238281 14.441406 29.238281 C 14.441406 29.238281 14.207031 29.066406 14.207031 29.066406 C 14.207031 29.066406 14.230469 28.757812 14.230469 28.757812 C 14.167969 28.804688 14.105469 28.835938 14.039062 28.859375 C 13.972656 28.878906 13.910156 28.890625 13.851562 28.882812 C 13.738281 28.875 13.628906 28.816406 13.519531 28.699219 C 13.410156 28.585938 13.359375 28.476562 13.367188 28.371094 C 13.375 28.285156 13.417969 28.210938 13.496094 28.152344 C 13.574219 28.097656 13.667969 28.070312 13.773438 28.078125 C 13.867188 28.085938 13.957031 28.117188 14.042969 28.175781 C 14.128906 28.234375 14.199219 28.3125 14.257812 28.40625 C 14.257812 28.40625 14.296875 27.871094 14.296875 27.871094 C 14.296875 27.871094 13.316406 27.800781 13.316406 27.800781 C 13.316406 27.800781 13.191406 27.605469 13.191406 27.605469 C 13.191406 27.605469 14.648438 27.710938 14.648438 27.710938 "/>
<path style=" stroke:none;fill-rule:nonzero;fill:rgb(100%,100%,100%);fill-opacity:1;" d="M 14.5 27.699219 C 14.5 27.699219 14.929688 27.707031 14.929688 27.707031 C 14.894531 27.644531 14.871094 27.582031 14.851562 27.515625 C 14.835938 27.453125 14.828125 27.386719 14.828125 27.320312 C 14.828125 27.21875 14.871094 27.132812 14.953125 27.0625 C 15.035156 26.992188 15.132812 26.957031 15.25 26.960938 C 15.390625 26.964844 15.539062 27.023438 15.703125 27.148438 C 15.863281 27.269531 16.015625 27.4375 16.15625 27.648438 C 16.15625 27.648438 16.097656 27.695312 16.097656 27.695312 C 15.988281 27.539062 15.867188 27.417969 15.730469 27.328125 C 15.589844 27.238281 15.449219 27.195312 15.304688 27.191406 C 15.226562 27.191406 15.15625 27.222656 15.097656 27.292969 C 15.039062 27.367188 15.011719 27.453125 15.007812 27.554688 C 15.007812 27.628906 15.011719 27.679688 15.023438 27.707031 C 15.023438 27.707031 15.1875 27.710938 15.1875 27.710938 C 15.1875 27.710938 15.324219 27.894531 15.324219 27.894531 C 15.324219 27.894531 15.09375 27.890625 15.09375 27.890625 C 15.09375 27.890625 15.074219 29.242188 15.074219 29.242188 C 15.074219 29.242188 14.832031 29.082031 14.832031 29.082031 C 14.832031 29.082031 14.851562 27.886719 14.851562 27.886719 C 14.851562 27.886719 14.632812 27.886719 14.632812 27.886719 C 14.632812 27.886719 14.5 27.699219 14.5 27.699219 "/>
<path style=" stroke:none;fill-rule:nonzero;fill:rgb(100%,100%,100%);fill-opacity:1;" d="M 16.441406 27.636719 C 16.441406 27.636719 16.59375 27.8125 16.59375 27.8125 C 16.59375 27.8125 16.363281 27.828125 16.363281 27.828125 C 16.363281 27.828125 16.453125 29.175781 16.453125 29.175781 C 16.453125 29.175781 16.199219 29.039062 16.199219 29.039062 C 16.199219 29.039062 16.152344 28.363281 16.152344 28.363281 C 16.152344 28.363281 15.679688 28.394531 15.679688 28.394531 C 15.636719 28.398438 15.601562 28.421875 15.574219 28.460938 C 15.546875 28.503906 15.535156 28.550781 15.539062 28.605469 C 15.542969 28.6875 15.578125 28.773438 15.636719 28.863281 C 15.695312 28.949219 15.777344 29.03125 15.878906 29.105469 C 15.878906 29.105469 15.792969 29.1875 15.792969 29.1875 C 15.640625 29.054688 15.523438 28.929688 15.4375 28.808594 C 15.351562 28.691406 15.304688 28.585938 15.300781 28.5 C 15.292969 28.410156 15.316406 28.332031 15.367188 28.265625 C 15.417969 28.199219 15.480469 28.164062 15.554688 28.160156 C 15.554688 28.160156 16.136719 28.121094 16.136719 28.121094 C 16.136719 28.121094 16.117188 27.84375 16.117188 27.84375 C 16.117188 27.84375 15.152344 27.910156 15.152344 27.910156 C 15.152344 27.910156 15.003906 27.734375 15.003906 27.734375 C 15.003906 27.734375 16.441406 27.636719 16.441406 27.636719 "/>
<path style=" stroke:none;fill-rule:nonzero;fill:rgb(100%,100%,100%);fill-opacity:1;" d="M 17.398438 28.417969 C 17.433594 28.441406 17.472656 28.449219 17.515625 28.441406 C 17.578125 28.429688 17.636719 28.398438 17.691406 28.351562 C 17.746094 28.304688 17.796875 28.246094 17.835938 28.171875 C 17.800781 28.132812 17.757812 28.101562 17.710938 28.082031 C 17.664062 28.066406 17.621094 28.058594 17.578125 28.070312 C 17.5 28.085938 17.4375 28.117188 17.390625 28.167969 C 17.339844 28.214844 17.324219 28.265625 17.332031 28.320312 C 17.34375 28.363281 17.363281 28.394531 17.398438 28.417969 Z M 18.507812 27.253906 C 18.507812 27.253906 18.679688 27.40625 18.679688 27.40625 C 18.679688 27.40625 17.957031 27.550781 17.957031 27.550781 C 17.957031 27.550781 18.039062 27.957031 18.039062 27.957031 C 18.0625 27.917969 18.089844 27.886719 18.125 27.859375 C 18.160156 27.832031 18.199219 27.816406 18.246094 27.804688 C 18.328125 27.789062 18.421875 27.832031 18.53125 27.9375 C 18.640625 28.039062 18.707031 28.152344 18.734375 28.269531 C 18.742188 28.324219 18.742188 28.386719 18.734375 28.453125 C 18.722656 28.519531 18.703125 28.589844 18.671875 28.660156 C 18.671875 28.660156 18.4375 28.519531 18.4375 28.519531 C 18.484375 28.449219 18.515625 28.378906 18.535156 28.3125 C 18.554688 28.246094 18.558594 28.1875 18.546875 28.136719 C 18.539062 28.085938 18.511719 28.046875 18.472656 28.019531 C 18.433594 27.988281 18.390625 27.980469 18.34375 27.988281 C 18.304688 28 18.257812 28.023438 18.214844 28.066406 C 18.171875 28.105469 18.132812 28.160156 18.09375 28.230469 C 18.09375 28.230469 18.226562 28.875 18.226562 28.875 C 18.226562 28.875 17.957031 28.773438 17.957031 28.773438 C 17.957031 28.773438 17.890625 28.441406 17.890625 28.441406 C 17.863281 28.484375 17.828125 28.515625 17.789062 28.542969 C 17.746094 28.570312 17.703125 28.589844 17.65625 28.597656 C 17.566406 28.617188 17.464844 28.585938 17.351562 28.5 C 17.242188 28.414062 17.175781 28.320312 17.15625 28.214844 C 17.140625 28.144531 17.15625 28.082031 17.207031 28.019531 C 17.257812 27.957031 17.320312 27.917969 17.402344 27.898438 C 17.46875 27.886719 17.535156 27.894531 17.605469 27.921875 C 17.679688 27.949219 17.746094 27.992188 17.808594 28.050781 C 17.808594 28.050781 17.71875 27.601562 17.71875 27.601562 C 17.71875 27.601562 16.964844 27.753906 16.964844 27.753906 C 16.964844 27.753906 16.792969 27.601562 16.792969 27.601562 C 16.792969 27.601562 18.507812 27.253906 18.507812 27.253906 "/>
<path style=" stroke:none;fill-rule:nonzero;fill:rgb(100%,100%,100%);fill-opacity:1;" d="M 18.417969 28.824219 C 18.417969 28.824219 18.421875 28.824219 18.421875 28.824219 C 18.421875 28.824219 18.421875 28.828125 18.421875 28.828125 C 18.421875 28.828125 18.417969 28.828125 18.417969 28.828125 C 18.417969 28.828125 18.417969 28.824219 18.417969 28.824219 "/>
<path style=" stroke:none;fill-rule:nonzero;fill:rgb(100%,100%,100%);fill-opacity:1;" d="M 19.171875 27.8125 C 19.171875 27.8125 19.605469 27.664062 19.605469 27.664062 C 19.605469 27.664062 19.417969 27.113281 19.417969 27.113281 C 19.417969 27.113281 18.980469 27.261719 18.980469 27.261719 C 18.980469 27.261719 19.171875 27.8125 19.171875 27.8125 Z M 19.675781 26.828125 C 19.675781 26.828125 19.867188 26.960938 19.867188 26.960938 C 19.867188 26.960938 19.648438 27.035156 19.648438 27.035156 C 19.648438 27.035156 20.085938 28.3125 20.085938 28.3125 C 20.085938 28.3125 19.804688 28.246094 19.804688 28.246094 C 19.804688 28.246094 19.6875 27.898438 19.6875 27.898438 C 19.6875 27.898438 19.25 28.046875 19.25 28.046875 C 19.25 28.046875 19.300781 28.191406 19.300781 28.191406 C 19.3125 28.222656 19.3125 28.253906 19.300781 28.28125 C 19.292969 28.3125 19.273438 28.328125 19.253906 28.335938 C 19.179688 28.363281 19.082031 28.339844 18.957031 28.273438 C 18.835938 28.207031 18.761719 28.136719 18.734375 28.058594 C 18.726562 28.035156 18.730469 28.011719 18.746094 27.988281 C 18.757812 27.964844 18.78125 27.945312 18.808594 27.9375 C 18.808594 27.9375 18.9375 27.894531 18.9375 27.894531 C 18.9375 27.894531 18.75 27.34375 18.75 27.34375 C 18.75 27.34375 18.445312 27.445312 18.445312 27.445312 C 18.445312 27.445312 18.253906 27.316406 18.253906 27.316406 C 18.253906 27.316406 19.675781 26.828125 19.675781 26.828125 "/>
<path style=" stroke:none;fill-rule:nonzero;fill:rgb(100%,100%,100%);fill-opacity:1;" d="M 18.996094 26.347656 C 19.027344 26.277344 19.082031 26.226562 19.15625 26.199219 C 19.230469 26.167969 19.3125 26.160156 19.390625 26.171875 C 19.472656 26.1875 19.542969 26.222656 19.601562 26.28125 C 19.601562 26.28125 19.578125 26.339844 19.578125 26.339844 C 19.539062 26.320312 19.5 26.308594 19.460938 26.304688 C 19.421875 26.296875 19.382812 26.304688 19.351562 26.316406 C 19.285156 26.34375 19.238281 26.390625 19.210938 26.457031 C 19.183594 26.523438 19.179688 26.589844 19.207031 26.65625 C 19.222656 26.691406 19.25 26.726562 19.289062 26.757812 C 19.324219 26.792969 19.375 26.820312 19.433594 26.847656 C 19.433594 26.847656 19.394531 26.914062 19.394531 26.914062 C 19.296875 26.882812 19.214844 26.835938 19.144531 26.773438 C 19.074219 26.710938 19.019531 26.640625 18.988281 26.5625 C 18.960938 26.492188 18.964844 26.421875 18.996094 26.347656 "/>
<path style=" stroke:none;fill-rule:nonzero;fill:rgb(100%,100%,100%);fill-opacity:1;" d="M 21.050781 26.195312 C 21.050781 26.195312 21.253906 26.300781 21.253906 26.300781 C 21.253906 26.300781 21.046875 26.398438 21.046875 26.398438 C 21.046875 26.398438 21.621094 27.617188 21.621094 27.617188 C 21.621094 27.617188 21.332031 27.585938 21.332031 27.585938 C 21.332031 27.585938 21.058594 27.003906 21.058594 27.003906 C 21.058594 27.003906 20.667969 27.1875 20.667969 27.1875 C 20.753906 27.210938 20.828125 27.242188 20.894531 27.289062 C 20.957031 27.335938 21.003906 27.394531 21.035156 27.457031 C 21.066406 27.523438 21.070312 27.59375 21.039062 27.667969 C 21.011719 27.742188 20.960938 27.796875 20.890625 27.828125 C 20.769531 27.886719 20.617188 27.871094 20.4375 27.785156 C 20.257812 27.699219 20.085938 27.5625 19.921875 27.367188 C 19.921875 27.367188 19.992188 27.300781 19.992188 27.300781 C 20.109375 27.4375 20.230469 27.535156 20.359375 27.59375 C 20.488281 27.652344 20.597656 27.660156 20.6875 27.621094 C 20.726562 27.601562 20.753906 27.570312 20.765625 27.527344 C 20.777344 27.484375 20.773438 27.445312 20.753906 27.402344 C 20.722656 27.335938 20.664062 27.277344 20.570312 27.230469 C 20.476562 27.179688 20.363281 27.144531 20.230469 27.121094 C 20.230469 27.121094 20.953125 26.78125 20.953125 26.78125 C 20.953125 26.78125 20.824219 26.503906 20.824219 26.503906 C 20.824219 26.503906 19.6875 27.039062 19.6875 27.039062 C 19.6875 27.039062 19.484375 26.933594 19.484375 26.933594 C 19.484375 26.933594 21.050781 26.195312 21.050781 26.195312 "/>
<path style=" stroke:none;fill-rule:nonzero;fill:rgb(100%,100%,100%);fill-opacity:1;" d="M 21.480469 25.921875 C 21.480469 25.921875 21.691406 26.015625 21.691406 26.015625 C 21.691406 26.015625 21.492188 26.128906 21.492188 26.128906 C 21.492188 26.128906 22.167969 27.296875 22.167969 27.296875 C 22.167969 27.296875 21.878906 27.289062 21.878906 27.289062 C 21.878906 27.289062 21.28125 26.25 21.28125 26.25 C 21.28125 26.25 21.089844 26.359375 21.089844 26.359375 C 21.089844 26.359375 20.878906 26.269531 20.878906 26.269531 C 20.878906 26.269531 21.480469 25.921875 21.480469 25.921875 "/>
<path style=" stroke:none;fill-rule:nonzero;fill:rgb(100%,100%,100%);fill-opacity:1;" d="M 6.777344 16.804688 C 6.777344 17.195312 7.683594 17.390625 7.917969 17.453125 C 8.929688 17.710938 9.984375 17.835938 11.023438 17.90625 C 11.988281 17.976562 13.160156 17.816406 14.085938 17.578125 C 13.542969 16.851562 13.015625 16.125 12.640625 15.304688 C 9.207031 15.53125 6.777344 16.21875 6.777344 16.804688 Z M 17.355469 15.296875 C 16.976562 16.117188 16.449219 16.84375 15.90625 17.570312 C 16.832031 17.808594 18.003906 17.96875 18.96875 17.898438 C 20.007812 17.828125 21.0625 17.703125 22.074219 17.445312 C 22.308594 17.382812 23.214844 17.1875 23.214844 16.796875 C 23.214844 16.210938 20.785156 15.523438 17.355469 15.296875 "/>
<path style="fill:none;stroke-width:0.75;stroke-linecap:butt;stroke-linejoin:miter;stroke:rgb(12.156863%,9.803922%,9.019608%);stroke-opacity:1;stroke-miterlimit:10;" d="M 205.023535 221.250655 C 205.023535 220.312929 207.199058 219.844067 207.761694 219.694031 C 210.190402 219.075132 212.722261 218.77506 215.21661 218.606269 C 217.532792 218.437479 220.345968 218.821946 222.568377 219.393959 C 221.264939 221.138128 219.99901 222.882297 219.098793 224.85152 C 210.856187 224.307639 205.023535 222.657243 205.023535 221.250655 Z M 230.417138 224.870275 C 229.507545 222.901051 228.241615 221.156882 226.938177 219.412713 C 229.160586 218.840701 231.973762 218.456233 234.289944 218.625024 C 236.784293 218.793814 239.316152 219.093886 241.744861 219.712785 C 242.307496 219.862821 244.483019 220.331684 244.483019 221.269409 C 244.483019 222.675997 238.650367 224.326394 230.417138 224.870275 Z M 230.417138 224.870275 " transform="matrix(0.416567,0,0,-0.416567,-78.628599,108.970305)"/>
<path style=" stroke:none;fill-rule:nonzero;fill:rgb(100%,100%,100%);fill-opacity:1;" d="M 14.085938 17.574219 C 13.546875 16.851562 13.023438 16.117188 12.648438 15.296875 C 12.621094 15.234375 12.589844 15.171875 12.5625 15.109375 C 12.375 14.660156 12.222656 14.199219 12.136719 13.757812 C 11.742188 11.761719 12.371094 9.734375 13.476562 8.078125 C 14.121094 7.109375 14.808594 6.121094 14.984375 4.945312 C 14.984375 4.945312 15.019531 4.945312 15.019531 4.945312 C 15.195312 6.121094 15.882812 7.109375 16.527344 8.078125 C 17.632812 9.734375 18.261719 11.761719 17.867188 13.757812 C 17.777344 14.199219 17.628906 14.660156 17.4375 15.109375 C 17.410156 15.171875 17.382812 15.234375 17.355469 15.296875 C 16.976562 16.117188 16.449219 16.84375 15.90625 17.570312 C 15.566406 17.480469 15.261719 17.378906 15.011719 17.277344 C 14.761719 17.378906 14.453125 17.480469 14.113281 17.570312 C 14.113281 17.570312 14.089844 17.574219 14.085938 17.574219 "/>
<path style="fill:none;stroke-width:0.75;stroke-linecap:butt;stroke-linejoin:miter;stroke:rgb(12.156863%,9.803922%,9.019608%);stroke-opacity:1;stroke-miterlimit:10;" d="M 222.568377 219.403336 C 221.274316 221.138128 220.017764 222.901051 219.117548 224.870275 C 219.051907 225.020311 218.976889 225.170347 218.911248 225.320383 C 218.46114 226.398767 218.095427 227.505283 217.889127 228.564913 C 216.942025 233.356689 218.451763 238.223484 221.105525 242.199439 C 222.652772 244.524998 224.303169 246.897443 224.725145 249.719997 C 224.725145 249.719997 224.809541 249.719997 224.809541 249.719997 C 225.231517 246.897443 226.881914 244.524998 228.429161 242.199439 C 231.082923 238.223484 232.592661 233.356689 231.645559 228.564913 C 231.429882 227.505283 231.073546 226.398767 230.614061 225.320383 C 230.54842 225.170347 230.482779 225.020311 230.417138 224.870275 C 229.507545 222.901051 228.241615 221.156882 226.938177 219.412713 C 226.122356 219.62839 225.39093 219.872198 224.790786 220.116007 C 224.190642 219.872198 223.449839 219.62839 222.634018 219.412713 C 222.634018 219.412713 222.577754 219.403336 222.568377 219.403336 Z M 222.568377 219.403336 " transform="matrix(0.416567,0,0,-0.416567,-78.628599,108.970305)"/>
<path style=" stroke:none;fill-rule:nonzero;fill:rgb(47.058824%,12.156863%,9.803922%);fill-opacity:1;" d="M 14.085938 17.578125 C 13.160156 17.816406 11.988281 17.976562 11.023438 17.90625 C 9.984375 17.835938 8.929688 17.710938 7.917969 17.453125 C 7.707031 17.398438 6.945312 17.230469 6.800781 16.910156 C 7.585938 19.789062 10.957031 21.953125 15 21.953125 C 19.039062 21.953125 22.410156 19.789062 23.195312 16.910156 C 23.195312 16.910156 23.1875 16.910156 23.1875 16.910156 C 23.035156 17.226562 22.285156 17.390625 22.074219 17.445312 C 21.0625 17.703125 20.007812 17.828125 18.96875 17.898438 C 18.003906 17.96875 16.832031 17.808594 15.90625 17.570312 C 15.566406 17.480469 15.261719 17.378906 15.011719 17.277344 C 14.761719 17.378906 14.453125 17.480469 14.113281 17.570312 C 14.113281 17.570312 14.089844 17.574219 14.085938 17.574219 Z M 14.085938 17.578125 "/>
<path style="fill:none;stroke-width:0.75;stroke-linecap:butt;stroke-linejoin:miter;stroke:rgb(12.156863%,9.803922%,9.019608%);stroke-opacity:1;stroke-miterlimit:10;" d="M 222.568377 219.393959 C 220.345968 218.821946 217.532792 218.437479 215.21661 218.606269 C 212.722261 218.77506 210.190402 219.075132 207.761694 219.694031 C 207.255322 219.825312 205.426757 220.228534 205.079799 220.997469 C 206.964627 214.086433 215.057197 208.891434 224.762654 208.891434 C 234.458735 208.891434 242.551304 214.086433 244.436132 220.997469 C 244.436132 220.997469 244.417378 220.997469 244.417378 220.997469 C 244.051665 220.237911 242.251232 219.844067 241.744861 219.712785 C 239.316152 219.093886 236.784293 218.793814 234.289944 218.625024 C 231.973762 218.456233 229.160586 218.840701 226.938177 219.412713 C 226.122356 219.62839 225.39093 219.872198 224.790786 220.116007 C 224.190642 219.872198 223.449839 219.62839 222.634018 219.412713 C 222.634018 219.412713 222.577754 219.403336 222.568377 219.403336 " transform="matrix(0.416567,0,0,-0.416567,-78.628599,108.970305)"/>
<path style=" stroke:none;fill-rule:nonzero;fill:rgb(74.117647%,63.921569%,27.058824%);fill-opacity:1;" d="M 15.148438 15.160156 C 15.082031 15.226562 15.023438 15.296875 15.023438 15.359375 C 15.023438 15.359375 15.015625 15.359375 15.015625 15.359375 C 15.011719 15.296875 14.949219 15.21875 14.878906 15.148438 C 14.878906 15.148438 14.878906 17.296875 14.878906 17.296875 C 14.878906 17.296875 14.957031 17.296875 14.957031 17.296875 C 14.976562 17.289062 14.992188 17.28125 15.011719 17.277344 C 15.027344 17.28125 15.046875 17.289062 15.066406 17.296875 C 15.066406 17.296875 15.148438 17.296875 15.148438 17.296875 C 15.148438 17.296875 15.148438 15.160156 15.148438 15.160156 "/>
<path style="fill:none;stroke-width:0.75;stroke-linecap:butt;stroke-linejoin:miter;stroke:rgb(12.156863%,9.803922%,9.019608%);stroke-opacity:1;stroke-miterlimit:10;" d="M 225.11899 225.198478 C 224.959577 225.039065 224.818918 224.870275 224.818918 224.720239 C 224.818918 224.720239 224.800163 224.720239 224.800163 224.720239 C 224.790786 224.870275 224.64075 225.05782 224.471959 225.22661 C 224.471959 225.22661 224.471959 220.069121 224.471959 220.069121 C 224.471959 220.069121 224.659505 220.069121 224.659505 220.069121 C 224.706391 220.087875 224.7439 220.10663 224.790786 220.116007 C 224.828295 220.10663 224.875181 220.087875 224.922068 220.069121 C 224.922068 220.069121 225.11899 220.069121 225.11899 220.069121 C 225.11899 220.069121 225.11899 225.198478 225.11899 225.198478 Z M 225.11899 225.198478 " transform="matrix(0.416567,0,0,-0.416567,-78.628599,108.970305)"/>
<path style=" stroke:none;fill-rule:nonzero;fill:rgb(85.098039%,14.901961%,10.980392%);fill-opacity:1;" d="M 15.046875 13.621094 C 15.046875 13.621094 14.988281 13.621094 14.988281 13.621094 C 14.691406 13.621094 14.445312 13.832031 14.378906 14.132812 C 14.292969 14.519531 14.46875 14.765625 14.734375 15.015625 C 14.800781 15.078125 15.011719 15.242188 15.015625 15.359375 C 15.015625 15.359375 15.023438 15.359375 15.023438 15.359375 C 15.027344 15.242188 15.234375 15.078125 15.304688 15.015625 C 15.566406 14.765625 15.742188 14.519531 15.65625 14.132812 C 15.589844 13.832031 15.34375 13.621094 15.046875 13.621094 C 15.046875 13.621094 14.988281 13.621094 14.988281 13.621094 Z M 15.046875 13.621094 "/>
<path style="fill:none;stroke-width:0.75;stroke-linecap:butt;stroke-linejoin:round;stroke:rgb(12.156863%,9.803922%,9.019608%);stroke-opacity:1;stroke-miterlimit:10;" d="M 224.875181 228.893116 C 224.875181 228.893116 224.734523 228.893116 224.734523 228.893116 C 224.021851 228.893116 223.431084 228.386745 223.271671 227.664696 C 223.065371 226.736348 223.487348 226.145581 224.125001 225.545437 C 224.284414 225.395401 224.790786 225.001556 224.800163 224.720239 C 224.800163 224.720239 224.818918 224.720239 224.818918 224.720239 C 224.828295 225.001556 225.32529 225.395401 225.49408 225.545437 C 226.122356 226.145581 226.544333 226.736348 226.338033 227.664696 C 226.17862 228.386745 225.587853 228.893116 224.875181 228.893116 C 224.875181 228.893116 224.734523 228.893116 224.734523 228.893116 " transform="matrix(0.416567,0,0,-0.416567,-78.628599,108.970305)"/>
<path style=" stroke:none;fill-rule:nonzero;fill:rgb(85.098039%,14.901961%,10.980392%);fill-opacity:1;" d="M 14.378906 14.132812 C 14.425781 13.929688 14.550781 13.769531 14.71875 13.6875 C 14.71875 13.6875 14.742188 13.652344 14.742188 13.652344 C 14.742188 13.652344 14.007812 13.054688 13.085938 13.769531 C 13.128906 13.75 13.488281 14.058594 13.535156 14.089844 C 13.777344 14.265625 14.035156 14.335938 14.339844 14.28125 C 14.339844 14.28125 14.363281 14.242188 14.363281 14.242188 C 14.367188 14.207031 14.371094 14.171875 14.378906 14.132812 "/>
<path style="fill:none;stroke-width:0.75;stroke-linecap:butt;stroke-linejoin:round;stroke:rgb(12.156863%,9.803922%,9.019608%);stroke-opacity:1;stroke-miterlimit:10;" d="M 223.271671 227.664696 C 223.384198 228.152313 223.68427 228.536781 224.087492 228.733703 C 224.087492 228.733703 224.143756 228.818098 224.143756 228.818098 C 224.143756 228.818098 222.380832 230.252818 220.1678 228.536781 C 220.27095 228.583667 221.133657 227.842864 221.246184 227.767846 C 221.827574 227.34587 222.446473 227.177079 223.177898 227.308361 C 223.177898 227.308361 223.234162 227.402133 223.234162 227.402133 C 223.243539 227.486528 223.252917 227.570924 223.271671 227.664696 Z M 223.271671 227.664696 " transform="matrix(0.416567,0,0,-0.416567,-78.628599,108.970305)"/>
<path style=" stroke:none;fill-rule:nonzero;fill:rgb(85.098039%,14.901961%,10.980392%);fill-opacity:1;" d="M 15.25 13.644531 C 15.25 13.644531 15.257812 13.660156 15.257812 13.660156 C 15.457031 13.730469 15.605469 13.90625 15.65625 14.132812 C 15.667969 14.1875 15.675781 14.238281 15.675781 14.285156 C 15.964844 14.328125 16.214844 14.257812 16.449219 14.089844 C 16.496094 14.058594 16.851562 13.75 16.894531 13.769531 C 15.976562 13.054688 15.25 13.644531 15.25 13.644531 "/>
<path style="fill:none;stroke-width:0.75;stroke-linecap:butt;stroke-linejoin:round;stroke:rgb(12.156863%,9.803922%,9.019608%);stroke-opacity:1;stroke-miterlimit:10;" d="M 225.362799 228.836853 C 225.362799 228.836853 225.381553 228.799344 225.381553 228.799344 C 225.859793 228.630553 226.216129 228.208577 226.338033 227.664696 C 226.366165 227.533415 226.384919 227.41151 226.384919 227.298983 C 227.078836 227.195834 227.67898 227.364624 228.241615 227.767846 C 228.354142 227.842864 229.207473 228.583667 229.310622 228.536781 C 227.106968 230.252818 225.362799 228.836853 225.362799 228.836853 Z M 225.362799 228.836853 " transform="matrix(0.416567,0,0,-0.416567,-78.628599,108.970305)"/>
<path style=" stroke:none;fill-rule:nonzero;fill:rgb(85.098039%,14.901961%,10.980392%);fill-opacity:1;" d="M 14.980469 9.425781 C 14.980469 9.425781 13.089844 12.3125 14.75 13.589844 C 14.75 13.589844 15.210938 13.589844 15.210938 13.589844 C 16.871094 12.3125 14.980469 9.425781 14.980469 9.425781 Z M 14.980469 9.425781 "/>
<path style="fill:none;stroke-width:0.75;stroke-linecap:round;stroke-linejoin:round;stroke:rgb(12.156863%,9.803922%,9.019608%);stroke-opacity:1;stroke-miterlimit:10;" d="M 224.715768 238.964287 C 224.715768 238.964287 220.177177 232.034496 224.16251 228.968134 C 224.16251 228.968134 225.269026 228.968134 225.269026 228.968134 C 229.254359 232.034496 224.715768 238.964287 224.715768 238.964287 " transform="matrix(0.416567,0,0,-0.416567,-78.628599,108.970305)"/>
<path style=" stroke:none;fill-rule:nonzero;fill:rgb(85.098039%,14.901961%,10.980392%);fill-opacity:1;" d="M 14.570312 10.183594 C 14.570312 10.183594 13.773438 9.484375 13.773438 9.484375 C 13.84375 9.546875 13.816406 9.953125 13.816406 10.046875 C 13.820312 10.269531 13.808594 10.488281 13.785156 10.710938 C 13.757812 11.003906 13.695312 11.285156 13.648438 11.574219 C 13.578125 12.03125 13.632812 12.507812 13.882812 12.902344 C 14.070312 13.191406 14.414062 13.445312 14.730469 13.574219 C 13.632812 12.710938 14.128906 11.125 14.570312 10.183594 "/>
<path style="fill:none;stroke-width:0.75;stroke-linecap:butt;stroke-linejoin:round;stroke:rgb(12.156863%,9.803922%,9.019608%);stroke-opacity:1;stroke-miterlimit:10;" d="M 223.731156 237.1451 C 223.731156 237.1451 221.818197 238.823628 221.818197 238.823628 C 221.986987 238.673592 221.921347 237.698358 221.921347 237.473303 C 221.930724 236.9388 221.902592 236.413674 221.846328 235.87917 C 221.780688 235.175876 221.630652 234.500714 221.518125 233.806797 C 221.349334 232.709659 221.480616 231.565634 222.08076 230.618531 C 222.530868 229.924614 223.356066 229.315093 224.115624 229.005643 C 221.480616 231.078017 222.671527 234.885181 223.731156 237.1451 Z M 223.731156 237.1451 " transform="matrix(0.416567,0,0,-0.416567,-78.628599,108.970305)"/>
<path style=" stroke:none;fill-rule:nonzero;fill:rgb(85.098039%,14.901961%,10.980392%);fill-opacity:1;" d="M 16.320312 11.574219 C 16.273438 11.285156 16.210938 11.003906 16.183594 10.710938 C 16.160156 10.488281 16.148438 10.269531 16.152344 10.046875 C 16.152344 9.953125 16.125 9.546875 16.191406 9.484375 C 16.191406 9.484375 15.394531 10.191406 15.394531 10.191406 C 15.832031 11.132812 16.328125 12.722656 15.21875 13.585938 C 15.539062 13.453125 15.894531 13.199219 16.085938 12.902344 C 16.335938 12.507812 16.390625 12.03125 16.320312 11.574219 "/>
<path style="fill:none;stroke-width:0.75;stroke-linecap:butt;stroke-linejoin:round;stroke:rgb(12.156863%,9.803922%,9.019608%);stroke-opacity:1;stroke-miterlimit:10;" d="M 227.932166 233.806797 C 227.819639 234.500714 227.669603 235.175876 227.603962 235.87917 C 227.547699 236.413674 227.519567 236.9388 227.528944 237.473303 C 227.528944 237.698358 227.463303 238.673592 227.622717 238.823628 C 227.622717 238.823628 225.709757 237.126345 225.709757 237.126345 C 226.760009 234.866427 227.950921 231.049885 225.287781 228.977512 C 226.056715 229.296338 226.910045 229.90586 227.369531 230.618531 C 227.969675 231.565634 228.100957 232.709659 227.932166 233.806797 Z M 227.932166 233.806797 " transform="matrix(0.416567,0,0,-0.416567,-78.628599,108.970305)"/>
<path style=" stroke:none;fill-rule:nonzero;fill:rgb(85.098039%,14.901961%,10.980392%);fill-opacity:1;" d="M 15.332031 13.535156 C 15.332031 13.535156 15.375 13.566406 15.375 13.566406 C 15.558594 13.464844 15.941406 13.324219 16.421875 13.5 C 16.421875 13.5 16.449219 13.492188 16.449219 13.492188 C 16.449219 13.492188 16.613281 13.042969 16.894531 13.042969 C 16.894531 13.042969 16.523438 12.84375 16.03125 12.976562 C 15.859375 13.207031 15.59375 13.40625 15.332031 13.535156 "/>
<path style="fill:none;stroke-width:0.75;stroke-linecap:butt;stroke-linejoin:round;stroke:rgb(12.156863%,9.803922%,9.019608%);stroke-opacity:1;stroke-miterlimit:10;" d="M 225.559721 229.099416 C 225.559721 229.099416 225.662871 229.024398 225.662871 229.024398 C 226.103602 229.268207 227.022572 229.605788 228.175975 229.183811 C 228.175975 229.183811 228.241615 229.202566 228.241615 229.202566 C 228.241615 229.202566 228.63546 230.28095 229.310622 230.28095 C 229.310622 230.28095 228.419783 230.75919 227.238249 230.440363 C 226.82565 229.887105 226.187997 229.408865 225.559721 229.099416 Z M 225.559721 229.099416 " transform="matrix(0.416567,0,0,-0.416567,-78.628599,108.970305)"/>
<path style=" stroke:none;fill-rule:nonzero;fill:rgb(85.098039%,14.901961%,10.980392%);fill-opacity:1;" d="M 14.597656 13.5625 C 14.597656 13.5625 14.621094 13.550781 14.621094 13.550781 C 14.621094 13.550781 14.609375 13.519531 14.609375 13.519531 C 14.359375 13.394531 14.105469 13.199219 13.9375 12.976562 C 13.9375 12.976562 13.933594 12.976562 13.933594 12.976562 C 13.441406 12.84375 13.066406 13.042969 13.066406 13.042969 C 13.347656 13.042969 13.511719 13.492188 13.511719 13.492188 C 13.511719 13.492188 13.546875 13.507812 13.546875 13.507812 C 14.019531 13.328125 14.398438 13.457031 14.597656 13.5625 "/>
<path style="fill:none;stroke-width:0.75;stroke-linecap:butt;stroke-linejoin:round;stroke:rgb(12.156863%,9.803922%,9.019608%);stroke-opacity:1;stroke-miterlimit:10;" d="M 223.796797 229.033775 C 223.796797 229.033775 223.853061 229.061907 223.853061 229.061907 C 223.853061 229.061907 223.824929 229.136925 223.824929 229.136925 C 223.224785 229.436997 222.615263 229.90586 222.212041 230.440363 C 222.212041 230.440363 222.202664 230.440363 222.202664 230.440363 C 221.02113 230.75919 220.120914 230.28095 220.120914 230.28095 C 220.796076 230.28095 221.189921 229.202566 221.189921 229.202566 C 221.189921 229.202566 221.274316 229.165057 221.274316 229.165057 C 222.408964 229.59641 223.318557 229.286961 223.796797 229.033775 Z M 223.796797 229.033775 " transform="matrix(0.416567,0,0,-0.416567,-78.628599,108.970305)"/>
<path style=" stroke:none;fill-rule:nonzero;fill:rgb(85.098039%,14.901961%,10.980392%);fill-opacity:1;" d="M 14.566406 10.195312 C 14.648438 10.015625 14.726562 9.863281 14.796875 9.738281 C 14.796875 9.738281 14.46875 9.285156 14.46875 9.285156 C 14.46875 9.285156 14.214844 9.847656 14.214844 9.847656 C 14.214844 9.847656 14.214844 9.871094 14.214844 9.871094 C 14.214844 9.871094 14.570312 10.183594 14.570312 10.183594 C 14.566406 10.1875 14.566406 10.191406 14.566406 10.195312 "/>
<path style="fill:none;stroke-width:0.75;stroke-linecap:butt;stroke-linejoin:miter;stroke:rgb(12.156863%,9.803922%,9.019608%);stroke-opacity:1;stroke-miterlimit:10;" d="M 223.721779 237.116968 C 223.918702 237.548322 224.106247 237.914034 224.275037 238.214107 C 224.275037 238.214107 223.487348 239.301868 223.487348 239.301868 C 223.487348 239.301868 222.877826 237.951543 222.877826 237.951543 C 222.877826 237.951543 222.877826 237.89528 222.877826 237.89528 C 222.877826 237.89528 223.731156 237.1451 223.731156 237.1451 C 223.721779 237.135722 223.721779 237.126345 223.721779 237.116968 Z M 223.721779 237.116968 " transform="matrix(0.416567,0,0,-0.416567,-78.628599,108.970305)"/>
<path style=" stroke:none;fill-rule:nonzero;fill:rgb(85.098039%,14.901961%,10.980392%);fill-opacity:1;" d="M 15.394531 10.191406 C 15.394531 10.191406 15.785156 9.847656 15.785156 9.847656 C 15.785156 9.847656 15.527344 9.285156 15.527344 9.285156 C 15.527344 9.285156 15.195312 9.746094 15.195312 9.746094 C 15.195312 9.746094 15.195312 9.800781 15.195312 9.800781 C 15.257812 9.914062 15.328125 10.050781 15.398438 10.203125 C 15.398438 10.199219 15.394531 10.195312 15.394531 10.191406 "/>
<path style="fill:none;stroke-width:0.75;stroke-linecap:butt;stroke-linejoin:miter;stroke:rgb(12.156863%,9.803922%,9.019608%);stroke-opacity:1;stroke-miterlimit:10;" d="M 225.709757 237.126345 C 225.709757 237.126345 226.647482 237.951543 226.647482 237.951543 C 226.647482 237.951543 226.028584 239.301868 226.028584 239.301868 C 226.028584 239.301868 225.231517 238.195352 225.231517 238.195352 C 225.231517 238.195352 225.231517 238.06407 225.231517 238.06407 C 225.381553 237.79213 225.550344 237.463926 225.719134 237.098213 C 225.719134 237.107591 225.709757 237.116968 225.709757 237.126345 Z M 225.709757 237.126345 " transform="matrix(0.416567,0,0,-0.416567,-78.628599,108.970305)"/>
</g>
</svg>
