<?xml version="1.0" encoding="UTF-8"?>
<svg xmlns="http://www.w3.org/2000/svg" xmlns:xlink="http://www.w3.org/1999/xlink" width="60px" height="60px" viewBox="0 0 60 60" version="1.1">
<g id="surface1">
<path style=" stroke:none;fill-rule:nonzero;fill:rgb(47.058824%,12.156863%,9.803922%);fill-opacity:1;" d="M 59.984375 29.992188 C 59.984375 46.554688 46.554688 59.984375 29.992188 59.984375 C 13.429688 59.984375 0 46.554688 0 29.992188 C 0 13.429688 13.429688 0 29.992188 0 C 46.554688 0 59.984375 13.429688 59.984375 29.992188 "/>
<path style=" stroke:none;fill-rule:nonzero;fill:rgb(83.921569%,65.098039%,30.980392%);fill-opacity:1;" d="M 53.140625 29.992188 C 53.140625 42.773438 42.773438 53.140625 29.992188 53.140625 C 17.210938 53.140625 6.84375 42.773438 6.84375 29.992188 C 6.84375 17.210938 17.210938 6.84375 29.992188 6.84375 C 42.773438 6.84375 53.140625 17.210938 53.140625 29.992188 "/>
<path style="fill:none;stroke-width:0.75;stroke-linecap:butt;stroke-linejoin:miter;stroke:rgb(100%,100%,100%);stroke-opacity:1;stroke-miterlimit:10;" d="M 252.537795 225.592069 C 252.537795 210.250899 240.094193 197.807298 224.753024 197.807298 C 209.411854 197.807298 196.968252 210.250899 196.968252 225.592069 C 196.968252 240.933238 209.411854 253.37684 224.753024 253.37684 C 240.094193 253.37684 252.537795 240.933238 252.537795 225.592069 Z M 252.537795 225.592069 " transform="matrix(0.833134,0,0,-0.833134,-157.257198,217.94061)"/>
<path style=" stroke:none;fill-rule:nonzero;fill:rgb(100%,100%,100%);fill-opacity:1;" d="M 9.945312 49.914062 C 9.945312 49.914062 12.4375 47.367188 12.4375 47.367188 C 12.4375 47.367188 13.007812 47.929688 13.007812 47.929688 C 13.007812 47.929688 10.523438 50.476562 10.523438 50.476562 C 10.523438 50.476562 9.945312 49.914062 9.945312 49.914062 "/>
<path style=" stroke:none;fill-rule:nonzero;fill:rgb(100%,100%,100%);fill-opacity:1;" d="M 11.710938 46.664062 C 11.710938 46.664062 8.9375 48.90625 8.9375 48.90625 C 8.9375 48.90625 8.351562 48.171875 8.351562 48.171875 C 8.351562 48.171875 8.898438 46.773438 8.898438 46.773438 C 9.054688 46.375 9.273438 45.9375 9.484375 45.554688 C 9.484375 45.554688 9.476562 45.546875 9.476562 45.546875 C 9.140625 45.882812 8.773438 46.195312 8.359375 46.53125 C 8.359375 46.53125 7.554688 47.1875 7.554688 47.1875 C 7.554688 47.1875 7.085938 46.609375 7.085938 46.609375 C 7.085938 46.609375 9.851562 44.375 9.851562 44.375 C 9.851562 44.375 10.382812 45.03125 10.382812 45.03125 C 10.382812 45.03125 9.796875 46.484375 9.796875 46.484375 C 9.632812 46.890625 9.429688 47.359375 9.210938 47.757812 C 9.210938 47.757812 9.21875 47.773438 9.21875 47.773438 C 9.570312 47.453125 9.960938 47.125 10.40625 46.765625 C 10.40625 46.765625 11.242188 46.085938 11.242188 46.085938 C 11.242188 46.085938 11.710938 46.664062 11.710938 46.664062 "/>
<path style=" stroke:none;fill-rule:nonzero;fill:rgb(100%,100%,100%);fill-opacity:1;" d="M 8.351562 43.132812 C 8.328125 43.070312 8.273438 42.96875 8.226562 42.882812 C 7.867188 42.242188 7.28125 42.023438 6.539062 42.453125 C 5.875 42.828125 5.773438 43.382812 6.125 43.992188 C 6.210938 44.140625 6.28125 44.242188 6.328125 44.289062 C 6.328125 44.289062 8.351562 43.132812 8.351562 43.132812 Z M 6.234375 45.273438 C 6.039062 45.039062 5.828125 44.71875 5.625 44.375 C 5.289062 43.78125 5.164062 43.34375 5.21875 42.921875 C 5.273438 42.460938 5.546875 42.039062 6.09375 41.726562 C 6.6875 41.382812 7.21875 41.367188 7.640625 41.515625 C 8.09375 41.6875 8.507812 42.117188 8.859375 42.71875 C 9.0625 43.085938 9.1875 43.359375 9.265625 43.539062 C 9.265625 43.539062 6.234375 45.273438 6.234375 45.273438 "/>
<path style=" stroke:none;fill-rule:nonzero;fill:rgb(100%,100%,100%);fill-opacity:1;" d="M 3.8125 40.648438 C 3.8125 40.648438 7.085938 39.257812 7.085938 39.257812 C 7.085938 39.257812 7.398438 40 7.398438 40 C 7.398438 40 4.125 41.390625 4.125 41.390625 C 4.125 41.390625 3.8125 40.648438 3.8125 40.648438 "/>
<path style=" stroke:none;fill-rule:nonzero;fill:rgb(100%,100%,100%);fill-opacity:1;" d="M 4.75 37.09375 C 4.75 37.09375 4.085938 37.515625 4.085938 37.515625 C 3.898438 37.632812 3.65625 37.773438 3.476562 37.882812 C 3.476562 37.882812 3.484375 37.898438 3.484375 37.898438 C 3.695312 37.882812 3.96875 37.859375 4.1875 37.851562 C 4.1875 37.851562 4.96875 37.84375 4.96875 37.84375 C 4.96875 37.84375 4.75 37.09375 4.75 37.09375 Z M 5.578125 37.789062 C 5.578125 37.789062 6.53125 37.765625 6.53125 37.765625 C 6.53125 37.765625 6.765625 38.570312 6.765625 38.570312 C 6.765625 38.570312 3.039062 38.53125 3.039062 38.53125 C 3.039062 38.53125 2.742188 37.523438 2.742188 37.523438 C 2.742188 37.523438 5.84375 35.453125 5.84375 35.453125 C 5.84375 35.453125 6.09375 36.28125 6.09375 36.28125 C 6.09375 36.28125 5.289062 36.804688 5.289062 36.804688 C 5.289062 36.804688 5.578125 37.789062 5.578125 37.789062 "/>
<path style=" stroke:none;fill-rule:nonzero;fill:rgb(100%,100%,100%);fill-opacity:1;" d="M 5.695312 34.679688 C 5.695312 34.679688 2.164062 35.140625 2.164062 35.140625 C 2.164062 35.140625 2.039062 34.203125 2.039062 34.203125 C 2.039062 34.203125 3.242188 33.304688 3.242188 33.304688 C 3.585938 33.046875 4 32.78125 4.375 32.570312 C 4.375 32.570312 4.375 32.554688 4.375 32.554688 C 3.914062 32.664062 3.4375 32.742188 2.90625 32.8125 C 2.90625 32.8125 1.875 32.945312 1.875 32.945312 C 1.875 32.945312 1.78125 32.210938 1.78125 32.210938 C 1.78125 32.210938 5.3125 31.757812 5.3125 31.757812 C 5.3125 31.757812 5.421875 32.59375 5.421875 32.59375 C 5.421875 32.59375 4.15625 33.523438 4.15625 33.523438 C 3.804688 33.78125 3.382812 34.078125 2.992188 34.296875 C 2.992188 34.296875 2.992188 34.320312 2.992188 34.320312 C 3.460938 34.234375 3.960938 34.15625 4.53125 34.078125 C 4.53125 34.078125 5.59375 33.945312 5.59375 33.945312 C 5.59375 33.945312 5.695312 34.679688 5.695312 34.679688 "/>
<path style=" stroke:none;fill-rule:nonzero;fill:rgb(100%,100%,100%);fill-opacity:1;" d="M 1.773438 28.398438 C 1.773438 28.398438 5.335938 28.546875 5.335938 28.546875 C 5.335938 28.546875 5.296875 29.34375 5.296875 29.34375 C 5.296875 29.34375 1.742188 29.203125 1.742188 29.203125 C 1.742188 29.203125 1.773438 28.398438 1.773438 28.398438 "/>
<path style=" stroke:none;fill-rule:nonzero;fill:rgb(100%,100%,100%);fill-opacity:1;" d="M 5.375 27.523438 C 5.375 27.523438 1.859375 26.960938 1.859375 26.960938 C 1.859375 26.960938 2.007812 26.03125 2.007812 26.03125 C 2.007812 26.03125 3.40625 25.507812 3.40625 25.507812 C 3.8125 25.359375 4.28125 25.226562 4.703125 25.125 C 4.703125 25.125 4.710938 25.117188 4.710938 25.117188 C 4.234375 25.09375 3.757812 25.03125 3.226562 24.945312 C 3.226562 24.945312 2.203125 24.78125 2.203125 24.78125 C 2.203125 24.78125 2.320312 24.054688 2.320312 24.054688 C 2.320312 24.054688 5.835938 24.609375 5.835938 24.609375 C 5.835938 24.609375 5.703125 25.445312 5.703125 25.445312 C 5.703125 25.445312 4.226562 25.984375 4.226562 25.984375 C 3.8125 26.132812 3.328125 26.296875 2.890625 26.390625 C 2.890625 26.390625 2.882812 26.414062 2.882812 26.414062 C 3.359375 26.460938 3.859375 26.53125 4.429688 26.625 C 4.429688 26.625 5.484375 26.796875 5.484375 26.796875 C 5.484375 26.796875 5.375 27.523438 5.375 27.523438 "/>
<path style=" stroke:none;fill-rule:nonzero;fill:rgb(100%,100%,100%);fill-opacity:1;" d="M 5.320312 23.359375 C 5.484375 23.1875 5.695312 22.898438 5.796875 22.570312 C 5.90625 22.21875 5.820312 21.992188 5.59375 21.914062 C 5.382812 21.851562 5.210938 21.976562 4.9375 22.335938 C 4.5625 22.84375 4.132812 23.117188 3.632812 22.960938 C 3.054688 22.78125 2.765625 22.148438 3.015625 21.351562 C 3.140625 20.96875 3.304688 20.710938 3.460938 20.539062 C 3.460938 20.539062 4.023438 20.90625 4.023438 20.90625 C 3.914062 21.015625 3.742188 21.234375 3.640625 21.5625 C 3.53125 21.890625 3.640625 22.101562 3.8125 22.15625 C 4.03125 22.226562 4.179688 22.070312 4.492188 21.679688 C 4.90625 21.148438 5.304688 20.96875 5.789062 21.117188 C 6.359375 21.296875 6.703125 21.882812 6.414062 22.820312 C 6.289062 23.203125 6.0625 23.554688 5.898438 23.710938 C 5.898438 23.710938 5.320312 23.359375 5.320312 23.359375 "/>
<path style=" stroke:none;fill-rule:nonzero;fill:rgb(100%,100%,100%);fill-opacity:1;" d="M 4.78125 18.789062 C 4.78125 18.789062 4.375 19.664062 4.375 19.664062 C 4.375 19.664062 3.757812 19.375 3.757812 19.375 C 3.757812 19.375 4.90625 16.898438 4.90625 16.898438 C 4.90625 16.898438 5.523438 17.179688 5.523438 17.179688 C 5.523438 17.179688 5.117188 18.0625 5.117188 18.0625 C 5.117188 18.0625 7.734375 19.273438 7.734375 19.273438 C 7.734375 19.273438 7.398438 20 7.398438 20 C 7.398438 20 4.78125 18.789062 4.78125 18.789062 "/>
<path style=" stroke:none;fill-rule:nonzero;fill:rgb(100%,100%,100%);fill-opacity:1;" d="M 5.882812 15.234375 C 5.882812 15.234375 8.945312 17.054688 8.945312 17.054688 C 8.945312 17.054688 8.539062 17.742188 8.539062 17.742188 C 8.539062 17.742188 5.476562 15.929688 5.476562 15.929688 C 5.476562 15.929688 5.882812 15.234375 5.882812 15.234375 "/>
<path style=" stroke:none;fill-rule:nonzero;fill:rgb(100%,100%,100%);fill-opacity:1;" d="M 7.578125 13.914062 C 7.578125 13.914062 7 14.6875 7 14.6875 C 7 14.6875 6.460938 14.28125 6.460938 14.28125 C 6.460938 14.28125 8.085938 12.085938 8.085938 12.085938 C 8.085938 12.085938 8.632812 12.492188 8.632812 12.492188 C 8.632812 12.492188 8.054688 13.265625 8.054688 13.265625 C 8.054688 13.265625 10.367188 14.984375 10.367188 14.984375 C 10.367188 14.984375 9.890625 15.632812 9.890625 15.632812 C 9.890625 15.632812 7.578125 13.914062 7.578125 13.914062 "/>
<path style=" stroke:none;fill-rule:nonzero;fill:rgb(100%,100%,100%);fill-opacity:1;" d="M 9.460938 10.5625 C 9.460938 10.5625 10.914062 12 10.914062 12 C 11.351562 12.4375 11.742188 12.484375 12.03125 12.195312 C 12.328125 11.898438 12.28125 11.523438 11.828125 11.078125 C 11.828125 11.078125 10.375 9.640625 10.375 9.640625 C 10.375 9.640625 10.945312 9.070312 10.945312 9.070312 C 10.945312 9.070312 12.359375 10.476562 12.359375 10.476562 C 13.140625 11.25 13.125 12.007812 12.46875 12.671875 C 11.835938 13.304688 11.109375 13.328125 10.3125 12.53125 C 10.3125 12.53125 8.898438 11.132812 8.898438 11.132812 C 8.898438 11.132812 9.460938 10.5625 9.460938 10.5625 "/>
<path style=" stroke:none;fill-rule:nonzero;fill:rgb(100%,100%,100%);fill-opacity:1;" d="M 13.070312 8.203125 C 13.070312 8.203125 12.304688 8.78125 12.304688 8.78125 C 12.304688 8.78125 11.898438 8.242188 11.898438 8.242188 C 11.898438 8.242188 14.078125 6.59375 14.078125 6.59375 C 14.078125 6.59375 14.492188 7.132812 14.492188 7.132812 C 14.492188 7.132812 13.710938 7.71875 13.710938 7.71875 C 13.710938 7.71875 15.445312 10.023438 15.445312 10.023438 C 15.445312 10.023438 14.8125 10.507812 14.8125 10.507812 C 14.8125 10.507812 13.070312 8.203125 13.070312 8.203125 "/>
<path style=" stroke:none;fill-rule:nonzero;fill:rgb(100%,100%,100%);fill-opacity:1;" d="M 17.953125 6.6875 C 17.953125 6.6875 16.8125 7.335938 16.8125 7.335938 C 16.8125 7.335938 17.234375 8.070312 17.234375 8.070312 C 17.234375 8.070312 18.5 7.34375 18.5 7.34375 C 18.5 7.34375 18.828125 7.921875 18.828125 7.921875 C 18.828125 7.921875 16.859375 9.039062 16.859375 9.039062 C 16.859375 9.039062 15.101562 5.953125 15.101562 5.953125 C 15.101562 5.953125 17 4.867188 17 4.867188 C 17 4.867188 17.328125 5.4375 17.328125 5.4375 C 17.328125 5.4375 16.125 6.125 16.125 6.125 C 16.125 6.125 16.492188 6.765625 16.492188 6.765625 C 16.492188 6.765625 17.625 6.117188 17.625 6.117188 C 17.625 6.117188 17.953125 6.6875 17.953125 6.6875 "/>
<path style=" stroke:none;fill-rule:nonzero;fill:rgb(100%,100%,100%);fill-opacity:1;" d="M 22.171875 5.945312 C 22.6875 5.78125 22.828125 5.195312 22.609375 4.53125 C 22.414062 3.921875 21.960938 3.492188 21.429688 3.664062 C 20.90625 3.835938 20.773438 4.445312 20.976562 5.078125 C 21.1875 5.71875 21.65625 6.117188 22.164062 5.945312 C 22.164062 5.945312 22.171875 5.945312 22.171875 5.945312 Z M 22.335938 6.5625 C 21.335938 6.890625 20.5 6.320312 20.179688 5.359375 C 19.851562 4.34375 20.257812 3.375 21.25 3.046875 C 22.296875 2.710938 23.117188 3.304688 23.414062 4.242188 C 23.78125 5.359375 23.328125 6.242188 22.34375 6.5625 C 22.34375 6.5625 22.335938 6.5625 22.335938 6.5625 "/>
<path style=" stroke:none;fill-rule:nonzero;fill:rgb(100%,100%,100%);fill-opacity:1;" d="M 24.234375 2.304688 C 24.234375 2.304688 26.375 1.9375 26.375 1.9375 C 26.375 1.9375 26.484375 2.59375 26.484375 2.59375 C 26.484375 2.59375 25.132812 2.820312 25.132812 2.820312 C 25.132812 2.820312 25.265625 3.625 25.265625 3.625 C 25.265625 3.625 26.53125 3.40625 26.53125 3.40625 C 26.53125 3.40625 26.640625 4.054688 26.640625 4.054688 C 26.640625 4.054688 25.375 4.265625 25.375 4.265625 C 25.375 4.265625 25.617188 5.679688 25.617188 5.679688 C 25.617188 5.679688 24.828125 5.8125 24.828125 5.8125 C 24.828125 5.8125 24.234375 2.304688 24.234375 2.304688 "/>
<path style=" stroke:none;fill-rule:nonzero;fill:rgb(100%,100%,100%);fill-opacity:1;" d="M 30.007812 2.40625 C 30.007812 2.40625 29.054688 2.390625 29.054688 2.390625 C 29.054688 2.390625 29.0625 1.710938 29.0625 1.710938 C 29.0625 1.710938 31.796875 1.757812 31.796875 1.757812 C 31.796875 1.757812 31.789062 2.4375 31.789062 2.4375 C 31.789062 2.4375 30.8125 2.421875 30.8125 2.421875 C 30.8125 2.421875 30.765625 5.304688 30.765625 5.304688 C 30.765625 5.304688 29.96875 5.289062 29.96875 5.289062 C 29.96875 5.289062 30.007812 2.40625 30.007812 2.40625 "/>
<path style=" stroke:none;fill-rule:nonzero;fill:rgb(100%,100%,100%);fill-opacity:1;" d="M 34.796875 4.203125 C 34.796875 4.203125 33.5 4.023438 33.5 4.023438 C 33.5 4.023438 33.375 4.859375 33.375 4.859375 C 33.375 4.859375 34.828125 5.0625 34.828125 5.0625 C 34.828125 5.0625 34.734375 5.71875 34.734375 5.71875 C 34.734375 5.71875 32.484375 5.398438 32.484375 5.398438 C 32.484375 5.398438 32.992188 1.875 32.992188 1.875 C 32.992188 1.875 35.164062 2.179688 35.164062 2.179688 C 35.164062 2.179688 35.070312 2.835938 35.070312 2.835938 C 35.070312 2.835938 33.695312 2.640625 33.695312 2.640625 C 33.695312 2.640625 33.585938 3.375 33.585938 3.375 C 33.585938 3.375 34.882812 3.554688 34.882812 3.554688 C 34.882812 3.554688 34.796875 4.203125 34.796875 4.203125 "/>
<path style=" stroke:none;fill-rule:nonzero;fill:rgb(100%,100%,100%);fill-opacity:1;" d="M 38.117188 6.515625 C 37.960938 6.546875 37.609375 6.53125 37.195312 6.414062 C 36.015625 6.078125 35.617188 5.164062 35.890625 4.1875 C 36.226562 3.015625 37.242188 2.609375 38.28125 2.898438 C 38.679688 3.015625 38.960938 3.1875 39.078125 3.296875 C 39.078125 3.296875 38.742188 3.859375 38.742188 3.859375 C 38.609375 3.75 38.40625 3.625 38.125 3.546875 C 37.523438 3.375 36.9375 3.609375 36.71875 4.375 C 36.523438 5.0625 36.804688 5.609375 37.492188 5.804688 C 37.734375 5.875 38 5.898438 38.171875 5.875 C 38.171875 5.875 38.117188 6.515625 38.117188 6.515625 "/>
<path style=" stroke:none;fill-rule:nonzero;fill:rgb(100%,100%,100%);fill-opacity:1;" d="M 41.109375 4 C 41.109375 4 40.539062 5.242188 40.539062 5.242188 C 40.539062 5.242188 41.742188 5.796875 41.742188 5.796875 C 41.742188 5.796875 42.3125 4.546875 42.3125 4.546875 C 42.3125 4.546875 43.046875 4.882812 43.046875 4.882812 C 43.046875 4.882812 41.570312 8.117188 41.570312 8.117188 C 41.570312 8.117188 40.835938 7.78125 40.835938 7.78125 C 40.835938 7.78125 41.453125 6.4375 41.453125 6.4375 C 41.453125 6.4375 40.25 5.882812 40.25 5.882812 C 40.25 5.882812 39.632812 7.234375 39.632812 7.234375 C 39.632812 7.234375 38.898438 6.898438 38.898438 6.898438 C 38.898438 6.898438 40.375 3.664062 40.375 3.664062 C 40.375 3.664062 41.109375 4 41.109375 4 "/>
<path style=" stroke:none;fill-rule:nonzero;fill:rgb(100%,100%,100%);fill-opacity:1;" d="M 42.460938 8.617188 C 42.460938 8.617188 44.4375 5.65625 44.4375 5.65625 C 44.4375 5.65625 45.21875 6.179688 45.21875 6.179688 C 45.21875 6.179688 45.109375 7.671875 45.109375 7.671875 C 45.078125 8.101562 45 8.585938 44.914062 9.007812 C 44.914062 9.007812 44.921875 9.015625 44.921875 9.015625 C 45.148438 8.601562 45.398438 8.1875 45.695312 7.742188 C 45.695312 7.742188 46.273438 6.882812 46.273438 6.882812 C 46.273438 6.882812 46.890625 7.289062 46.890625 7.289062 C 46.890625 7.289062 44.914062 10.25 44.914062 10.25 C 44.914062 10.25 44.210938 9.78125 44.210938 9.78125 C 44.210938 9.78125 44.335938 8.21875 44.335938 8.21875 C 44.375 7.78125 44.429688 7.273438 44.523438 6.828125 C 44.523438 6.828125 44.507812 6.820312 44.507812 6.820312 C 44.265625 7.226562 43.992188 7.648438 43.671875 8.132812 C 43.671875 8.132812 43.078125 9.023438 43.078125 9.023438 C 43.078125 9.023438 42.460938 8.617188 42.460938 8.617188 "/>
<path style=" stroke:none;fill-rule:nonzero;fill:rgb(100%,100%,100%);fill-opacity:1;" d="M 47.242188 11.515625 C 47.640625 11.882812 48.21875 11.726562 48.695312 11.210938 C 49.132812 10.75 49.289062 10.140625 48.882812 9.757812 C 48.476562 9.382812 47.882812 9.5625 47.421875 10.046875 C 46.96875 10.539062 46.84375 11.140625 47.242188 11.507812 C 47.242188 11.507812 47.242188 11.515625 47.242188 11.515625 Z M 46.78125 11.953125 C 46.015625 11.234375 46.101562 10.226562 46.796875 9.492188 C 47.523438 8.710938 48.570312 8.59375 49.328125 9.304688 C 50.132812 10.054688 50.007812 11.0625 49.335938 11.78125 C 48.539062 12.632812 47.546875 12.671875 46.78125 11.960938 C 46.78125 11.960938 46.78125 11.953125 46.78125 11.953125 "/>
<path style=" stroke:none;fill-rule:nonzero;fill:rgb(100%,100%,100%);fill-opacity:1;" d="M 51.414062 11.539062 C 51.414062 11.539062 51.914062 12.164062 51.914062 12.164062 C 51.914062 12.164062 49.671875 13.96875 49.671875 13.96875 C 49.671875 13.96875 50.554688 15.070312 50.554688 15.070312 C 50.554688 15.070312 50.03125 15.492188 50.03125 15.492188 C 50.03125 15.492188 48.640625 13.765625 48.640625 13.765625 C 48.640625 13.765625 51.414062 11.539062 51.414062 11.539062 "/>
<path style=" stroke:none;fill-rule:nonzero;fill:rgb(100%,100%,100%);fill-opacity:1;" d="M 51.679688 17 C 51.960938 17.46875 52.5625 17.46875 53.164062 17.109375 C 53.710938 16.78125 54.023438 16.242188 53.742188 15.765625 C 53.453125 15.289062 52.828125 15.304688 52.257812 15.640625 C 51.6875 15.992188 51.40625 16.53125 51.679688 16.992188 C 51.679688 16.992188 51.679688 17 51.679688 17 Z M 51.117188 17.296875 C 50.578125 16.398438 50.9375 15.453125 51.804688 14.929688 C 52.71875 14.382812 53.757812 14.554688 54.296875 15.453125 C 54.859375 16.390625 54.46875 17.328125 53.625 17.828125 C 52.617188 18.4375 51.65625 18.195312 51.117188 17.304688 C 51.117188 17.304688 51.117188 17.296875 51.117188 17.296875 "/>
<path style=" stroke:none;fill-rule:nonzero;fill:rgb(100%,100%,100%);fill-opacity:1;" d="M 53.671875 22.234375 C 53.5 22.039062 53.21875 21.640625 53.046875 21.203125 C 52.804688 20.601562 52.789062 20.109375 52.953125 19.6875 C 53.125 19.273438 53.492188 18.929688 53.976562 18.742188 C 55.078125 18.3125 56.023438 18.859375 56.453125 19.945312 C 56.625 20.375 56.671875 20.734375 56.664062 20.921875 C 56.664062 20.921875 56 21.007812 56 21.007812 C 56.007812 20.789062 55.976562 20.546875 55.835938 20.1875 C 55.585938 19.5625 55.046875 19.226562 54.328125 19.507812 C 53.640625 19.78125 53.414062 20.375 53.65625 20.984375 C 53.726562 21.15625 53.796875 21.28125 53.84375 21.335938 C 53.84375 21.335938 54.546875 21.054688 54.546875 21.054688 C 54.546875 21.054688 54.34375 20.546875 54.34375 20.546875 C 54.34375 20.546875 54.921875 20.3125 54.921875 20.3125 C 54.921875 20.3125 55.414062 21.546875 55.414062 21.546875 C 55.414062 21.546875 53.671875 22.234375 53.671875 22.234375 "/>
<path style=" stroke:none;fill-rule:nonzero;fill:rgb(100%,100%,100%);fill-opacity:1;" d="M 53.96875 24.015625 C 53.96875 24.015625 55.390625 23.6875 55.390625 23.6875 C 55.390625 23.6875 57.1875 22.117188 57.1875 22.117188 C 57.1875 22.117188 57.390625 23.023438 57.390625 23.023438 C 57.390625 23.023438 56.640625 23.5625 56.640625 23.5625 C 56.414062 23.726562 56.242188 23.851562 56.039062 23.984375 C 56.039062 23.984375 56.039062 23.992188 56.039062 23.992188 C 56.273438 24.023438 56.492188 24.054688 56.765625 24.101562 C 56.765625 24.101562 57.679688 24.257812 57.679688 24.257812 C 57.679688 24.257812 57.882812 25.140625 57.882812 25.140625 C 57.882812 25.140625 55.59375 24.460938 55.59375 24.460938 C 55.59375 24.460938 54.148438 24.796875 54.148438 24.796875 C 54.148438 24.796875 53.96875 24.015625 53.96875 24.015625 "/>
<path style=" stroke:none;fill-rule:nonzero;fill:rgb(100%,100%,100%);fill-opacity:1;" d="M 56.070312 31.007812 C 56.5 30.984375 57.015625 30.960938 57.53125 30.953125 C 57.53125 30.953125 57.53125 30.9375 57.53125 30.9375 C 57.078125 30.828125 56.570312 30.6875 56.148438 30.5625 C 56.148438 30.5625 54.757812 30.148438 54.757812 30.148438 C 54.757812 30.148438 54.742188 29.523438 54.742188 29.523438 C 54.742188 29.523438 56.109375 29.117188 56.109375 29.117188 C 56.53125 29 57.03125 28.875 57.5 28.773438 C 57.5 28.773438 57.5 28.765625 57.5 28.765625 C 57.015625 28.757812 56.46875 28.742188 56.023438 28.726562 C 56.023438 28.726562 54.671875 28.679688 54.671875 28.679688 C 54.671875 28.679688 54.664062 27.9375 54.664062 27.9375 C 54.664062 27.9375 58.226562 28.109375 58.226562 28.109375 C 58.226562 28.109375 58.242188 29.179688 58.242188 29.179688 C 58.242188 29.179688 57.054688 29.546875 57.054688 29.546875 C 56.648438 29.671875 56.203125 29.78125 55.789062 29.867188 C 55.789062 29.867188 55.789062 29.890625 55.789062 29.890625 C 56.203125 29.976562 56.671875 30.09375 57.070312 30.210938 C 57.070312 30.210938 58.265625 30.5625 58.265625 30.5625 C 58.265625 30.5625 58.28125 31.617188 58.28125 31.617188 C 58.28125 31.617188 54.726562 31.867188 54.726562 31.867188 C 54.726562 31.867188 54.710938 31.085938 54.710938 31.085938 C 54.710938 31.085938 56.070312 31.007812 56.070312 31.007812 "/>
<path style=" stroke:none;fill-rule:nonzero;fill:rgb(100%,100%,100%);fill-opacity:1;" d="M 55.78125 34.757812 C 55.78125 34.757812 56.5625 34.664062 56.5625 34.664062 C 56.773438 34.640625 57.054688 34.625 57.265625 34.609375 C 57.265625 34.609375 57.265625 34.59375 57.265625 34.59375 C 57.070312 34.507812 56.8125 34.40625 56.617188 34.320312 C 56.617188 34.320312 55.90625 33.984375 55.90625 33.984375 C 55.90625 33.984375 55.78125 34.757812 55.78125 34.757812 Z M 55.335938 33.765625 C 55.335938 33.765625 54.476562 33.367188 54.476562 33.367188 C 54.476562 33.367188 54.617188 32.546875 54.617188 32.546875 C 54.617188 32.546875 57.945312 34.21875 57.945312 34.21875 C 57.945312 34.21875 57.765625 35.25 57.765625 35.25 C 57.765625 35.25 54.070312 35.75 54.070312 35.75 C 54.070312 35.75 54.21875 34.890625 54.21875 34.890625 C 54.21875 34.890625 55.164062 34.773438 55.164062 34.773438 C 55.164062 34.773438 55.335938 33.765625 55.335938 33.765625 "/>
<path style=" stroke:none;fill-rule:nonzero;fill:rgb(100%,100%,100%);fill-opacity:1;" d="M 54.1875 37.476562 C 54.148438 37.539062 54.109375 37.648438 54.078125 37.734375 C 53.835938 38.429688 54.0625 39.015625 54.867188 39.289062 C 55.59375 39.53125 56.078125 39.242188 56.304688 38.578125 C 56.359375 38.414062 56.382812 38.296875 56.390625 38.226562 C 56.390625 38.226562 54.1875 37.476562 54.1875 37.476562 Z M 57.1875 37.648438 C 57.140625 37.945312 57.046875 38.320312 56.914062 38.703125 C 56.695312 39.34375 56.445312 39.726562 56.09375 39.96875 C 55.71875 40.226562 55.21875 40.304688 54.617188 40.101562 C 53.976562 39.882812 53.609375 39.5 53.445312 39.085938 C 53.265625 38.625 53.3125 38.039062 53.539062 37.375 C 53.671875 36.976562 53.796875 36.703125 53.882812 36.523438 C 53.882812 36.523438 57.1875 37.648438 57.1875 37.648438 "/>
<path style=" stroke:none;fill-rule:nonzero;fill:rgb(100%,100%,100%);fill-opacity:1;" d="M 53.882812 41.890625 C 53.882812 41.890625 53.734375 42.171875 53.734375 42.171875 C 53.546875 42.53125 53.617188 42.835938 53.898438 42.976562 C 54.179688 43.125 54.4375 43.007812 54.601562 42.679688 C 54.695312 42.507812 54.734375 42.398438 54.75 42.34375 C 54.75 42.34375 53.882812 41.890625 53.882812 41.890625 Z M 55.601562 41.890625 C 55.523438 42.140625 55.382812 42.492188 55.179688 42.875 C 54.9375 43.34375 54.695312 43.640625 54.398438 43.765625 C 54.148438 43.882812 53.875 43.867188 53.585938 43.71875 C 53.179688 43.515625 53.054688 43.085938 53.101562 42.757812 C 53.101562 42.757812 53.085938 42.75 53.085938 42.75 C 52.882812 42.929688 52.609375 42.945312 52.28125 42.867188 C 51.867188 42.78125 51.40625 42.664062 51.25 42.65625 C 51.25 42.65625 51.632812 41.929688 51.632812 41.929688 C 51.742188 41.929688 52.046875 41.984375 52.476562 42.09375 C 52.921875 42.210938 53.101562 42.132812 53.257812 41.835938 C 53.257812 41.835938 53.367188 41.625 53.367188 41.625 C 53.367188 41.625 52.125 40.984375 52.125 40.984375 C 52.125 40.984375 52.492188 40.273438 52.492188 40.273438 C 52.492188 40.273438 55.601562 41.890625 55.601562 41.890625 "/>
<path style=" stroke:none;fill-rule:nonzero;fill:rgb(100%,100%,100%);fill-opacity:1;" d="M 51.039062 45.632812 C 51.039062 45.632812 51.78125 45.898438 51.78125 45.898438 C 51.984375 45.96875 52.242188 46.078125 52.4375 46.15625 C 52.4375 46.15625 52.445312 46.140625 52.445312 46.140625 C 52.304688 45.984375 52.117188 45.773438 51.984375 45.609375 C 51.984375 45.609375 51.5 44.992188 51.5 44.992188 C 51.5 44.992188 51.039062 45.632812 51.039062 45.632812 Z M 51.078125 44.546875 C 51.078125 44.546875 50.484375 43.8125 50.484375 43.8125 C 50.484375 43.8125 50.976562 43.132812 50.976562 43.132812 C 50.976562 43.132812 53.21875 46.101562 53.21875 46.101562 C 53.21875 46.101562 52.601562 46.953125 52.601562 46.953125 C 52.601562 46.953125 49.070312 45.765625 49.070312 45.765625 C 49.070312 45.765625 49.578125 45.0625 49.578125 45.0625 C 49.578125 45.0625 50.476562 45.375 50.476562 45.375 C 50.476562 45.375 51.078125 44.546875 51.078125 44.546875 "/>
<path style=" stroke:none;fill-rule:nonzero;fill:rgb(100%,100%,100%);fill-opacity:1;" d="M 49.101562 46.945312 C 48.875 47.015625 48.5625 47.1875 48.328125 47.429688 C 48.070312 47.695312 48.046875 47.945312 48.21875 48.109375 C 48.367188 48.257812 48.585938 48.226562 48.984375 48.023438 C 49.546875 47.742188 50.054688 47.6875 50.429688 48.054688 C 50.867188 48.476562 50.84375 49.164062 50.265625 49.765625 C 49.984375 50.054688 49.726562 50.210938 49.507812 50.289062 C 49.507812 50.289062 49.171875 49.71875 49.171875 49.71875 C 49.3125 49.664062 49.5625 49.546875 49.804688 49.304688 C 50.046875 49.046875 50.046875 48.8125 49.914062 48.6875 C 49.75 48.53125 49.546875 48.601562 49.09375 48.8125 C 48.484375 49.101562 48.046875 49.085938 47.6875 48.734375 C 47.257812 48.320312 47.203125 47.640625 47.882812 46.9375 C 48.164062 46.648438 48.523438 46.4375 48.742188 46.367188 C 48.742188 46.367188 49.101562 46.945312 49.101562 46.945312 "/>
<path style=" stroke:none;fill-rule:nonzero;fill:rgb(100%,100%,100%);fill-opacity:1;" d="M 46.75 51.195312 C 46.75 51.484375 46.515625 51.71875 46.226562 51.71875 C 45.929688 51.71875 45.695312 51.484375 45.695312 51.195312 C 45.695312 50.898438 45.929688 50.664062 46.226562 50.664062 C 46.515625 50.664062 46.75 50.898438 46.75 51.195312 "/>
<path style=" stroke:none;fill-rule:nonzero;fill:rgb(100%,100%,100%);fill-opacity:1;" d="M 14.289062 51.195312 C 14.289062 51.484375 14.054688 51.71875 13.765625 51.71875 C 13.46875 51.71875 13.234375 51.484375 13.234375 51.195312 C 13.234375 50.898438 13.46875 50.664062 13.765625 50.664062 C 14.054688 50.664062 14.289062 50.898438 14.289062 51.195312 "/>
<path style=" stroke:none;fill-rule:nonzero;fill:rgb(100%,100%,100%);fill-opacity:1;" d="M 17.40625 44.164062 C 17.40625 44.164062 25.8125 45.664062 25.8125 45.664062 C 25.8125 45.664062 24.914062 46.71875 24.914062 46.71875 C 24.914062 46.71875 33.171875 47.4375 33.171875 47.4375 C 33.171875 47.4375 32.34375 48.109375 32.34375 48.109375 C 32.34375 48.109375 40.492188 48.46875 40.492188 48.46875 C 40.492188 48.46875 29.71875 49.539062 29.71875 49.539062 C 29.71875 49.539062 31.070312 48.335938 31.070312 48.335938 C 31.070312 48.335938 22.507812 47.46875 22.507812 47.46875 C 22.507812 47.46875 23.9375 46.414062 23.9375 46.414062 C 23.9375 46.414062 17.40625 44.164062 17.40625 44.164062 "/>
<path style=" stroke:none;fill-rule:nonzero;fill:rgb(100%,100%,100%);fill-opacity:1;" d="M 16.4375 51.476562 C 16.4375 51.476562 17.179688 51.90625 17.179688 51.90625 C 17.179688 51.765625 17.195312 51.632812 17.234375 51.5 C 17.265625 51.367188 17.3125 51.25 17.382812 51.132812 C 17.484375 50.960938 17.640625 50.851562 17.851562 50.8125 C 18.070312 50.765625 18.273438 50.804688 18.46875 50.921875 C 18.710938 51.0625 18.914062 51.320312 19.078125 51.695312 C 19.234375 52.0625 19.335938 52.507812 19.375 53.015625 C 19.375 53.015625 19.226562 53.039062 19.226562 53.039062 C 19.195312 52.664062 19.101562 52.328125 18.945312 52.039062 C 18.789062 51.742188 18.585938 51.523438 18.34375 51.382812 C 18.203125 51.296875 18.046875 51.289062 17.875 51.359375 C 17.703125 51.421875 17.570312 51.539062 17.460938 51.71875 C 17.390625 51.84375 17.34375 51.9375 17.335938 52 C 17.335938 52 17.625 52.171875 17.625 52.171875 C 17.625 52.171875 17.679688 52.625 17.679688 52.625 C 17.679688 52.625 17.28125 52.390625 17.28125 52.390625 C 17.28125 52.390625 15.914062 54.71875 15.914062 54.71875 C 15.914062 54.71875 15.648438 54.210938 15.648438 54.210938 C 15.648438 54.210938 16.859375 52.148438 16.859375 52.148438 C 16.859375 52.148438 16.484375 51.929688 16.484375 51.929688 C 16.484375 51.929688 16.4375 51.476562 16.4375 51.476562 "/>
<path style=" stroke:none;fill-rule:nonzero;fill:rgb(100%,100%,100%);fill-opacity:1;" d="M 18.359375 53.40625 C 18.328125 53.554688 18.273438 53.703125 18.195312 53.859375 C 18.242188 53.96875 18.304688 54.070312 18.367188 54.148438 C 18.429688 54.226562 18.507812 54.28125 18.578125 54.320312 C 18.664062 54.359375 18.75 54.382812 18.84375 54.375 C 18.9375 54.375 19.039062 54.351562 19.125 54.3125 C 19.125 54.3125 19.5 53.539062 19.5 53.539062 C 19.5 53.539062 18.40625 53.007812 18.40625 53.007812 C 18.414062 53.125 18.398438 53.265625 18.359375 53.40625 Z M 18.460938 55.695312 C 18.460938 55.695312 18.890625 54.8125 18.890625 54.8125 C 18.859375 54.820312 18.8125 54.8125 18.757812 54.796875 C 18.703125 54.78125 18.632812 54.757812 18.554688 54.71875 C 18.4375 54.664062 18.335938 54.570312 18.25 54.445312 C 18.164062 54.320312 18.101562 54.171875 18.054688 54 C 17.953125 54.101562 17.84375 54.171875 17.71875 54.226562 C 17.601562 54.273438 17.484375 54.296875 17.375 54.28125 C 17.445312 54.710938 17.617188 55.140625 17.867188 55.578125 C 17.867188 55.578125 17.570312 55.703125 17.570312 55.703125 C 17.132812 54.445312 16.976562 53.695312 17.101562 53.4375 C 17.132812 53.367188 17.1875 53.3125 17.242188 53.289062 C 17.304688 53.257812 17.367188 53.257812 17.414062 53.28125 C 17.476562 53.3125 17.523438 53.359375 17.554688 53.429688 C 17.585938 53.5 17.601562 53.578125 17.601562 53.679688 C 17.703125 53.679688 17.796875 53.648438 17.890625 53.59375 C 17.976562 53.539062 18.046875 53.460938 18.09375 53.367188 C 18.132812 53.28125 18.15625 53.203125 18.171875 53.125 C 18.1875 53.039062 18.195312 52.96875 18.179688 52.898438 C 18.179688 52.898438 17.359375 52.5 17.359375 52.5 C 17.359375 52.5 17.273438 52.046875 17.273438 52.046875 C 17.273438 52.046875 20.273438 53.5 20.273438 53.5 C 20.273438 53.5 20.359375 53.953125 20.359375 53.953125 C 20.359375 53.953125 19.945312 53.75 19.945312 53.75 C 19.945312 53.75 18.765625 56.179688 18.765625 56.179688 C 18.765625 56.179688 18.460938 55.695312 18.460938 55.695312 "/>
<path style=" stroke:none;fill-rule:nonzero;fill:rgb(100%,100%,100%);fill-opacity:1;" d="M 19.953125 53.34375 C 19.953125 53.34375 20.757812 53.65625 20.757812 53.65625 C 20.734375 53.515625 20.734375 53.382812 20.742188 53.25 C 20.757812 53.117188 20.789062 52.984375 20.835938 52.867188 C 20.90625 52.679688 21.046875 52.546875 21.25 52.46875 C 21.453125 52.398438 21.65625 52.398438 21.867188 52.484375 C 22.132812 52.585938 22.375 52.804688 22.59375 53.148438 C 22.804688 53.484375 22.976562 53.90625 23.09375 54.40625 C 23.09375 54.40625 22.953125 54.445312 22.953125 54.445312 C 22.859375 54.085938 22.71875 53.765625 22.515625 53.507812 C 22.320312 53.242188 22.085938 53.0625 21.820312 52.953125 C 21.671875 52.898438 21.515625 52.914062 21.359375 53.007812 C 21.203125 53.09375 21.085938 53.234375 21.007812 53.429688 C 20.960938 53.5625 20.929688 53.664062 20.929688 53.71875 C 20.929688 53.71875 21.242188 53.84375 21.242188 53.84375 C 21.242188 53.84375 21.359375 54.289062 21.359375 54.289062 C 21.359375 54.289062 20.929688 54.125 20.929688 54.125 C 20.929688 54.125 19.953125 56.640625 19.953125 56.640625 C 19.953125 56.640625 19.609375 56.171875 19.609375 56.171875 C 19.609375 56.171875 20.476562 53.945312 20.476562 53.945312 C 20.476562 53.945312 20.070312 53.789062 20.070312 53.789062 C 20.070312 53.789062 19.953125 53.34375 19.953125 53.34375 "/>
<path style=" stroke:none;fill-rule:nonzero;fill:rgb(100%,100%,100%);fill-opacity:1;" d="M 21.546875 56.960938 C 21.578125 57.015625 21.625 57.054688 21.695312 57.070312 C 21.828125 57.117188 21.96875 57.109375 22.117188 57.054688 C 22.265625 57 22.398438 56.90625 22.515625 56.78125 C 22.25 56.695312 22.070312 56.609375 21.984375 56.523438 C 21.875 56.515625 21.773438 56.546875 21.6875 56.59375 C 21.601562 56.648438 21.546875 56.710938 21.523438 56.796875 C 21.507812 56.851562 21.515625 56.90625 21.546875 56.960938 Z M 24.085938 54.75 C 24.085938 54.75 24.242188 55.1875 24.242188 55.1875 C 24.242188 55.1875 23.71875 55.03125 23.71875 55.03125 C 23.71875 55.03125 23.46875 55.84375 23.46875 55.84375 C 23.46875 55.84375 22.328125 55.5 22.328125 55.5 C 22.234375 55.476562 22.148438 55.484375 22.0625 55.539062 C 21.984375 55.585938 21.929688 55.664062 21.898438 55.757812 C 21.867188 55.867188 21.882812 55.96875 21.953125 56.070312 C 22.023438 56.171875 22.125 56.242188 22.25 56.28125 C 22.25 56.28125 22.609375 56.359375 22.609375 56.359375 C 22.609375 56.328125 22.601562 56.304688 22.601562 56.28125 C 22.601562 56.25 22.609375 56.226562 22.609375 56.210938 C 22.632812 56.132812 22.6875 56.085938 22.773438 56.046875 C 22.859375 56.015625 22.953125 56.015625 23.054688 56.046875 C 23.164062 56.078125 23.242188 56.140625 23.289062 56.242188 C 23.34375 56.351562 23.351562 56.453125 23.3125 56.570312 C 23.296875 56.640625 23.242188 56.703125 23.171875 56.757812 C 23.101562 56.804688 23.015625 56.828125 22.914062 56.835938 C 22.914062 56.835938 23.375 57.742188 23.375 57.742188 C 23.375 57.742188 23.09375 57.84375 23.09375 57.84375 C 23.09375 57.84375 22.851562 57.164062 22.851562 57.164062 C 22.703125 57.28125 22.539062 57.359375 22.367188 57.398438 C 22.195312 57.4375 22.039062 57.429688 21.882812 57.382812 C 21.695312 57.328125 21.523438 57.210938 21.375 57.03125 C 21.226562 56.84375 21.164062 56.695312 21.203125 56.578125 C 21.21875 56.53125 21.234375 56.492188 21.257812 56.453125 C 21.273438 56.421875 21.304688 56.390625 21.328125 56.359375 C 21.132812 56.28125 20.984375 56.171875 20.882812 56.023438 C 20.78125 55.875 20.75 55.726562 20.796875 55.585938 C 20.8125 55.539062 20.851562 55.476562 20.914062 55.414062 C 20.976562 55.351562 21.0625 55.28125 21.164062 55.21875 C 21.164062 55.21875 21.46875 55.695312 21.46875 55.695312 C 21.398438 55.726562 21.34375 55.757812 21.296875 55.796875 C 21.25 55.835938 21.21875 55.867188 21.210938 55.90625 C 21.195312 55.960938 21.210938 56.015625 21.25 56.070312 C 21.296875 56.132812 21.359375 56.171875 21.445312 56.195312 C 21.445312 56.195312 21.734375 56.09375 21.734375 56.09375 C 21.664062 55.984375 21.617188 55.875 21.601562 55.75 C 21.578125 55.625 21.585938 55.507812 21.625 55.390625 C 21.664062 55.25 21.765625 55.148438 21.921875 55.09375 C 22.085938 55.03125 22.257812 55.03125 22.445312 55.09375 C 22.445312 55.09375 23.125 55.289062 23.125 55.289062 C 23.125 55.289062 23.242188 54.882812 23.242188 54.882812 C 23.242188 54.882812 21.03125 54.21875 21.03125 54.21875 C 21.03125 54.21875 20.875 53.789062 20.875 53.789062 C 20.875 53.789062 24.085938 54.75 24.085938 54.75 "/>
<path style=" stroke:none;fill-rule:nonzero;fill:rgb(100%,100%,100%);fill-opacity:1;" d="M 24.34375 55.382812 C 24.414062 55.46875 24.515625 55.53125 24.640625 55.570312 C 24.640625 55.570312 24.734375 55.054688 24.734375 55.054688 C 24.742188 55 24.742188 54.945312 24.726562 54.90625 C 24.703125 54.859375 24.679688 54.828125 24.648438 54.828125 C 24.554688 54.804688 24.476562 54.828125 24.398438 54.875 C 24.320312 54.929688 24.273438 55.007812 24.257812 55.09375 C 24.242188 55.195312 24.265625 55.289062 24.34375 55.382812 Z M 25.3125 54.976562 C 25.3125 54.976562 26.789062 55.242188 26.789062 55.242188 C 26.789062 55.242188 26.992188 55.65625 26.992188 55.65625 C 26.992188 55.65625 26.539062 55.570312 26.539062 55.570312 C 26.539062 55.570312 26.054688 58.226562 26.054688 58.226562 C 26.054688 58.226562 25.625 57.835938 25.625 57.835938 C 25.625 57.835938 25.773438 57.054688 25.773438 57.054688 C 25.773438 57.054688 24.898438 56.890625 24.898438 56.890625 C 24.898438 56.890625 24.84375 57.195312 24.84375 57.195312 C 24.828125 57.265625 24.804688 57.320312 24.757812 57.359375 C 24.710938 57.398438 24.671875 57.414062 24.617188 57.40625 C 24.476562 57.375 24.328125 57.25 24.1875 57.023438 C 24.039062 56.796875 23.984375 56.609375 24.015625 56.453125 C 24.023438 56.414062 24.046875 56.382812 24.09375 56.359375 C 24.140625 56.335938 24.195312 56.328125 24.25 56.34375 C 24.25 56.34375 24.492188 56.382812 24.492188 56.382812 C 24.492188 56.382812 24.59375 55.8125 24.59375 55.8125 C 24.367188 55.703125 24.195312 55.554688 24.070312 55.375 C 23.945312 55.1875 23.90625 55.007812 23.9375 54.820312 C 23.960938 54.703125 24.023438 54.609375 24.132812 54.546875 C 24.242188 54.484375 24.367188 54.460938 24.5 54.484375 C 24.679688 54.515625 24.84375 54.648438 24.984375 54.875 C 25.132812 55.101562 25.1875 55.3125 25.148438 55.507812 C 25.148438 55.507812 24.976562 56.46875 24.976562 56.46875 C 24.976562 56.46875 25.84375 56.632812 25.84375 56.632812 C 25.84375 56.632812 26.054688 55.484375 26.054688 55.484375 C 26.054688 55.484375 25.484375 55.382812 25.484375 55.382812 C 25.484375 55.382812 25.3125 54.976562 25.3125 54.976562 "/>
<path style=" stroke:none;fill-rule:nonzero;fill:rgb(100%,100%,100%);fill-opacity:1;" d="M 26.054688 53.734375 C 26.1875 53.640625 26.328125 53.601562 26.484375 53.625 C 26.648438 53.640625 26.789062 53.703125 26.914062 53.8125 C 27.046875 53.914062 27.132812 54.046875 27.179688 54.203125 C 27.179688 54.203125 27.078125 54.28125 27.078125 54.28125 C 27.03125 54.210938 26.976562 54.148438 26.914062 54.101562 C 26.84375 54.054688 26.78125 54.03125 26.710938 54.023438 C 26.570312 54 26.445312 54.039062 26.328125 54.125 C 26.21875 54.21875 26.148438 54.335938 26.132812 54.476562 C 26.125 54.554688 26.132812 54.640625 26.171875 54.734375 C 26.203125 54.828125 26.265625 54.929688 26.34375 55.03125 C 26.34375 55.03125 26.210938 55.109375 26.210938 55.109375 C 26.070312 54.960938 25.96875 54.796875 25.90625 54.617188 C 25.835938 54.445312 25.820312 54.273438 25.835938 54.101562 C 25.859375 53.945312 25.929688 53.828125 26.054688 53.734375 "/>
<path style=" stroke:none;fill-rule:nonzero;fill:rgb(100%,100%,100%);fill-opacity:1;" d="M 27.210938 57.265625 C 27.289062 57.335938 27.375 57.375 27.484375 57.382812 C 27.640625 57.390625 27.804688 57.367188 27.976562 57.304688 C 28.148438 57.25 28.320312 57.15625 28.5 57.03125 C 28.398438 56.890625 28.296875 56.789062 28.179688 56.710938 C 28.0625 56.632812 27.945312 56.585938 27.820312 56.578125 C 27.632812 56.5625 27.476562 56.601562 27.335938 56.6875 C 27.195312 56.773438 27.125 56.882812 27.117188 57.015625 C 27.109375 57.109375 27.140625 57.195312 27.210938 57.265625 Z M 29.296875 55.421875 C 29.296875 55.421875 29.539062 55.8125 29.539062 55.8125 C 29.539062 55.8125 29.078125 55.78125 29.078125 55.78125 C 29.078125 55.78125 28.882812 58.476562 28.882812 58.476562 C 28.882812 58.476562 28.414062 58.132812 28.414062 58.132812 C 28.414062 58.132812 28.460938 57.515625 28.460938 57.515625 C 28.335938 57.609375 28.210938 57.671875 28.078125 57.71875 C 27.945312 57.757812 27.820312 57.78125 27.703125 57.765625 C 27.476562 57.75 27.257812 57.632812 27.039062 57.398438 C 26.820312 57.171875 26.71875 56.953125 26.734375 56.742188 C 26.75 56.570312 26.835938 56.421875 26.992188 56.304688 C 27.148438 56.195312 27.335938 56.140625 27.546875 56.15625 C 27.734375 56.171875 27.914062 56.234375 28.085938 56.351562 C 28.257812 56.46875 28.398438 56.625 28.515625 56.8125 C 28.515625 56.8125 28.59375 55.742188 28.59375 55.742188 C 28.59375 55.742188 26.632812 55.601562 26.632812 55.601562 C 26.632812 55.601562 26.382812 55.210938 26.382812 55.210938 C 26.382812 55.210938 29.296875 55.421875 29.296875 55.421875 "/>
<path style=" stroke:none;fill-rule:nonzero;fill:rgb(100%,100%,100%);fill-opacity:1;" d="M 29 55.398438 C 29 55.398438 29.859375 55.414062 29.859375 55.414062 C 29.789062 55.289062 29.742188 55.164062 29.703125 55.03125 C 29.671875 54.90625 29.65625 54.773438 29.65625 54.640625 C 29.65625 54.4375 29.742188 54.265625 29.90625 54.125 C 30.070312 53.984375 30.265625 53.914062 30.5 53.921875 C 30.78125 53.929688 31.078125 54.046875 31.40625 54.296875 C 31.726562 54.539062 32.03125 54.875 32.3125 55.296875 C 32.3125 55.296875 32.195312 55.390625 32.195312 55.390625 C 31.976562 55.078125 31.734375 54.835938 31.460938 54.65625 C 31.179688 54.476562 30.898438 54.390625 30.609375 54.382812 C 30.453125 54.382812 30.3125 54.445312 30.195312 54.585938 C 30.078125 54.734375 30.023438 54.90625 30.015625 55.109375 C 30.015625 55.257812 30.023438 55.359375 30.046875 55.414062 C 30.046875 55.414062 30.375 55.421875 30.375 55.421875 C 30.375 55.421875 30.648438 55.789062 30.648438 55.789062 C 30.648438 55.789062 30.1875 55.78125 30.1875 55.78125 C 30.1875 55.78125 30.148438 58.484375 30.148438 58.484375 C 30.148438 58.484375 29.664062 58.164062 29.664062 58.164062 C 29.664062 58.164062 29.703125 55.773438 29.703125 55.773438 C 29.703125 55.773438 29.265625 55.773438 29.265625 55.773438 C 29.265625 55.773438 29 55.398438 29 55.398438 "/>
<path style=" stroke:none;fill-rule:nonzero;fill:rgb(100%,100%,100%);fill-opacity:1;" d="M 32.882812 55.273438 C 32.882812 55.273438 33.1875 55.625 33.1875 55.625 C 33.1875 55.625 32.726562 55.65625 32.726562 55.65625 C 32.726562 55.65625 32.90625 58.351562 32.90625 58.351562 C 32.90625 58.351562 32.398438 58.078125 32.398438 58.078125 C 32.398438 58.078125 32.304688 56.726562 32.304688 56.726562 C 32.304688 56.726562 31.359375 56.789062 31.359375 56.789062 C 31.273438 56.796875 31.203125 56.84375 31.148438 56.921875 C 31.09375 57.007812 31.070312 57.101562 31.078125 57.210938 C 31.085938 57.375 31.15625 57.546875 31.273438 57.726562 C 31.390625 57.898438 31.554688 58.0625 31.757812 58.210938 C 31.757812 58.210938 31.585938 58.375 31.585938 58.375 C 31.28125 58.109375 31.046875 57.859375 30.875 57.617188 C 30.703125 57.382812 30.609375 57.171875 30.601562 57 C 30.585938 56.820312 30.632812 56.664062 30.734375 56.53125 C 30.835938 56.398438 30.960938 56.328125 31.109375 56.320312 C 31.109375 56.320312 32.273438 56.242188 32.273438 56.242188 C 32.273438 56.242188 32.234375 55.6875 32.234375 55.6875 C 32.234375 55.6875 30.304688 55.820312 30.304688 55.820312 C 30.304688 55.820312 30.007812 55.46875 30.007812 55.46875 C 30.007812 55.46875 32.882812 55.273438 32.882812 55.273438 "/>
<path style=" stroke:none;fill-rule:nonzero;fill:rgb(100%,100%,100%);fill-opacity:1;" d="M 34.796875 56.835938 C 34.867188 56.882812 34.945312 56.898438 35.03125 56.882812 C 35.15625 56.859375 35.273438 56.796875 35.382812 56.703125 C 35.492188 56.609375 35.59375 56.492188 35.671875 56.34375 C 35.601562 56.265625 35.515625 56.203125 35.421875 56.164062 C 35.328125 56.132812 35.242188 56.117188 35.15625 56.140625 C 35 56.171875 34.875 56.234375 34.78125 56.335938 C 34.679688 56.429688 34.648438 56.53125 34.664062 56.640625 C 34.6875 56.726562 34.726562 56.789062 34.796875 56.835938 Z M 37.015625 54.507812 C 37.015625 54.507812 37.359375 54.8125 37.359375 54.8125 C 37.359375 54.8125 35.914062 55.101562 35.914062 55.101562 C 35.914062 55.101562 36.078125 55.914062 36.078125 55.914062 C 36.125 55.835938 36.179688 55.773438 36.25 55.71875 C 36.320312 55.664062 36.398438 55.632812 36.492188 55.609375 C 36.65625 55.578125 36.84375 55.664062 37.0625 55.875 C 37.28125 56.078125 37.414062 56.304688 37.46875 56.539062 C 37.484375 56.648438 37.484375 56.773438 37.46875 56.90625 C 37.445312 57.039062 37.40625 57.179688 37.34375 57.320312 C 37.34375 57.320312 36.875 57.039062 36.875 57.039062 C 36.96875 56.898438 37.03125 56.757812 37.070312 56.625 C 37.109375 56.492188 37.117188 56.375 37.09375 56.273438 C 37.078125 56.171875 37.023438 56.09375 36.945312 56.039062 C 36.867188 55.976562 36.78125 55.960938 36.6875 55.976562 C 36.609375 56 36.515625 56.046875 36.429688 56.132812 C 36.34375 56.210938 36.265625 56.320312 36.1875 56.460938 C 36.1875 56.460938 36.453125 57.75 36.453125 57.75 C 36.453125 57.75 35.914062 57.546875 35.914062 57.546875 C 35.914062 57.546875 35.78125 56.882812 35.78125 56.882812 C 35.726562 56.96875 35.65625 57.03125 35.578125 57.085938 C 35.492188 57.140625 35.40625 57.179688 35.3125 57.195312 C 35.132812 57.234375 34.929688 57.171875 34.703125 57 C 34.484375 56.828125 34.351562 56.640625 34.3125 56.429688 C 34.28125 56.289062 34.3125 56.164062 34.414062 56.039062 C 34.515625 55.914062 34.640625 55.835938 34.804688 55.796875 C 34.9375 55.773438 35.070312 55.789062 35.210938 55.84375 C 35.359375 55.898438 35.492188 55.984375 35.617188 56.101562 C 35.617188 56.101562 35.4375 55.203125 35.4375 55.203125 C 35.4375 55.203125 33.929688 55.507812 33.929688 55.507812 C 33.929688 55.507812 33.585938 55.203125 33.585938 55.203125 C 33.585938 55.203125 37.015625 54.507812 37.015625 54.507812 "/>
<path style=" stroke:none;fill-rule:nonzero;fill:rgb(100%,100%,100%);fill-opacity:1;" d="M 36.835938 57.648438 C 36.835938 57.648438 36.84375 57.648438 36.84375 57.648438 C 36.84375 57.648438 36.84375 57.65625 36.84375 57.65625 C 36.84375 57.65625 36.835938 57.65625 36.835938 57.65625 C 36.835938 57.65625 36.835938 57.648438 36.835938 57.648438 "/>
<path style=" stroke:none;fill-rule:nonzero;fill:rgb(100%,100%,100%);fill-opacity:1;" d="M 38.34375 55.625 C 38.34375 55.625 39.210938 55.328125 39.210938 55.328125 C 39.210938 55.328125 38.835938 54.226562 38.835938 54.226562 C 38.835938 54.226562 37.960938 54.523438 37.960938 54.523438 C 37.960938 54.523438 38.34375 55.625 38.34375 55.625 Z M 39.351562 53.65625 C 39.351562 53.65625 39.734375 53.921875 39.734375 53.921875 C 39.734375 53.921875 39.296875 54.070312 39.296875 54.070312 C 39.296875 54.070312 40.171875 56.625 40.171875 56.625 C 40.171875 56.625 39.609375 56.492188 39.609375 56.492188 C 39.609375 56.492188 39.375 55.796875 39.375 55.796875 C 39.375 55.796875 38.5 56.09375 38.5 56.09375 C 38.5 56.09375 38.601562 56.382812 38.601562 56.382812 C 38.625 56.445312 38.625 56.507812 38.601562 56.5625 C 38.585938 56.625 38.546875 56.65625 38.507812 56.671875 C 38.359375 56.726562 38.164062 56.679688 37.914062 56.546875 C 37.671875 56.414062 37.523438 56.273438 37.46875 56.117188 C 37.453125 56.070312 37.460938 56.023438 37.492188 55.976562 C 37.515625 55.929688 37.5625 55.890625 37.617188 55.875 C 37.617188 55.875 37.875 55.789062 37.875 55.789062 C 37.875 55.789062 37.5 54.6875 37.5 54.6875 C 37.5 54.6875 36.890625 54.890625 36.890625 54.890625 C 36.890625 54.890625 36.507812 54.632812 36.507812 54.632812 C 36.507812 54.632812 39.351562 53.65625 39.351562 53.65625 "/>
<path style=" stroke:none;fill-rule:nonzero;fill:rgb(100%,100%,100%);fill-opacity:1;" d="M 37.992188 52.695312 C 38.054688 52.554688 38.164062 52.453125 38.3125 52.398438 C 38.460938 52.335938 38.625 52.320312 38.78125 52.34375 C 38.945312 52.375 39.085938 52.445312 39.203125 52.5625 C 39.203125 52.5625 39.15625 52.679688 39.15625 52.679688 C 39.078125 52.640625 39 52.617188 38.921875 52.609375 C 38.84375 52.59375 38.765625 52.609375 38.703125 52.632812 C 38.570312 52.6875 38.476562 52.78125 38.421875 52.914062 C 38.367188 53.046875 38.359375 53.179688 38.414062 53.3125 C 38.445312 53.382812 38.5 53.453125 38.578125 53.515625 C 38.648438 53.585938 38.75 53.640625 38.867188 53.695312 C 38.867188 53.695312 38.789062 53.828125 38.789062 53.828125 C 38.59375 53.765625 38.429688 53.671875 38.289062 53.546875 C 38.148438 53.421875 38.039062 53.28125 37.976562 53.125 C 37.921875 52.984375 37.929688 52.84375 37.992188 52.695312 "/>
<path style=" stroke:none;fill-rule:nonzero;fill:rgb(100%,100%,100%);fill-opacity:1;" d="M 42.101562 52.390625 C 42.101562 52.390625 42.507812 52.601562 42.507812 52.601562 C 42.507812 52.601562 42.09375 52.796875 42.09375 52.796875 C 42.09375 52.796875 43.242188 55.234375 43.242188 55.234375 C 43.242188 55.234375 42.664062 55.171875 42.664062 55.171875 C 42.664062 55.171875 42.117188 54.007812 42.117188 54.007812 C 42.117188 54.007812 41.335938 54.375 41.335938 54.375 C 41.507812 54.421875 41.65625 54.484375 41.789062 54.578125 C 41.914062 54.671875 42.007812 54.789062 42.070312 54.914062 C 42.132812 55.046875 42.140625 55.1875 42.078125 55.335938 C 42.023438 55.484375 41.921875 55.59375 41.78125 55.65625 C 41.539062 55.773438 41.234375 55.742188 40.875 55.570312 C 40.515625 55.398438 40.171875 55.125 39.84375 54.734375 C 39.84375 54.734375 39.984375 54.601562 39.984375 54.601562 C 40.21875 54.875 40.460938 55.070312 40.71875 55.1875 C 40.976562 55.304688 41.195312 55.320312 41.375 55.242188 C 41.453125 55.203125 41.507812 55.140625 41.53125 55.054688 C 41.554688 54.96875 41.546875 54.890625 41.507812 54.804688 C 41.445312 54.671875 41.328125 54.554688 41.140625 54.460938 C 40.953125 54.359375 40.726562 54.289062 40.460938 54.242188 C 40.460938 54.242188 41.90625 53.5625 41.90625 53.5625 C 41.90625 53.5625 41.648438 53.007812 41.648438 53.007812 C 41.648438 53.007812 39.375 54.078125 39.375 54.078125 C 39.375 54.078125 38.96875 53.867188 38.96875 53.867188 C 38.96875 53.867188 42.101562 52.390625 42.101562 52.390625 "/>
<path style=" stroke:none;fill-rule:nonzero;fill:rgb(100%,100%,100%);fill-opacity:1;" d="M 42.960938 51.84375 C 42.960938 51.84375 43.382812 52.03125 43.382812 52.03125 C 43.382812 52.03125 42.984375 52.257812 42.984375 52.257812 C 42.984375 52.257812 44.335938 54.59375 44.335938 54.59375 C 44.335938 54.59375 43.757812 54.578125 43.757812 54.578125 C 43.757812 54.578125 42.5625 52.5 42.5625 52.5 C 42.5625 52.5 42.179688 52.71875 42.179688 52.71875 C 42.179688 52.71875 41.757812 52.539062 41.757812 52.539062 C 41.757812 52.539062 42.960938 51.84375 42.960938 51.84375 "/>
<path style=" stroke:none;fill-rule:nonzero;fill:rgb(100%,100%,100%);fill-opacity:1;" d="M 13.554688 33.609375 C 13.554688 34.390625 15.367188 34.78125 15.835938 34.90625 C 17.859375 35.421875 19.96875 35.671875 22.046875 35.8125 C 23.976562 35.953125 26.320312 35.632812 28.171875 35.15625 C 27.085938 33.703125 26.03125 32.25 25.28125 30.609375 C 18.414062 31.0625 13.554688 32.4375 13.554688 33.609375 Z M 34.710938 30.59375 C 33.953125 32.234375 32.898438 33.6875 31.8125 35.140625 C 33.664062 35.617188 36.007812 35.9375 37.9375 35.796875 C 40.015625 35.65625 42.125 35.40625 44.148438 34.890625 C 44.617188 34.765625 46.429688 34.375 46.429688 33.59375 C 46.429688 32.421875 41.570312 31.046875 34.710938 30.59375 "/>
<path style="fill:none;stroke-width:0.75;stroke-linecap:butt;stroke-linejoin:miter;stroke:rgb(12.156863%,9.803922%,9.019608%);stroke-opacity:1;stroke-miterlimit:10;" d="M 205.023304 221.250405 C 205.023304 220.312681 207.198825 219.843819 207.761459 219.693783 C 210.190165 219.074885 212.722021 218.774813 215.216367 218.606023 C 217.532546 218.437232 220.345719 218.821699 222.568126 219.393711 C 221.264689 221.137878 219.998761 222.882045 219.098546 224.851266 C 210.855949 224.307386 205.023304 222.656992 205.023304 221.250405 Z M 230.416878 224.870021 C 229.507286 222.9008 228.241358 221.156633 226.937921 219.412465 C 229.160328 218.840454 231.973501 218.455987 234.28968 218.624777 C 236.784026 218.793567 239.315882 219.093639 241.744588 219.712537 C 242.307222 219.862573 244.482743 220.331435 244.482743 221.26916 C 244.482743 222.675746 238.650098 224.326141 230.416878 224.870021 Z M 230.416878 224.870021 " transform="matrix(0.833134,0,0,-0.833134,-157.257198,217.94061)"/>
<path style=" stroke:none;fill-rule:nonzero;fill:rgb(100%,100%,100%);fill-opacity:1;" d="M 28.171875 35.148438 C 27.09375 33.703125 26.046875 32.234375 25.296875 30.59375 C 25.242188 30.46875 25.179688 30.34375 25.125 30.21875 C 24.75 29.320312 24.445312 28.398438 24.273438 27.515625 C 23.484375 23.523438 24.742188 19.46875 26.953125 16.15625 C 28.242188 14.21875 29.617188 12.242188 29.96875 9.890625 C 29.96875 9.890625 30.039062 9.890625 30.039062 9.890625 C 30.390625 12.242188 31.765625 14.21875 33.054688 16.15625 C 35.265625 19.46875 36.523438 23.523438 35.734375 27.515625 C 35.554688 28.398438 35.257812 29.320312 34.875 30.21875 C 34.820312 30.34375 34.765625 30.46875 34.710938 30.59375 C 33.953125 32.234375 32.898438 33.6875 31.8125 35.140625 C 31.132812 34.960938 30.523438 34.757812 30.023438 34.554688 C 29.523438 34.757812 28.90625 34.960938 28.226562 35.140625 C 28.226562 35.140625 28.179688 35.148438 28.171875 35.148438 "/>
<path style="fill:none;stroke-width:0.75;stroke-linecap:butt;stroke-linejoin:miter;stroke:rgb(12.156863%,9.803922%,9.019608%);stroke-opacity:1;stroke-miterlimit:10;" d="M 222.568126 219.403088 C 221.274066 221.137878 220.017516 222.9008 219.1173 224.870021 C 219.05166 225.020057 218.976642 225.170093 218.911001 225.320129 C 218.460893 226.398512 218.095181 227.505026 217.888882 228.564655 C 216.94178 233.356426 218.451516 238.223215 221.105276 242.199166 C 222.652521 244.524722 224.302916 246.897165 224.724892 249.719715 C 224.724892 249.719715 224.809287 249.719715 224.809287 249.719715 C 225.231263 246.897165 226.881658 244.524722 228.428903 242.199166 C 231.082663 238.223215 232.592399 233.356426 231.645297 228.564655 C 231.429621 227.505026 231.073285 226.398512 230.6138 225.320129 C 230.54816 225.170093 230.482519 225.020057 230.416878 224.870021 C 229.507286 222.9008 228.241358 221.156633 226.937921 219.412465 C 226.122101 219.628142 225.390676 219.87195 224.790532 220.115759 C 224.190389 219.87195 223.449587 219.628142 222.633767 219.412465 C 222.633767 219.412465 222.577503 219.403088 222.568126 219.403088 Z M 222.568126 219.403088 " transform="matrix(0.833134,0,0,-0.833134,-157.257198,217.94061)"/>
<path style=" stroke:none;fill-rule:nonzero;fill:rgb(47.058824%,12.156863%,9.803922%);fill-opacity:1;" d="M 28.171875 35.15625 C 26.320312 35.632812 23.976562 35.953125 22.046875 35.8125 C 19.96875 35.671875 17.859375 35.421875 15.835938 34.90625 C 15.414062 34.796875 13.890625 34.460938 13.601562 33.820312 C 15.171875 39.578125 21.914062 43.90625 30 43.90625 C 38.078125 43.90625 44.820312 39.578125 46.390625 33.820312 C 46.390625 33.820312 46.375 33.820312 46.375 33.820312 C 46.070312 34.453125 44.570312 34.78125 44.148438 34.890625 C 42.125 35.40625 40.015625 35.65625 37.9375 35.796875 C 36.007812 35.9375 33.664062 35.617188 31.8125 35.140625 C 31.132812 34.960938 30.523438 34.757812 30.023438 34.554688 C 29.523438 34.757812 28.90625 34.960938 28.226562 35.140625 C 28.226562 35.140625 28.179688 35.148438 28.171875 35.148438 Z M 28.171875 35.15625 "/>
<path style="fill:none;stroke-width:0.75;stroke-linecap:butt;stroke-linejoin:miter;stroke:rgb(12.156863%,9.803922%,9.019608%);stroke-opacity:1;stroke-miterlimit:10;" d="M 222.568126 219.393711 C 220.345719 218.821699 217.532546 218.437232 215.216367 218.606023 C 212.722021 218.774813 210.190165 219.074885 207.761459 219.693783 C 207.255088 219.825064 205.426526 220.228286 205.079568 220.99722 C 206.964393 214.086191 215.056954 208.891199 224.762401 208.891199 C 234.45847 208.891199 242.551031 214.086191 244.435857 220.99722 C 244.435857 220.99722 244.417102 220.99722 244.417102 220.99722 C 244.05139 220.237663 242.250959 219.843819 241.744588 219.712537 C 239.315882 219.093639 236.784026 218.793567 234.28968 218.624777 C 231.973501 218.455987 229.160328 218.840454 226.937921 219.412465 C 226.122101 219.628142 225.390676 219.87195 224.790532 220.115759 C 224.190389 219.87195 223.449587 219.628142 222.633767 219.412465 C 222.633767 219.412465 222.577503 219.403088 222.568126 219.403088 " transform="matrix(0.833134,0,0,-0.833134,-157.257198,217.94061)"/>
<path style=" stroke:none;fill-rule:nonzero;fill:rgb(74.117647%,63.921569%,27.058824%);fill-opacity:1;" d="M 30.296875 30.320312 C 30.164062 30.453125 30.046875 30.59375 30.046875 30.71875 C 30.046875 30.71875 30.03125 30.71875 30.03125 30.71875 C 30.023438 30.59375 29.898438 30.4375 29.757812 30.296875 C 29.757812 30.296875 29.757812 34.59375 29.757812 34.59375 C 29.757812 34.59375 29.914062 34.59375 29.914062 34.59375 C 29.953125 34.578125 29.984375 34.5625 30.023438 34.554688 C 30.054688 34.5625 30.09375 34.578125 30.132812 34.59375 C 30.132812 34.59375 30.296875 34.59375 30.296875 34.59375 C 30.296875 34.59375 30.296875 30.320312 30.296875 30.320312 "/>
<path style="fill:none;stroke-width:0.75;stroke-linecap:butt;stroke-linejoin:miter;stroke:rgb(12.156863%,9.803922%,9.019608%);stroke-opacity:1;stroke-miterlimit:10;" d="M 225.118736 225.198224 C 224.959323 225.038811 224.818664 224.870021 224.818664 224.719985 C 224.818664 224.719985 224.79991 224.719985 224.79991 224.719985 C 224.790532 224.870021 224.640497 225.057566 224.471706 225.226356 C 224.471706 225.226356 224.471706 220.068872 224.471706 220.068872 C 224.471706 220.068872 224.659251 220.068872 224.659251 220.068872 C 224.706137 220.087627 224.743646 220.106381 224.790532 220.115759 C 224.828041 220.106381 224.874928 220.087627 224.921814 220.068872 C 224.921814 220.068872 225.118736 220.068872 225.118736 220.068872 C 225.118736 220.068872 225.118736 225.198224 225.118736 225.198224 Z M 225.118736 225.198224 " transform="matrix(0.833134,0,0,-0.833134,-157.257198,217.94061)"/>
<path style=" stroke:none;fill-rule:nonzero;fill:rgb(85.098039%,14.901961%,10.980392%);fill-opacity:1;" d="M 30.09375 27.242188 C 30.09375 27.242188 29.976562 27.242188 29.976562 27.242188 C 29.382812 27.242188 28.890625 27.664062 28.757812 28.265625 C 28.585938 29.039062 28.9375 29.53125 29.46875 30.03125 C 29.601562 30.15625 30.023438 30.484375 30.03125 30.71875 C 30.03125 30.71875 30.046875 30.71875 30.046875 30.71875 C 30.054688 30.484375 30.46875 30.15625 30.609375 30.03125 C 31.132812 29.53125 31.484375 29.039062 31.3125 28.265625 C 31.179688 27.664062 30.6875 27.242188 30.09375 27.242188 C 30.09375 27.242188 29.976562 27.242188 29.976562 27.242188 Z M 30.09375 27.242188 "/>
<path style="fill:none;stroke-width:0.75;stroke-linecap:butt;stroke-linejoin:round;stroke:rgb(12.156863%,9.803922%,9.019608%);stroke-opacity:1;stroke-miterlimit:10;" d="M 224.874928 228.892858 C 224.874928 228.892858 224.734269 228.892858 224.734269 228.892858 C 224.021599 228.892858 223.430832 228.386487 223.271419 227.664439 C 223.06512 226.736092 223.487096 226.145326 224.124748 225.545182 C 224.284161 225.395147 224.790532 225.001302 224.79991 224.719985 C 224.79991 224.719985 224.818664 224.719985 224.818664 224.719985 C 224.828041 225.001302 225.325035 225.395147 225.493826 225.545182 C 226.122101 226.145326 226.544077 226.736092 226.337778 227.664439 C 226.178364 228.386487 225.587598 228.892858 224.874928 228.892858 C 224.874928 228.892858 224.734269 228.892858 224.734269 228.892858 " transform="matrix(0.833134,0,0,-0.833134,-157.257198,217.94061)"/>
<path style=" stroke:none;fill-rule:nonzero;fill:rgb(85.098039%,14.901961%,10.980392%);fill-opacity:1;" d="M 28.757812 28.265625 C 28.851562 27.859375 29.101562 27.539062 29.4375 27.375 C 29.4375 27.375 29.484375 27.304688 29.484375 27.304688 C 29.484375 27.304688 28.015625 26.109375 26.171875 27.539062 C 26.257812 27.5 26.976562 28.117188 27.070312 28.179688 C 27.554688 28.53125 28.070312 28.671875 28.679688 28.5625 C 28.679688 28.5625 28.726562 28.484375 28.726562 28.484375 C 28.734375 28.414062 28.742188 28.34375 28.757812 28.265625 "/>
<path style="fill:none;stroke-width:0.75;stroke-linecap:butt;stroke-linejoin:round;stroke:rgb(12.156863%,9.803922%,9.019608%);stroke-opacity:1;stroke-miterlimit:10;" d="M 223.271419 227.664439 C 223.383946 228.152056 223.684018 228.536523 224.087239 228.733445 C 224.087239 228.733445 224.143503 228.81784 224.143503 228.81784 C 224.143503 228.81784 222.380581 230.252558 220.167552 228.536523 C 220.270701 228.583409 221.133408 227.842607 221.245935 227.767589 C 221.827324 227.345613 222.446222 227.176823 223.177647 227.308104 C 223.177647 227.308104 223.23391 227.401877 223.23391 227.401877 C 223.243287 227.486272 223.252665 227.570667 223.271419 227.664439 Z M 223.271419 227.664439 " transform="matrix(0.833134,0,0,-0.833134,-157.257198,217.94061)"/>
<path style=" stroke:none;fill-rule:nonzero;fill:rgb(85.098039%,14.901961%,10.980392%);fill-opacity:1;" d="M 30.5 27.289062 C 30.5 27.289062 30.515625 27.320312 30.515625 27.320312 C 30.914062 27.460938 31.210938 27.8125 31.3125 28.265625 C 31.335938 28.375 31.351562 28.476562 31.351562 28.570312 C 31.929688 28.65625 32.429688 28.515625 32.898438 28.179688 C 32.992188 28.117188 33.703125 27.5 33.789062 27.539062 C 31.953125 26.109375 30.5 27.289062 30.5 27.289062 "/>
<path style="fill:none;stroke-width:0.75;stroke-linecap:butt;stroke-linejoin:round;stroke:rgb(12.156863%,9.803922%,9.019608%);stroke-opacity:1;stroke-miterlimit:10;" d="M 225.362544 228.836595 C 225.362544 228.836595 225.381299 228.799086 225.381299 228.799086 C 225.859538 228.630295 226.215873 228.208319 226.337778 227.664439 C 226.365909 227.533158 226.384664 227.411254 226.384664 227.298727 C 227.07858 227.195577 227.678723 227.364368 228.241358 227.767589 C 228.353885 227.842607 229.207214 228.583409 229.310364 228.536523 C 227.106712 230.252558 225.362544 228.836595 225.362544 228.836595 Z M 225.362544 228.836595 " transform="matrix(0.833134,0,0,-0.833134,-157.257198,217.94061)"/>
<path style=" stroke:none;fill-rule:nonzero;fill:rgb(85.098039%,14.901961%,10.980392%);fill-opacity:1;" d="M 29.960938 18.851562 C 29.960938 18.851562 26.179688 24.625 29.5 27.179688 C 29.5 27.179688 30.421875 27.179688 30.421875 27.179688 C 33.742188 24.625 29.960938 18.851562 29.960938 18.851562 Z M 29.960938 18.851562 "/>
<path style="fill:none;stroke-width:0.75;stroke-linecap:round;stroke-linejoin:round;stroke:rgb(12.156863%,9.803922%,9.019608%);stroke-opacity:1;stroke-miterlimit:10;" d="M 224.715515 238.964017 C 224.715515 238.964017 220.176929 232.034235 224.162257 228.967876 C 224.162257 228.967876 225.268772 228.967876 225.268772 228.967876 C 229.2541 232.034235 224.715515 238.964017 224.715515 238.964017 " transform="matrix(0.833134,0,0,-0.833134,-157.257198,217.94061)"/>
<path style=" stroke:none;fill-rule:nonzero;fill:rgb(85.098039%,14.901961%,10.980392%);fill-opacity:1;" d="M 29.140625 20.367188 C 29.140625 20.367188 27.546875 18.96875 27.546875 18.96875 C 27.6875 19.09375 27.632812 19.90625 27.632812 20.09375 C 27.640625 20.539062 27.617188 20.976562 27.570312 21.421875 C 27.515625 22.007812 27.390625 22.570312 27.296875 23.148438 C 27.15625 24.0625 27.265625 25.015625 27.765625 25.804688 C 28.140625 26.382812 28.828125 26.890625 29.460938 27.148438 C 27.265625 25.421875 28.257812 22.25 29.140625 20.367188 "/>
<path style="fill:none;stroke-width:0.75;stroke-linecap:butt;stroke-linejoin:round;stroke:rgb(12.156863%,9.803922%,9.019608%);stroke-opacity:1;stroke-miterlimit:10;" d="M 223.730904 237.144832 C 223.730904 237.144832 221.817946 238.823359 221.817946 238.823359 C 221.986737 238.673323 221.921096 237.698089 221.921096 237.473036 C 221.930473 236.938533 221.902342 236.413407 221.846078 235.878904 C 221.780437 235.175611 221.630402 234.50045 221.517875 233.806534 C 221.349084 232.709396 221.480366 231.565372 222.080509 230.618271 C 222.530617 229.924355 223.355814 229.314834 224.115371 229.005385 C 221.480366 231.077756 222.671276 234.884916 223.730904 237.144832 Z M 223.730904 237.144832 " transform="matrix(0.833134,0,0,-0.833134,-157.257198,217.94061)"/>
<path style=" stroke:none;fill-rule:nonzero;fill:rgb(85.098039%,14.901961%,10.980392%);fill-opacity:1;" d="M 32.640625 23.148438 C 32.546875 22.570312 32.421875 22.007812 32.367188 21.421875 C 32.320312 20.976562 32.296875 20.539062 32.304688 20.09375 C 32.304688 19.90625 32.25 19.09375 32.382812 18.96875 C 32.382812 18.96875 30.789062 20.382812 30.789062 20.382812 C 31.664062 22.265625 32.65625 25.445312 30.4375 27.171875 C 31.078125 26.90625 31.789062 26.398438 32.171875 25.804688 C 32.671875 25.015625 32.78125 24.0625 32.640625 23.148438 "/>
<path style="fill:none;stroke-width:0.75;stroke-linecap:butt;stroke-linejoin:round;stroke:rgb(12.156863%,9.803922%,9.019608%);stroke-opacity:1;stroke-miterlimit:10;" d="M 227.931909 233.806534 C 227.819382 234.50045 227.669346 235.175611 227.603705 235.878904 C 227.547442 236.413407 227.51931 236.938533 227.528687 237.473036 C 227.528687 237.698089 227.463047 238.673323 227.62246 238.823359 C 227.62246 238.823359 225.709502 237.126078 225.709502 237.126078 C 226.759754 234.866162 227.950663 231.049624 225.287526 228.977253 C 226.05646 229.29608 226.909789 229.9056 227.369274 230.618271 C 227.969418 231.565372 228.100699 232.709396 227.931909 233.806534 Z M 227.931909 233.806534 " transform="matrix(0.833134,0,0,-0.833134,-157.257198,217.94061)"/>
<path style=" stroke:none;fill-rule:nonzero;fill:rgb(85.098039%,14.901961%,10.980392%);fill-opacity:1;" d="M 30.664062 27.070312 C 30.664062 27.070312 30.75 27.132812 30.75 27.132812 C 31.117188 26.929688 31.882812 26.648438 32.84375 27 C 32.84375 27 32.898438 26.984375 32.898438 26.984375 C 32.898438 26.984375 33.226562 26.085938 33.789062 26.085938 C 33.789062 26.085938 33.046875 25.6875 32.0625 25.953125 C 31.71875 26.414062 31.1875 26.8125 30.664062 27.070312 "/>
<path style="fill:none;stroke-width:0.75;stroke-linecap:butt;stroke-linejoin:round;stroke:rgb(12.156863%,9.803922%,9.019608%);stroke-opacity:1;stroke-miterlimit:10;" d="M 225.559466 229.099158 C 225.559466 229.099158 225.662616 229.02414 225.662616 229.02414 C 226.103347 229.267948 227.022316 229.605529 228.175717 229.183553 C 228.175717 229.183553 228.241358 229.202307 228.241358 229.202307 C 228.241358 229.202307 228.635202 230.28069 229.310364 230.28069 C 229.310364 230.28069 228.419526 230.75893 227.237993 230.440103 C 226.825394 229.886846 226.187742 229.408607 225.559466 229.099158 Z M 225.559466 229.099158 " transform="matrix(0.833134,0,0,-0.833134,-157.257198,217.94061)"/>
<path style=" stroke:none;fill-rule:nonzero;fill:rgb(85.098039%,14.901961%,10.980392%);fill-opacity:1;" d="M 29.195312 27.125 C 29.195312 27.125 29.242188 27.101562 29.242188 27.101562 C 29.242188 27.101562 29.21875 27.039062 29.21875 27.039062 C 28.71875 26.789062 28.210938 26.398438 27.875 25.953125 C 27.875 25.953125 27.867188 25.953125 27.867188 25.953125 C 26.882812 25.6875 26.132812 26.085938 26.132812 26.085938 C 26.695312 26.085938 27.023438 26.984375 27.023438 26.984375 C 27.023438 26.984375 27.09375 27.015625 27.09375 27.015625 C 28.039062 26.65625 28.796875 26.914062 29.195312 27.125 "/>
<path style="fill:none;stroke-width:0.75;stroke-linecap:butt;stroke-linejoin:round;stroke:rgb(12.156863%,9.803922%,9.019608%);stroke-opacity:1;stroke-miterlimit:10;" d="M 223.796545 229.033517 C 223.796545 229.033517 223.852808 229.061649 223.852808 229.061649 C 223.852808 229.061649 223.824676 229.136666 223.824676 229.136666 C 223.224533 229.436738 222.615012 229.9056 222.211791 230.440103 C 222.211791 230.440103 222.202413 230.440103 222.202413 230.440103 C 221.020881 230.75893 220.120665 230.28069 220.120665 230.28069 C 220.795827 230.28069 221.189671 229.202307 221.189671 229.202307 C 221.189671 229.202307 221.274066 229.164798 221.274066 229.164798 C 222.408713 229.596151 223.318305 229.286702 223.796545 229.033517 Z M 223.796545 229.033517 " transform="matrix(0.833134,0,0,-0.833134,-157.257198,217.94061)"/>
<path style=" stroke:none;fill-rule:nonzero;fill:rgb(85.098039%,14.901961%,10.980392%);fill-opacity:1;" d="M 29.132812 20.390625 C 29.296875 20.03125 29.453125 19.726562 29.59375 19.476562 C 29.59375 19.476562 28.9375 18.570312 28.9375 18.570312 C 28.9375 18.570312 28.429688 19.695312 28.429688 19.695312 C 28.429688 19.695312 28.429688 19.742188 28.429688 19.742188 C 28.429688 19.742188 29.140625 20.367188 29.140625 20.367188 C 29.132812 20.375 29.132812 20.382812 29.132812 20.390625 "/>
<path style="fill:none;stroke-width:0.75;stroke-linecap:butt;stroke-linejoin:miter;stroke:rgb(12.156863%,9.803922%,9.019608%);stroke-opacity:1;stroke-miterlimit:10;" d="M 223.721527 237.1167 C 223.918449 237.548053 224.105994 237.913766 224.274784 238.213838 C 224.274784 238.213838 223.487096 239.301598 223.487096 239.301598 C 223.487096 239.301598 222.877575 237.951275 222.877575 237.951275 C 222.877575 237.951275 222.877575 237.895011 222.877575 237.895011 C 222.877575 237.895011 223.730904 237.144832 223.730904 237.144832 C 223.721527 237.135455 223.721527 237.126078 223.721527 237.1167 Z M 223.721527 237.1167 " transform="matrix(0.833134,0,0,-0.833134,-157.257198,217.94061)"/>
<path style=" stroke:none;fill-rule:nonzero;fill:rgb(85.098039%,14.901961%,10.980392%);fill-opacity:1;" d="M 30.789062 20.382812 C 30.789062 20.382812 31.570312 19.695312 31.570312 19.695312 C 31.570312 19.695312 31.054688 18.570312 31.054688 18.570312 C 31.054688 18.570312 30.390625 19.492188 30.390625 19.492188 C 30.390625 19.492188 30.390625 19.601562 30.390625 19.601562 C 30.515625 19.828125 30.65625 20.101562 30.796875 20.40625 C 30.796875 20.398438 30.789062 20.390625 30.789062 20.382812 "/>
<path style="fill:none;stroke-width:0.75;stroke-linecap:butt;stroke-linejoin:miter;stroke:rgb(12.156863%,9.803922%,9.019608%);stroke-opacity:1;stroke-miterlimit:10;" d="M 225.709502 237.126078 C 225.709502 237.126078 226.647227 237.951275 226.647227 237.951275 C 226.647227 237.951275 226.028329 239.301598 226.028329 239.301598 C 226.028329 239.301598 225.231263 238.195083 225.231263 238.195083 C 225.231263 238.195083 225.231263 238.063802 225.231263 238.063802 C 225.381299 237.791862 225.550089 237.463658 225.71888 237.097946 C 225.71888 237.107323 225.709502 237.1167 225.709502 237.126078 Z M 225.709502 237.126078 " transform="matrix(0.833134,0,0,-0.833134,-157.257198,217.94061)"/>
</g>
</svg>
