<svg class="svg-icon" style="width: 1em;height: 1em;vertical-align: middle;fill: currentColor;overflow: hidden;" viewBox="0 0 1024 1024" version="1.1" xmlns="http://www.w3.org/2000/svg"><path d="M608.9 112c31.4 59.9 83.3 178.1 129.1 194.4 5.4-4.3 10.7-8.7 16.1-13.1 6.8-108.3 172.1-147.8 201.6-4.4 30.2 146.4-104.9 90.6-165.9 134.4 33.8 66.6 69.7 139.2 103.4 205.8-48.6 25.9-127.9 92.8-185.5 102.7-10.7-1.9-10.2-13.9-14-18.7C713 590.7 629.9 498.3 512 622.8c-97.4 103 100.5 154.8 89.6 183.9-58.1 35.9-118 69.4-176.1 105.2-40.1-64-80.9-130.9-121.1-194.9-8 3.6-16.1 7.2-24 10.8-24.8 87.3-154.5 178.5-207.4 18.5C29.8 615.4 152 621.4 223.5 614c4.6-3.9 9.1-7.7 13.6-11.7-35.6-67.8-74.8-137.1-110.5-205 61.5-35.6 124.7-74.6 186.3-110.3 48.9 51.3-26.4 172.4 100.6 169.7 80.5-1.8 154-106 98-178.3-31.1-17.8-75.3-15.7-85.3-39-10.1-23.4 2.5-15.5 3.7-23.3 60.4-33.9 118.7-70.4 179-104.1z"  /></svg>