<svg class="svg-icon" style="width: 1em;height: 1em;vertical-align: middle;fill: currentColor;overflow: hidden;" viewBox="0 0 1024 1024" version="1.1" xmlns="http://www.w3.org/2000/svg"><path d="M850.14016 490.865664H786.7392V321.796096c0-46.705664-37.829632-84.535296-84.535296-84.535296H533.133312v-63.40096c0-58.329088-47.33952-105.668608-105.668608-105.668608-58.329088 0-105.668608 47.33952-105.668608 105.668608V237.2608H152.726528c-46.705664 0-84.112384 37.829632-84.112384 84.535296l-0.211968 160.616448h63.190016c62.978048 0 114.121728 51.14368 114.121728 114.121728S194.57024 710.656 131.592192 710.656H68.4032l-0.211968 160.616448c0 46.705664 37.829632 84.535296 84.535296 84.535296h160.616448v-63.40096c0-62.978048 51.14368-114.121728 114.121728-114.121728s114.121728 51.14368 114.121728 114.121728v63.40096h160.616448c46.705664 0 84.535296-37.829632 84.535296-84.535296V702.203904h63.40096c58.329088 0 105.668608-47.33952 105.668608-105.668608 0-58.329088-47.33952-105.669632-105.66656-105.669632z" fill="#323233" /></svg>