<svg class="svg-icon" style="width: 1em; height: 1em;vertical-align: middle;fill: currentColor;overflow: hidden;" viewBox="0 0 1024 1024" version="1.1" xmlns="http://www.w3.org/2000/svg"><path d="M428.46208 653.27104c56.48384 0 109.91616-19.57888 152.73984-55.37792l22.05696 22.05696-7.33184 7.33184c-3.85024 3.85024-6.00064 9.05216-6.00064 14.47936s2.1504 10.6496 6.00064 14.47936l169.10336 169.08288c3.9936 3.9936 9.23648 6.00064 14.47936 6.00064s10.48576-2.00704 14.47936-6.00064l45.21984-45.21984c3.85024-3.85024 6.00064-9.05216 6.00064-14.47936s-2.1504-10.6496-6.00064-14.47936l-169.10336-169.08288c-8.00768-8.00768-20.95104-8.00768-28.95872 0l-8.92928 8.92928-21.97504-21.97504c36.72064-43.08992 56.87296-97.13664 56.87296-154.35776 0-63.73376-24.82176-123.65824-69.89824-168.73472s-105.00096-69.89824-168.73472-69.89824-123.65824 24.82176-168.71424 69.89824c-45.07648 45.07648-69.89824 104.98048-69.89824 168.73472 0 63.73376 24.82176 123.65824 69.89824 168.71424C304.80384 628.46976 364.72832 653.27104 428.46208 653.27104zM795.7504 765.6448l-16.26112 16.24064-140.14464-140.12416 16.26112-16.24064L795.7504 765.6448zM288.70656 274.90304c37.33504-37.33504 86.95808-57.89696 139.75552-57.89696s102.44096 20.56192 139.776 57.89696c37.33504 37.33504 57.89696 86.97856 57.89696 139.776 0 52.79744-20.56192 102.42048-57.89696 139.75552-37.33504 37.33504-86.97856 57.89696-139.776 57.89696s-102.42048-20.56192-139.75552-57.89696c-37.33504-37.33504-57.89696-86.97856-57.89696-139.75552C230.8096 361.86112 251.35104 312.23808 288.70656 274.90304z"  /></svg>