<svg xmlns="http://www.w3.org/2000/svg" xmlns:xlink="http://www.w3.org/1999/xlink" version="1.1" viewBox="1.95 0.85 17.37 17.37">
<g id="surface1">
<path style=" stroke:none;fill-rule:nonzero;fill:rgb(57.254902%,57.254902%,57.254902%);fill-opacity:1;" d="M 14.769531 10.605469 C 14.535156 10.4375 14.289062 10.324219 14.035156 10.265625 C 13.882812 10.238281 13.726562 10.226562 13.566406 10.238281 C 13.414062 10.246094 13.269531 10.265625 13.128906 10.296875 C 13.027344 10.324219 12.921875 10.363281 12.820312 10.40625 C 12.511719 10.542969 12.242188 10.714844 12.023438 10.921875 C 11.816406 11.140625 11.644531 11.410156 11.511719 11.714844 C 11.464844 11.820312 11.425781 11.925781 11.398438 12.027344 C 11.367188 12.164062 11.347656 12.3125 11.339844 12.464844 C 11.328125 12.625 11.339844 12.78125 11.371094 12.929688 C 11.425781 13.183594 11.539062 13.433594 11.707031 13.667969 C 11.773438 13.761719 11.84375 13.84375 11.921875 13.921875 C 12.261719 14.261719 12.699219 14.441406 13.199219 14.5 C 13.351562 14.515625 13.507812 14.527344 13.648438 14.574219 C 13.738281 14.605469 13.804688 14.644531 13.855469 14.695312 C 13.96875 14.808594 13.984375 14.96875 13.898438 15.15625 C 13.84375 15.273438 13.765625 15.386719 13.675781 15.476562 L 13.628906 15.523438 C 13.5625 15.59375 13.519531 15.632812 13.511719 15.644531 C 13.457031 15.699219 13.40625 15.75 13.355469 15.800781 L 13.304688 15.847656 C 13.128906 16.027344 12.949219 16.207031 12.769531 16.386719 C 12.382812 16.773438 11.996094 17.160156 11.609375 17.546875 C 11.480469 17.671875 11.355469 17.800781 11.226562 17.929688 C 11.167969 17.988281 11.109375 18.035156 11.042969 18.078125 C 11.015625 18.097656 10.984375 18.113281 10.957031 18.128906 C 10.625 18.296875 10.253906 18.230469 9.953125 17.929688 C 9.859375 17.835938 9.773438 17.75 9.683594 17.660156 C 9.167969 17.148438 8.65625 16.632812 8.144531 16.121094 C 7.996094 15.976562 7.851562 15.832031 7.707031 15.6875 C 7.601562 15.582031 7.492188 15.484375 7.375 15.398438 C 7.277344 15.324219 7.179688 15.269531 7.078125 15.230469 C 6.71875 15.109375 6.375 15.199219 6.152344 15.457031 C 6.085938 15.539062 6.03125 15.636719 5.992188 15.746094 C 5.933594 15.902344 5.914062 16.074219 5.890625 16.242188 C 5.808594 16.878906 5.453125 17.402344 4.941406 17.644531 C 4.816406 17.707031 4.679688 17.75 4.535156 17.777344 C 4.402344 17.800781 4.265625 17.804688 4.132812 17.792969 C 3.679688 17.773438 3.292969 17.574219 2.96875 17.242188 C 2.941406 17.214844 2.933594 17.207031 2.925781 17.199219 C 2.597656 16.875 2.398438 16.488281 2.375 16.039062 C 2.363281 15.902344 2.367188 15.769531 2.390625 15.632812 C 2.417969 15.488281 2.460938 15.355469 2.523438 15.226562 C 2.765625 14.714844 3.289062 14.359375 3.925781 14.277344 C 4.09375 14.253906 4.269531 14.234375 4.425781 14.175781 C 4.542969 14.132812 4.644531 14.074219 4.730469 14.003906 C 4.976562 13.78125 5.0625 13.449219 4.949219 13.117188 C 4.898438 12.992188 4.847656 12.890625 4.773438 12.792969 C 4.683594 12.679688 4.585938 12.566406 4.484375 12.464844 C 4.339844 12.316406 4.195312 12.171875 4.050781 12.027344 C 3.59375 11.570312 3.136719 11.113281 2.679688 10.65625 L 2.507812 10.488281 C 2.421875 10.398438 2.332031 10.308594 2.25 10.226562 C 1.9375 9.917969 1.871094 9.546875 2.039062 9.214844 C 2.054688 9.183594 2.070312 9.15625 2.089844 9.128906 C 2.132812 9.0625 2.183594 9 2.242188 8.941406 C 2.367188 8.816406 2.496094 8.6875 2.625 8.5625 C 3.007812 8.175781 3.394531 7.789062 3.78125 7.402344 C 3.960938 7.222656 4.140625 7.042969 4.320312 6.863281 L 4.371094 6.8125 C 4.421875 6.761719 4.472656 6.714844 4.523438 6.664062 C 4.535156 6.648438 4.578125 6.605469 4.644531 6.539062 L 4.691406 6.492188 C 4.785156 6.402344 4.894531 6.328125 5.011719 6.273438 C 5.203125 6.1875 5.363281 6.203125 5.472656 6.316406 C 5.523438 6.363281 5.566406 6.433594 5.59375 6.519531 C 5.640625 6.664062 5.652344 6.820312 5.667969 6.96875 C 5.726562 7.472656 5.910156 7.910156 6.25 8.25 C 6.324219 8.324219 6.410156 8.398438 6.5 8.464844 C 6.738281 8.632812 6.984375 8.746094 7.238281 8.800781 C 7.386719 8.828125 7.542969 8.839844 7.707031 8.832031 C 7.859375 8.824219 8.003906 8.804688 8.140625 8.773438 C 8.246094 8.742188 8.347656 8.707031 8.453125 8.660156 C 8.761719 8.523438 9.027344 8.351562 9.246094 8.144531 C 9.453125 7.925781 9.625 7.660156 9.761719 7.351562 C 9.808594 7.246094 9.84375 7.144531 9.875 7.039062 C 9.90625 6.902344 9.925781 6.757812 9.933594 6.605469 C 9.941406 6.441406 9.929688 6.285156 9.902344 6.136719 C 9.847656 5.882812 9.734375 5.636719 9.5625 5.398438 C 9.5 5.308594 9.425781 5.222656 9.351562 5.148438 C 9.011719 4.808594 8.574219 4.625 8.070312 4.566406 C 7.921875 4.550781 7.765625 4.539062 7.621094 4.492188 C 7.535156 4.464844 7.464844 4.421875 7.417969 4.375 C 7.304688 4.261719 7.289062 4.101562 7.375 3.910156 C 7.429688 3.796875 7.503906 3.683594 7.59375 3.589844 L 7.640625 3.542969 C 7.707031 3.476562 7.75 3.433594 7.761719 3.421875 C 7.8125 3.371094 7.863281 3.320312 7.914062 3.269531 L 7.964844 3.21875 C 8.144531 3.039062 8.324219 2.859375 8.503906 2.683594 C 8.886719 2.292969 9.273438 1.910156 9.664062 1.523438 C 9.789062 1.394531 9.917969 1.269531 10.042969 1.140625 C 10.101562 1.082031 10.164062 1.03125 10.226562 0.992188 C 10.257812 0.96875 10.285156 0.953125 10.316406 0.9375 C 10.648438 0.769531 11.019531 0.835938 11.320312 1.140625 C 11.410156 1.230469 11.5 1.320312 11.589844 1.40625 C 12.101562 1.921875 12.613281 2.433594 13.128906 2.949219 C 13.273438 3.09375 13.417969 3.238281 13.5625 3.382812 C 13.667969 3.484375 13.78125 3.582031 13.894531 3.671875 C 13.992188 3.746094 14.09375 3.800781 14.191406 3.835938 C 14.550781 3.960938 14.894531 3.871094 15.121094 3.609375 C 15.183594 3.53125 15.238281 3.433594 15.277344 3.324219 C 15.335938 3.167969 15.355469 2.992188 15.378906 2.824219 C 15.460938 2.1875 15.816406 1.664062 16.328125 1.421875 C 16.457031 1.363281 16.59375 1.316406 16.734375 1.292969 C 16.871094 1.265625 17.003906 1.261719 17.140625 1.273438 C 17.589844 1.296875 17.980469 1.496094 18.300781 1.828125 C 18.328125 1.855469 18.335938 1.863281 18.34375 1.867188 C 18.675781 2.191406 18.875 2.578125 18.898438 3.03125 C 18.910156 3.164062 18.902344 3.300781 18.878906 3.4375 C 18.855469 3.578125 18.808594 3.714844 18.746094 3.839844 C 18.503906 4.351562 17.980469 4.707031 17.34375 4.789062 C 17.175781 4.8125 17.003906 4.832031 16.847656 4.890625 C 16.730469 4.933594 16.625 4.992188 16.542969 5.0625 C 16.296875 5.289062 16.210938 5.617188 16.324219 5.953125 C 16.371094 6.078125 16.425781 6.175781 16.5 6.273438 C 16.585938 6.390625 16.683594 6.5 16.789062 6.605469 C 16.933594 6.75 17.078125 6.894531 17.222656 7.039062 C 17.734375 7.554688 18.25 8.066406 18.761719 8.582031 C 18.851562 8.667969 18.941406 8.757812 19.019531 8.839844 C 19.332031 9.152344 19.402344 9.523438 19.234375 9.855469 C 19.21875 9.882812 19.199219 9.910156 19.179688 9.941406 C 19.136719 10.003906 19.089844 10.066406 19.03125 10.125 C 18.902344 10.253906 18.777344 10.378906 18.648438 10.507812 C 18.261719 10.894531 17.875 11.28125 17.488281 11.667969 C 17.308594 11.847656 17.132812 12.027344 16.953125 12.203125 L 16.902344 12.253906 C 16.851562 12.304688 16.800781 12.355469 16.75 12.40625 C 16.734375 12.417969 16.695312 12.460938 16.628906 12.527344 L 16.578125 12.574219 C 16.488281 12.664062 16.375 12.742188 16.257812 12.796875 C 16.070312 12.882812 15.910156 12.867188 15.796875 12.753906 C 15.746094 12.703125 15.707031 12.636719 15.679688 12.546875 C 15.628906 12.40625 15.621094 12.25 15.601562 12.097656 C 15.542969 11.597656 15.363281 11.160156 15.023438 10.820312 C 14.949219 10.742188 14.863281 10.671875 14.769531 10.605469 Z M 14.769531 10.605469 "/>
</g>
</svg>