<svg xmlns="http://www.w3.org/2000/svg" xmlns:xlink="http://www.w3.org/1999/xlink" version="1.1" viewBox="2.92 1.27 26.06 26.06">
<g id="surface1">
<path style=" stroke:none;fill-rule:nonzero;fill:rgb(57.254902%,57.254902%,57.254902%);fill-opacity:1;" d="M 22.15625 15.90625 C 21.800781 15.65625 21.429688 15.484375 21.050781 15.402344 C 20.824219 15.359375 20.589844 15.339844 20.347656 15.355469 C 20.121094 15.367188 19.902344 15.398438 19.695312 15.445312 C 19.539062 15.488281 19.382812 15.542969 19.226562 15.613281 C 18.765625 15.816406 18.367188 16.074219 18.039062 16.382812 C 17.726562 16.710938 17.46875 17.113281 17.265625 17.574219 C 17.195312 17.730469 17.140625 17.886719 17.097656 18.042969 C 17.050781 18.25 17.019531 18.464844 17.007812 18.695312 C 16.996094 18.9375 17.011719 19.171875 17.054688 19.398438 C 17.136719 19.777344 17.308594 20.148438 17.5625 20.503906 C 17.660156 20.640625 17.765625 20.769531 17.878906 20.882812 C 18.390625 21.390625 19.046875 21.664062 19.800781 21.75 C 20.027344 21.777344 20.261719 21.792969 20.476562 21.863281 C 20.605469 21.90625 20.707031 21.96875 20.78125 22.042969 C 20.953125 22.210938 20.976562 22.453125 20.847656 22.734375 C 20.765625 22.910156 20.648438 23.078125 20.515625 23.214844 L 20.445312 23.289062 C 20.34375 23.386719 20.28125 23.449219 20.265625 23.46875 C 20.1875 23.546875 20.109375 23.625 20.035156 23.699219 L 19.960938 23.773438 C 19.691406 24.042969 19.421875 24.3125 19.152344 24.578125 C 18.574219 25.160156 17.996094 25.738281 17.414062 26.320312 C 17.222656 26.511719 17.03125 26.703125 16.839844 26.890625 C 16.753906 26.980469 16.660156 27.054688 16.566406 27.117188 C 16.519531 27.148438 16.476562 27.171875 16.433594 27.195312 C 15.9375 27.449219 15.378906 27.347656 14.925781 26.894531 C 14.789062 26.757812 14.65625 26.625 14.523438 26.492188 C 13.753906 25.71875 12.984375 24.949219 12.214844 24.179688 C 11.996094 23.964844 11.777344 23.746094 11.5625 23.53125 C 11.40625 23.375 11.238281 23.230469 11.0625 23.097656 C 10.917969 22.984375 10.769531 22.902344 10.617188 22.847656 C 10.082031 22.664062 9.566406 22.796875 9.226562 23.1875 C 9.128906 23.308594 9.050781 23.453125 8.988281 23.617188 C 8.902344 23.851562 8.871094 24.113281 8.839844 24.363281 C 8.714844 25.320312 8.183594 26.105469 7.414062 26.46875 C 7.222656 26.558594 7.019531 26.628906 6.804688 26.664062 C 6.601562 26.703125 6.398438 26.710938 6.199219 26.691406 C 5.519531 26.65625 4.9375 26.359375 4.453125 25.863281 C 4.414062 25.820312 4.402344 25.808594 4.390625 25.800781 C 3.894531 25.316406 3.597656 24.734375 3.5625 24.054688 C 3.546875 23.855469 3.554688 23.652344 3.589844 23.449219 C 3.625 23.234375 3.695312 23.03125 3.785156 22.839844 C 4.148438 22.074219 4.933594 21.542969 5.890625 21.417969 C 6.140625 21.382812 6.402344 21.355469 6.636719 21.265625 C 6.8125 21.203125 6.96875 21.113281 7.09375 21.007812 C 7.464844 20.671875 7.59375 20.175781 7.421875 19.675781 C 7.351562 19.488281 7.269531 19.335938 7.160156 19.191406 C 7.027344 19.015625 6.878906 18.851562 6.722656 18.695312 C 6.507812 18.476562 6.289062 18.257812 6.074219 18.042969 C 5.390625 17.355469 4.703125 16.671875 4.019531 15.988281 L 3.765625 15.730469 C 3.632812 15.597656 3.496094 15.464844 3.375 15.34375 C 2.90625 14.875 2.808594 14.320312 3.058594 13.820312 C 3.082031 13.777344 3.109375 13.734375 3.136719 13.691406 C 3.199219 13.59375 3.273438 13.503906 3.363281 13.414062 C 3.554688 13.222656 3.742188 13.03125 3.933594 12.839844 C 4.515625 12.261719 5.09375 11.679688 5.675781 11.101562 C 5.941406 10.832031 6.210938 10.5625 6.480469 10.296875 L 6.554688 10.21875 C 6.628906 10.144531 6.707031 10.070312 6.78125 9.992188 C 6.804688 9.972656 6.867188 9.910156 6.964844 9.808594 L 7.039062 9.738281 C 7.175781 9.605469 7.34375 9.488281 7.519531 9.410156 C 7.800781 9.277344 8.042969 9.304688 8.210938 9.472656 C 8.285156 9.546875 8.347656 9.648438 8.390625 9.78125 C 8.460938 9.996094 8.476562 10.230469 8.503906 10.457031 C 8.589844 11.207031 8.863281 11.863281 9.371094 12.375 C 9.488281 12.488281 9.613281 12.59375 9.75 12.695312 C 10.105469 12.949219 10.476562 13.117188 10.855469 13.203125 C 11.082031 13.246094 11.316406 13.261719 11.558594 13.246094 C 11.789062 13.234375 12.003906 13.203125 12.210938 13.15625 C 12.367188 13.113281 12.523438 13.058594 12.679688 12.988281 C 13.140625 12.785156 13.542969 12.527344 13.871094 12.21875 C 14.179688 11.890625 14.4375 11.488281 14.640625 11.027344 C 14.710938 10.871094 14.765625 10.714844 14.808594 10.5625 C 14.855469 10.355469 14.886719 10.136719 14.898438 9.90625 C 14.914062 9.664062 14.898438 9.429688 14.855469 9.207031 C 14.769531 8.824219 14.601562 8.453125 14.347656 8.097656 C 14.246094 7.960938 14.140625 7.835938 14.027344 7.71875 C 13.515625 7.210938 12.859375 6.9375 12.109375 6.851562 C 11.878906 6.828125 11.648438 6.808594 11.433594 6.738281 C 11.300781 6.695312 11.199219 6.632812 11.125 6.558594 C 10.957031 6.390625 10.929688 6.148438 11.0625 5.867188 C 11.140625 5.691406 11.257812 5.523438 11.390625 5.386719 L 11.460938 5.3125 C 11.5625 5.214844 11.625 5.152344 11.640625 5.136719 C 11.722656 5.054688 11.796875 4.980469 11.871094 4.902344 L 11.949219 4.828125 C 12.214844 4.558594 12.484375 4.289062 12.753906 4.023438 C 13.332031 3.441406 13.914062 2.863281 14.492188 2.28125 C 14.683594 2.09375 14.875 1.902344 15.066406 1.710938 C 15.152344 1.621094 15.246094 1.546875 15.339844 1.488281 C 15.386719 1.457031 15.429688 1.429688 15.472656 1.40625 C 15.972656 1.15625 16.527344 1.257812 16.980469 1.710938 C 17.117188 1.847656 17.25 1.980469 17.382812 2.113281 C 18.152344 2.882812 18.921875 3.652344 19.691406 4.421875 C 19.910156 4.640625 20.128906 4.855469 20.347656 5.074219 C 20.503906 5.226562 20.667969 5.375 20.84375 5.507812 C 20.988281 5.617188 21.140625 5.699219 21.289062 5.753906 C 21.828125 5.941406 22.34375 5.804688 22.679688 5.417969 C 22.777344 5.292969 22.859375 5.148438 22.917969 4.984375 C 23.007812 4.75 23.035156 4.488281 23.070312 4.238281 C 23.195312 3.285156 23.726562 2.496094 24.492188 2.136719 C 24.683594 2.042969 24.886719 1.976562 25.101562 1.9375 C 25.304688 1.902344 25.507812 1.894531 25.707031 1.910156 C 26.386719 1.945312 26.96875 2.242188 27.453125 2.738281 C 27.496094 2.78125 27.503906 2.792969 27.515625 2.804688 C 28.011719 3.289062 28.3125 3.871094 28.34375 4.546875 C 28.363281 4.746094 28.355469 4.949219 28.320312 5.152344 C 28.28125 5.367188 28.214844 5.570312 28.121094 5.761719 C 27.757812 6.53125 26.972656 7.0625 26.015625 7.1875 C 25.765625 7.21875 25.503906 7.25 25.269531 7.335938 C 25.09375 7.402344 24.941406 7.488281 24.8125 7.597656 C 24.441406 7.929688 24.3125 8.425781 24.484375 8.929688 C 24.558594 9.117188 24.640625 9.265625 24.75 9.410156 C 24.882812 9.585938 25.027344 9.753906 25.183594 9.90625 C 25.398438 10.125 25.617188 10.34375 25.832031 10.558594 C 26.601562 11.332031 27.375 12.101562 28.144531 12.871094 C 28.277344 13.003906 28.410156 13.136719 28.53125 13.261719 C 29 13.726562 29.101562 14.285156 28.847656 14.78125 C 28.824219 14.824219 28.800781 14.867188 28.769531 14.910156 C 28.707031 15.007812 28.632812 15.101562 28.542969 15.1875 C 28.355469 15.378906 28.164062 15.570312 27.972656 15.761719 C 27.394531 16.339844 26.8125 16.921875 26.234375 17.5 C 25.964844 17.769531 25.695312 18.039062 25.425781 18.308594 L 25.351562 18.382812 C 25.277344 18.457031 25.199219 18.53125 25.125 18.609375 C 25.105469 18.628906 25.042969 18.691406 24.941406 18.792969 L 24.867188 18.863281 C 24.730469 18.996094 24.5625 19.113281 24.390625 19.191406 C 24.105469 19.324219 23.863281 19.296875 23.695312 19.128906 C 23.621094 19.054688 23.558594 18.953125 23.515625 18.820312 C 23.445312 18.609375 23.429688 18.375 23.402344 18.148438 C 23.316406 17.394531 23.042969 16.738281 22.535156 16.226562 C 22.421875 16.113281 22.296875 16.007812 22.15625 15.90625 Z M 22.15625 15.90625 "/>
</g>
</svg>