<svg version="1.2" xmlns="http://www.w3.org/2000/svg" viewBox="0 0 1541 1387" width="1541" height="1387">
	<title>download (3)-svg</title>
	<style>
		.s0 { fill: #fa6400 } 
	</style>
	<g id="Layer">
		<path id="Layer" fill-rule="evenodd" class="s0" d="m1426.8 977.5c-39 0-70.6-31-70.6-69.4 0-38.5 31.6-69.5 70.6-69.5 39.1 0 70.6 31 70.6 69.5 0 38.4-31.5 69.4-70.6 69.4zm-29.7 100.4c0-32.6-26.7-59-59.8-59-33.1 0-59.9 26.4-59.9 59 0 32.6 26.8 58.9 59.9 58.9 33.1 0 59.8-26.3 59.8-58.9zm-192.8 82.3c-6.8 0-13.4 1.2-19.7 3.8-6.3 2.5-12 6.2-16.8 11-4.8 4.7-8.6 10.3-11.2 16.5-2.7 6.3-4.1 12.9-4.1 19.7 0 6.7 1.4 13.4 4 19.6 2.7 6.2 6.5 11.9 11.3 16.6 4.8 4.7 10.5 8.5 16.8 11 6.2 2.6 12.9 3.8 19.6 3.8 6.8 0 13.5-1.2 19.8-3.8 6.2-2.5 11.9-6.2 16.7-11 4.8-4.7 8.7-10.4 11.3-16.6 2.6-6.2 4-12.9 4.1-19.6-0.1-6.8-1.5-13.4-4.1-19.7-2.7-6.2-6.5-11.8-11.3-16.5-4.8-4.8-10.5-8.5-16.8-11-6.2-2.6-12.9-3.8-19.6-3.8zm-149.3 95.1c-5.5-0.1-10.9 1-16 3-5.1 2.1-9.7 5.1-13.7 9-3.9 3.8-7 8.4-9.1 13.4-2.2 5.1-3.3 10.5-3.3 16 0 22.8 18.8 41.4 42.1 41.4 23.2 0 42-18.6 42-41.4-0.1-5.5-1.2-10.9-3.3-15.9-2.1-5.1-5.2-9.7-9.1-13.5-3.9-3.9-8.6-6.9-13.6-8.9-5.1-2.1-10.5-3.1-16-3.1zm-146.9 50.3c-4.7 0-9.3 0.9-13.7 2.6-4.3 1.8-8.3 4.4-11.6 7.7-3.4 3.3-6 7.2-7.9 11.5-1.8 4.3-2.8 9-2.8 13.7 0 19.6 16.1 35.6 36 35.6 20 0 36.1-16 36.1-35.6 0-4.7-1-9.3-2.8-13.7-1.8-4.3-4.5-8.2-7.9-11.5-3.3-3.3-7.3-5.9-11.6-7.7-4.4-1.8-9.1-2.7-13.8-2.6zm-137.5 20c-4 0-8 0.7-11.8 2.3-3.7 1.5-7.2 3.7-10 6.6-2.9 2.8-5.2 6.2-6.8 9.9-1.6 3.7-2.4 7.7-2.4 11.8 0 4 0.8 8 2.4 11.8 1.6 3.7 3.9 7.1 6.7 9.9 2.9 2.9 6.3 5.1 10.1 6.6 3.8 1.5 7.8 2.3 11.8 2.3 4.1 0 8.1-0.8 11.8-2.3 3.8-1.5 7.2-3.8 10.1-6.6 2.8-2.8 5.1-6.2 6.7-10 1.6-3.7 2.4-7.7 2.4-11.7 0-4.1-0.8-8.1-2.4-11.8-1.6-3.7-3.9-7.1-6.7-9.9-2.9-2.9-6.3-5.1-10.1-6.6-3.7-1.5-7.7-2.3-11.8-2.3zm-137.7-20c-4.7 0-9.4 0.9-13.8 2.6-4.3 1.8-8.3 4.4-11.7 7.7-3.3 3.3-6 7.2-7.8 11.6-1.8 4.3-2.8 9-2.8 13.7 0 19.6 16.1 35.5 36.1 35.5 19.9 0 36.1-15.9 36.1-35.5-0.1-4.7-1-9.4-2.9-13.7-1.8-4.4-4.5-8.3-7.8-11.6-3.4-3.3-7.3-5.9-11.7-7.7-4.4-1.7-9-2.6-13.7-2.6zm-146.9-50.3c-23.1 0-41.9 18.4-41.9 41.2 0 22.7 18.8 41.3 41.9 41.3 23.2 0 41.9-18.5 41.9-41.3 0-22.8-18.7-41.3-41.9-41.2zm-149.4-94.9c-6.7-0.1-13.4 1.2-19.7 3.7-6.2 2.6-11.9 6.3-16.7 11-4.8 4.8-8.6 10.4-11.2 16.6-2.7 6.2-4.1 12.8-4.1 19.6 0 6.7 1.4 13.4 4 19.6 2.7 6.2 6.5 11.8 11.3 16.6 4.8 4.7 10.5 8.4 16.7 11 6.3 2.5 13 3.8 19.7 3.7 6.7 0.1 13.4-1.2 19.7-3.7 6.2-2.6 11.9-6.3 16.7-11 4.8-4.8 8.7-10.4 11.3-16.6 2.6-6.2 4-12.9 4-19.6 0-6.8-1.4-13.4-4-19.6-2.7-6.2-6.5-11.9-11.3-16.6-4.8-4.7-10.5-8.4-16.7-11-6.3-2.5-13-3.8-19.7-3.7zm-72.9-82.4c0-32.7-26.8-59-59.9-59-33.2 0-60 26.3-60 59 0 32.6 26.8 59 60 59 33.1 0 59.9-26.4 59.9-59zm-79-170.1c0-38.4-31.5-69.5-70.5-69.5-39 0-70.5 31.1-70.5 69.5 0 38.4 31.5 69.4 70.5 69.4 39 0 70.5-31 70.5-69.4zm-21.3-214.4c0-44.4-36.5-80.3-81.6-80.3-45.1 0-81.6 35.9-81.6 80.3 0 44.4 36.5 80.3 81.6 80.3 45.1 0 81.6-35.9 81.6-80.3zm21.2-214.4c0-38.4-31.5-69.4-70.5-69.4-38.9 0-70.4 31-70.4 69.4 0 38.3 31.5 69.3 70.4 69.3 39 0 70.5-31 70.5-69.3zm79-170.2c0-32.6-26.8-59-59.9-59-33.2 0-60 26.4-60 59 0 32.7 26.8 59.1 60 59.1 33.1 0 59.9-26.4 59.9-59.1zm73.1-184.2c-6.7-0.1-13.4 1.2-19.7 3.7-6.2 2.5-11.9 6.3-16.7 11-4.8 4.7-8.6 10.4-11.2 16.6-2.7 6.2-4.1 12.8-4.1 19.6 0 6.7 1.4 13.4 4 19.6 2.7 6.2 6.5 11.8 11.3 16.5 4.8 4.8 10.5 8.5 16.7 11 6.3 2.6 13 3.9 19.7 3.8 6.7 0.1 13.4-1.2 19.7-3.7 6.2-2.6 11.9-6.3 16.7-11 4.8-4.8 8.7-10.4 11.3-16.6 2.6-6.2 4-12.9 4.1-19.6-0.1-6.8-1.5-13.4-4.1-19.7-2.7-6.2-6.5-11.8-11.3-16.5-4.8-4.7-10.5-8.5-16.7-11-6.3-2.5-13-3.8-19.7-3.7zm149.4-75.6c-5.5-0.1-10.9 0.9-16 3-5 2-9.6 5.1-13.5 8.9-3.9 3.8-7 8.4-9.1 13.4-2.2 5-3.3 10.4-3.3 15.9 0 5.5 1.1 10.9 3.3 15.9 2.1 5 5.2 9.6 9.1 13.4 3.9 3.8 8.5 6.8 13.5 8.9 5.1 2 10.5 3.1 16 3 5.4 0.1 10.8-1 15.9-3 5-2.1 9.6-5.1 13.5-8.9 3.9-3.9 7-8.4 9.1-13.4 2.1-5.1 3.3-10.5 3.3-15.9 0-5.5-1.1-10.9-3.3-15.9-2.1-5-5.2-9.6-9.1-13.4-3.9-3.8-8.5-6.9-13.5-8.9-5.1-2.1-10.5-3.1-15.9-3zm146.7-38.9c-20 0-36.1 15.9-36.1 35.5 0 19.6 16.1 35.6 36.1 35.6 20 0 36.1-16 36.1-35.6 0-19.6-16.2-35.5-36.1-35.5zm137.5-10.2c-17.1 0-31 13.7-31 30.5 0 16.9 13.9 30.6 31 30.6 17.1 0 31-13.7 31-30.6 0-16.8-13.8-30.5-31-30.5zm138 10.3c-4.7-0.1-9.4 0.8-13.7 2.6-4.4 1.7-8.4 4.3-11.7 7.6-3.4 3.3-6 7.3-7.9 11.6-1.8 4.3-2.8 9-2.8 13.7 0 19.6 16.2 35.5 36.1 35.5 19.9 0 36-16 36-35.5-0.1-4.7-1-9.3-2.8-13.7-1.9-4.3-4.5-8.2-7.9-11.5-3.3-3.3-7.3-5.9-11.6-7.7-4.4-1.8-9-2.7-13.7-2.6zm146.7 38.8c-23.1 0-41.9 18.5-41.9 41.2 0 22.7 18.7 41.2 41.9 41.2 23.1 0 41.8-18.5 41.8-41.2 0-5.5-1.1-10.8-3.3-15.9-2.1-5-5.2-9.5-9.1-13.4-3.9-3.8-8.5-6.8-13.5-8.9-5.1-2-10.5-3-15.9-3zm149.1 75.7c-6.7 0-13.4 1.2-19.6 3.8-6.3 2.5-11.9 6.2-16.8 10.9-4.8 4.8-8.6 10.4-11.2 16.6-2.6 6.2-4 12.9-4.1 19.6 0 28.1 23.1 50.9 51.7 50.9 6.8 0 13.4-1.3 19.7-3.8 6.2-2.5 11.9-6.3 16.7-11 4.8-4.7 8.6-10.3 11.2-16.5 2.7-6.2 4-12.9 4.1-19.6 0-28.1-23.1-50.8-51.7-50.9zm133 125.2c-7.8-0.1-15.5 1.4-22.8 4.3-7.2 3-13.8 7.3-19.4 12.8-5.5 5.5-10 12-13 19.2-3.1 7.2-4.7 14.9-4.7 22.7 0 32.7 26.9 59.1 60 59.1 7.8 0.1 15.5-1.4 22.8-4.4 7.2-2.9 13.8-7.2 19.4-12.7 5.5-5.5 10-12 13-19.2 3.1-7.2 4.7-14.9 4.8-22.8-0.1-7.8-1.7-15.5-4.8-22.7-3-7.2-7.5-13.7-13-19.2-5.6-5.5-12.2-9.8-19.4-12.8-7.3-2.9-15-4.4-22.9-4.3zm160.2 228.9c0-38.4-31.5-69.4-70.5-69.4-39 0-70.5 31-70.5 69.4 0 38.3 31.5 69.3 70.5 69.3 39 0 70.5-31 70.5-69.3zm-393.9 320.7c-4.1-0.1-8.2 0.7-12 2.3-3.8 1.5-7.3 3.8-10.3 6.7-2.9 2.9-5.2 6.3-6.8 10.1-1.7 3.8-2.5 7.9-2.5 12 0 17.3 14.1 31.2 31.6 31.2 17.5 0 31.7-13.9 31.7-31.2-0.1-4.1-0.9-8.2-2.5-12-1.6-3.8-4-7.2-6.9-10.1-2.9-2.9-6.4-5.2-10.3-6.7-3.8-1.6-7.9-2.4-12-2.3zm-79.1 115.5c-4.1 0-8.2 0.8-12 2.3-3.8 1.6-7.3 3.9-10.3 6.7-2.9 2.9-5.3 6.4-6.9 10.2-1.6 3.8-2.4 7.9-2.5 12 0 17.2 14.2 31.2 31.7 31.2 17.5 0 31.7-14 31.7-31.2 0-4.1-0.9-8.2-2.5-12-1.6-3.8-3.9-7.3-6.9-10.2-2.9-2.8-6.4-5.1-10.2-6.7-3.9-1.5-7.9-2.3-12.1-2.3zm-117.2 74.2c-19 0-34.4 15.2-34.4 33.9 0 18.7 15.4 33.8 34.4 33.8 19 0 34.4-15.1 34.4-33.9 0-18.6-15.4-33.8-34.4-33.8zm-138.6 20.2c-6.1 0-12.1 1.1-17.7 3.4-5.6 2.2-10.7 5.6-15 9.8-4.3 4.3-7.7 9.3-10.1 14.9-2.3 5.5-3.6 11.5-3.6 17.5 0 25.2 20.7 45.6 46.3 45.6 25.6 0 46.3-20.4 46.3-45.6 0-6-1.2-12-3.6-17.5-2.3-5.6-5.8-10.6-10.1-14.9-4.3-4.2-9.4-7.6-15-9.8-5.6-2.3-11.5-3.4-17.5-3.4zm-85.8 24.5c0-28.6-23.5-51.7-52.5-51.7-29.1 0-52.6 23.1-52.6 51.7 0 28.6 23.5 51.7 52.6 51.7 29 0 52.5-23.1 52.5-51.7zm-119.8-81.5c0-31.7-26-57.4-58.3-57.4-32.2 0-58.2 25.7-58.2 57.4 0 31.8 26 57.4 58.2 57.4 32.3 0 58.3-25.6 58.3-57.4zm-140.9-174c-6.4 0-12.7 1.2-18.6 3.6-6 2.4-11.4 5.9-15.9 10.4-4.6 4.4-8.2 9.8-10.7 15.7-2.5 5.8-3.8 12.1-3.8 18.5 0 26.6 21.9 48.2 48.9 48.2 27 0 49-21.6 49-48.2-0.1-6.3-1.4-12.7-3.9-18.5-2.5-5.9-6.1-11.2-10.6-15.7-4.6-4.5-10-8-15.9-10.4-5.9-2.4-12.2-3.6-18.5-3.6zm-19.4-128.2c-5 0-9.9 0.9-14.4 2.8-4.6 1.9-8.8 4.6-12.3 8.1-3.5 3.4-6.3 7.6-8.3 12.1-1.9 4.6-2.9 9.4-2.9 14.4 0 20.5 16.9 37.3 37.9 37.3 4.9 0 9.8-0.9 14.4-2.8 4.5-1.8 8.7-4.6 12.2-8 3.5-3.5 6.3-7.6 8.2-12.2 2-4.5 3-9.4 3-14.3 0-4.9-1-9.8-2.9-14.4-2-4.5-4.8-8.7-8.3-12.1-3.5-3.5-7.7-6.2-12.2-8.1-4.6-1.8-9.5-2.8-14.4-2.8zm33.3-125.2c-4.2-0.1-8.3 0.7-12.1 2.3-3.9 1.5-7.4 3.8-10.3 6.7-3 3-5.3 6.4-6.9 10.2-1.7 3.9-2.5 8-2.5 12.1 0 17.3 14.2 31.3 31.8 31.3 4.1 0 8.3-0.8 12.1-2.3 3.8-1.6 7.3-3.9 10.3-6.8 2.9-2.9 5.3-6.4 6.9-10.2 1.6-3.8 2.5-7.9 2.5-12-0.1-4.2-0.9-8.3-2.5-12.1-1.6-3.8-4-7.3-7-10.2-2.9-2.9-6.4-5.2-10.3-6.7-3.8-1.6-7.9-2.4-12-2.3zm79.1-114.4c-4.2 0-8.2 0.8-12.1 2.3-3.8 1.6-7.3 3.8-10.2 6.7-2.9 2.9-5.3 6.4-6.9 10.2-1.6 3.8-2.4 7.8-2.5 12 0 17.2 14.2 31.1 31.7 31.1 17.5 0 31.6-13.9 31.6-31.1 0-4.2-0.8-8.2-2.4-12-1.6-3.8-4-7.3-6.9-10.2-3-2.9-6.4-5.1-10.3-6.7-3.8-1.5-7.9-2.3-12-2.3zm117-80.1c-18.9 0-34.3 15.2-34.3 33.9 0 18.7 15.4 33.8 34.4 33.8 19 0 34.4-15.1 34.4-33.9 0-18.7-15.4-33.8-34.5-33.8zm138.7-43.7c-6-0.1-12 1-17.5 3.3-5.6 2.2-10.6 5.6-14.9 9.8-4.2 4.2-7.6 9.2-10 14.7-2.3 5.5-3.5 11.4-3.6 17.4 0 25 20.6 45.3 46 45.3 6 0.1 11.9-1.1 17.5-3.3 5.5-2.3 10.6-5.6 14.9-9.8 4.2-4.2 7.6-9.2 10-14.7 2.3-5.6 3.5-11.5 3.6-17.5 0-25-20.6-45.2-46-45.2zm191 66.5c0-28.5-23.4-51.5-52.4-51.5-29 0-52.4 23-52.4 51.5 0 28.5 23.4 51.6 52.4 51.6 29 0 52.4-23.1 52.4-51.6zm131 81.6c0-31.8-26.1-57.5-58.4-57.5-32.3 0-58.4 25.7-58.4 57.5 0 31.8 26.1 57.5 58.4 57.5 32.3 0 58.4-25.7 58.4-57.5zm24.4 77.5c-6.4 0-12.7 1.2-18.6 3.6-5.9 2.4-11.3 5.9-15.9 10.4-4.5 4.4-8.1 9.8-10.6 15.6-2.5 5.9-3.8 12.2-3.8 18.6 0 26.5 21.8 48 48.9 48 26.9 0 48.8-21.5 48.8-48-0.1-6.4-1.4-12.7-3.8-18.6-2.5-5.8-6.1-11.1-10.7-15.6-4.5-4.5-9.9-8-15.8-10.4-5.9-2.4-12.2-3.6-18.5-3.6zm-127.3 211.3c-16.2 0-29.2 12.9-29.2 28.8 0 15.9 13 28.8 29.2 28.8 16.1 0 29.2-12.9 29.2-28.8 0-15.9-13.1-28.8-29.2-28.8zm-56.7 89c-5.7 0-11.3 1-16.5 3.2-5.3 2.1-10.1 5.2-14.1 9.2-4.1 4-7.3 8.7-9.5 13.9-2.2 5.2-3.4 10.8-3.4 16.5 0 23.6 19.5 42.8 43.5 42.8 24 0 43.4-19.2 43.4-42.8 0-5.7-1.2-11.3-3.4-16.5-2.2-5.2-5.4-9.9-9.4-13.9-4.1-4-8.9-7.1-14.1-9.2-5.2-2.2-10.9-3.2-16.5-3.2zm-111.8 58.2c-5.9 0-11.8 1.1-17.3 3.3-5.5 2.2-10.5 5.5-14.7 9.7-4.2 4.1-7.6 9.1-9.9 14.5-2.3 5.5-3.5 11.4-3.6 17.3 0 24.7 20.4 44.8 45.5 44.8 25.1 0 45.5-20 45.5-44.8 0-5.9-1.2-11.8-3.5-17.3-2.4-5.4-5.7-10.4-10-14.5-4.2-4.2-9.2-7.5-14.7-9.7-5.5-2.2-11.4-3.3-17.3-3.3zm-130.8-3.3c-5.2 0-10.5 1-15.3 2.9-4.9 2-9.3 4.9-13.1 8.6-3.7 3.7-6.7 8.1-8.8 13-2 4.8-3.1 10-3.1 15.3 0 5.2 1.1 10.4 3.1 15.3 2.1 4.8 5.1 9.2 8.8 12.9 3.8 3.7 8.2 6.6 13.1 8.5 4.9 2 10.1 3 15.3 3 5.3 0 10.5-1 15.4-3 4.8-1.9 9.3-4.8 13-8.5 3.8-3.7 6.7-8.1 8.8-12.9 2.1-4.9 3.1-10.1 3.2-15.3-0.1-5.3-1.1-10.5-3.2-15.3-2-4.9-5-9.3-8.8-13-3.7-3.7-8.2-6.6-13-8.6-4.9-1.9-10.1-2.9-15.4-2.9zm-97.2-64.9c-3.8 0-7.7 0.7-11.2 2.2-3.6 1.4-6.9 3.6-9.6 6.3-2.8 2.7-5 5.9-6.5 9.4-1.5 3.6-2.3 7.4-2.3 11.3 0 16.1 13.2 29.1 29.6 29.1 3.9 0.1 7.7-0.7 11.3-2.1 3.6-1.5 6.8-3.6 9.6-6.3 2.7-2.7 4.9-5.9 6.4-9.5 1.5-3.6 2.3-7.4 2.4-11.2-0.1-3.9-0.9-7.7-2.4-11.3-1.5-3.5-3.7-6.7-6.4-9.4-2.8-2.7-6-4.9-9.6-6.3-3.6-1.5-7.4-2.2-11.3-2.2zm-38.6-84c-2.8-0.1-5.6 0.5-8.2 1.5-2.5 1.1-4.9 2.6-6.9 4.6-2 2-3.6 4.3-4.7 6.9-1.1 2.6-1.6 5.3-1.7 8.1 0 11.7 9.7 21.2 21.5 21.2 2.8 0 5.6-0.5 8.2-1.5 2.6-1.1 5-2.6 7-4.6 2-2 3.6-4.3 4.7-6.9 1.1-2.6 1.7-5.4 1.7-8.2 0-2.8-0.6-5.6-1.7-8.1-1.1-2.6-2.7-5-4.7-6.9-2-2-4.4-3.6-7-4.6-2.6-1-5.4-1.6-8.2-1.5zm-2.2-109.6c-3.8 0-7.6 0.7-11.1 2.1-3.6 1.4-6.8 3.5-9.5 6.2-2.7 2.7-4.9 5.9-6.4 9.4-1.5 3.5-2.2 7.3-2.3 11.1 0 15.8 13.1 28.7 29.3 28.7 16.1 0 29.2-12.9 29.2-28.7 0-16-13.1-28.8-29.2-28.8zm56.9-117.3c-5.6 0-11.2 1.1-16.5 3.2-5.2 2.1-10 5.2-14 9.2-4 4-7.2 8.7-9.4 13.9-2.2 5.2-3.4 10.7-3.4 16.4 0 23.6 19.4 42.7 43.3 42.7 5.6 0.1 11.2-1 16.5-3.1 5.2-2.2 10-5.3 14-9.3 4-3.9 7.2-8.6 9.4-13.8 2.2-5.2 3.4-10.8 3.4-16.5 0-5.6-1.2-11.2-3.4-16.4-2.2-5.2-5.4-9.9-9.4-13.9-4-3.9-8.8-7.1-14-9.2-5.3-2.1-10.9-3.2-16.5-3.2zm111.1-62.3c-25.2 0-45.6 20.1-45.6 44.9 0 24.8 20.4 44.8 45.6 44.8 25.2 0 45.6-20 45.6-44.8 0-24.8-20.4-44.9-45.6-44.9zm131.1 14.3c-5.2 0-10.4 1-15.3 2.9-4.9 2-9.4 4.9-13.1 8.6-3.8 3.7-6.8 8.1-8.8 12.9-2.1 4.9-3.2 10.1-3.2 15.4 0 22 18.1 39.8 40.4 39.8 5.3 0 10.5-1 15.4-3 4.9-1.9 9.3-4.9 13.1-8.5 3.7-3.7 6.7-8.1 8.8-13 2-4.8 3.1-10.1 3.2-15.3-0.1-5.3-1.2-10.5-3.2-15.3-2.1-4.9-5.1-9.3-8.8-13-3.8-3.7-8.2-6.6-13.1-8.6-4.9-1.9-10.1-2.9-15.4-2.9zm96.7 84.7c-3.9-0.1-7.7 0.7-11.3 2.1-3.5 1.5-6.8 3.6-9.5 6.3-2.8 2.7-5 5.9-6.5 9.5-1.5 3.5-2.3 7.3-2.3 11.2 0 16.1 13.3 29.2 29.6 29.2 16.3 0 29.6-13.1 29.6-29.2 0-3.9-0.8-7.7-2.3-11.2-1.5-3.6-3.7-6.8-6.5-9.5-2.7-2.7-6-4.8-9.6-6.3-3.5-1.4-7.4-2.2-11.2-2.1zm40.7 100.7c-2.8 0-5.6 0.5-8.2 1.6-2.6 1-5 2.6-7 4.6-2 1.9-3.6 4.3-4.7 6.9-1.1 2.6-1.6 5.3-1.7 8.2 0 11.6 9.7 21.1 21.6 21.1 11.8 0 21.5-9.5 21.5-21.1 0-2.9-0.6-5.6-1.7-8.2-1.1-2.6-2.7-5-4.7-6.9-2-2-4.3-3.6-6.9-4.6-2.7-1.1-5.4-1.6-8.2-1.6zm147.1 33.3c-21 0-38 16.8-38 37.5 0 20.7 17 37.4 38 37.4 21.1 0 38-16.7 38-37.4 0-5-1.1-9.9-3-14.4-1.9-4.6-4.7-8.7-8.2-12.2-3.6-3.5-7.8-6.2-12.3-8.1-4.6-1.9-9.5-2.8-14.5-2.8zm156.9 45.4c-5.2-0.1-10.4 0.9-15.2 2.9-4.8 1.9-9.3 4.8-13 8.5-3.7 3.7-6.7 8-8.7 12.8-2 4.8-3.1 10-3.1 15.2 0 21.8 17.8 39.5 40 39.5 22.1 0 40.1-17.7 40.1-39.5-0.1-5.2-1.1-10.4-3.2-15.2-2-4.8-5-9.1-8.7-12.8-3.7-3.7-8.1-6.6-12.9-8.5-4.9-2-10.1-3-15.3-2.9zm-39.7 139.3c-5-0.1-9.9 0.9-14.4 2.7-4.6 1.9-8.8 4.6-12.3 8.1-3.5 3.4-6.4 7.6-8.3 12.1-1.9 4.6-2.9 9.5-3 14.4 0 20.7 17 37.4 38 37.4 21 0 37.9-16.7 37.9-37.4 0-4.9-1-9.8-3-14.4-1.9-4.5-4.7-8.7-8.2-12.1-3.6-3.5-7.7-6.2-12.3-8.1-4.6-1.8-9.5-2.8-14.4-2.7zm-68.3 116.9c-4.2-0.1-8.3 0.7-12.2 2.3-3.9 1.6-7.4 3.9-10.4 6.8-2.9 2.9-5.3 6.4-6.9 10.3-1.7 3.8-2.5 7.9-2.6 12.1 0 17.4 14.4 31.5 32 31.5 4.2 0.1 8.4-0.7 12.2-2.3 3.9-1.5 7.4-3.9 10.4-6.8 3-2.9 5.3-6.4 7-10.2 1.6-3.9 2.4-8 2.5-12.2-0.1-4.2-0.9-8.3-2.5-12.1-1.7-3.9-4-7.4-7-10.3-3-2.9-6.5-5.2-10.4-6.8-3.8-1.6-8-2.4-12.1-2.3zm-82 86.8c-3.6 0-7.2 0.7-10.5 2-3.3 1.4-6.4 3.4-8.9 5.9-2.6 2.6-4.7 5.6-6.1 8.9-1.4 3.3-2.1 6.8-2.1 10.4 0 15.1 12.3 27.3 27.6 27.3 3.6 0.1 7.2-0.6 10.5-2 3.4-1.3 6.4-3.3 9-5.8 2.6-2.6 4.6-5.6 6-8.9 1.4-3.3 2.2-6.9 2.2-10.5 0-3.6-0.8-7.2-2.2-10.5-1.4-3.3-3.4-6.3-6-8.9-2.6-2.5-5.6-4.5-9-5.8-3.3-1.4-6.9-2.1-10.5-2.1zm-86.6 63.4c-3.1 0-6.1 0.6-9 1.7-2.9 1.2-5.5 2.9-7.7 5.1-2.2 2.1-3.9 4.7-5.1 7.6-1.3 2.8-1.9 5.9-1.9 9 0 12.8 10.6 23.3 23.7 23.3 3.1 0 6.2-0.6 9-1.7 2.9-1.2 5.5-2.9 7.7-5 2.2-2.2 4-4.8 5.2-7.6 1.2-2.9 1.8-5.9 1.8-9 0-3.1-0.6-6.2-1.8-9-1.2-2.9-3-5.5-5.2-7.6-2.2-2.2-4.8-3.9-7.7-5.1-2.8-1.1-5.9-1.7-9-1.7zm-98 35.8c-3.6 0-7.1 0.7-10.5 2-3.3 1.4-6.3 3.4-8.9 5.9-2.6 2.5-4.6 5.5-6 8.8-1.4 3.4-2.1 6.9-2.2 10.5 0 15 12.3 27.2 27.6 27.2 3.6 0 7.2-0.7 10.6-2 3.3-1.4 6.3-3.4 8.9-5.9 2.5-2.5 4.6-5.5 6-8.8 1.4-3.4 2.1-6.9 2.1-10.5 0-15-12.3-27.2-27.6-27.2zm-115.1 18.5c-4.2 0-8.3 0.8-12.1 2.3-3.9 1.6-7.4 3.9-10.3 6.8-3 2.9-5.4 6.4-7 10.2-1.6 3.9-2.4 8-2.5 12.1 0 17.3 14.3 31.4 31.9 31.4 4.1 0.1 8.3-0.7 12.1-2.3 3.9-1.5 7.4-3.8 10.4-6.8 2.9-2.9 5.3-6.3 6.9-10.2 1.6-3.8 2.5-7.9 2.5-12.1 0-4.1-0.9-8.3-2.5-12.1-1.6-3.8-4-7.3-6.9-10.2-3-2.9-6.5-5.2-10.4-6.8-3.8-1.6-8-2.3-12.1-2.3zm-131.7-12.8c-5.4-0.1-10.8 0.9-15.8 3-5 2-9.6 5-13.4 8.8-3.9 3.8-7 8.3-9.1 13.3-2.1 5-3.2 10.3-3.2 15.7 0 22.6 18.6 40.9 41.5 40.9 22.9 0 41.5-18.3 41.5-40.9-0.1-5.4-1.2-10.7-3.3-15.7-2.1-5-5.2-9.5-9-13.3-3.9-3.8-8.4-6.8-13.4-8.8-5.1-2-10.4-3-15.8-3zm-138.5-49c-6.4 0-12.7 1.2-18.6 3.6-5.9 2.4-11.3 5.9-15.9 10.4-4.5 4.5-8.1 9.8-10.6 15.7-2.5 5.8-3.8 12.2-3.9 18.5 0 26.7 21.9 48.3 49 48.3 27.1 0 49-21.6 49-48.3-0.1-6.4-1.4-12.7-3.9-18.5-2.4-5.9-6.1-11.3-10.6-15.8-4.6-4.4-10-8-15.9-10.4-5.9-2.4-12.2-3.6-18.6-3.5zm-65.2-33.9c0-31.4-25.7-56.7-57.5-56.7-31.8 0-57.5 25.3-57.5 56.7 0 31.3 25.7 56.6 57.5 56.6 31.8 0 57.5-25.3 57.5-56.6zm-97-132.1c0-33.9-27.8-61.3-62.3-61.3-34.4 0-62.3 27.4-62.3 61.3 0 34 27.9 61.4 62.3 61.4 34.5 0 62.3-27.4 62.3-61.4zm-120.1-203.6c-6.4 0-12.7 1.2-18.7 3.6-5.9 2.4-11.3 5.9-15.8 10.4-4.6 4.5-8.2 9.8-10.7 15.7-2.5 5.9-3.8 12.2-3.9 18.6 0 26.7 22 48.3 49.1 48.3 6.4 0 12.7-1.2 18.6-3.6 6-2.4 11.4-5.9 15.9-10.4 4.6-4.5 8.2-9.8 10.7-15.7 2.5-5.9 3.8-12.2 3.9-18.6 0-26.7-22-48.3-49.1-48.3zm-2.8-137.5c-5.2 0-10.4 1-15.3 2.9-4.8 2-9.3 4.9-13 8.6-3.7 3.7-6.7 8-8.8 12.9-2 4.8-3.1 10-3.1 15.2 0 21.9 17.9 39.7 40.2 39.7 5.3 0 10.5-1 15.3-3 4.9-1.9 9.3-4.8 13.1-8.5 3.7-3.7 6.7-8.1 8.7-12.9 2.1-4.9 3.1-10 3.2-15.3-0.1-5.2-1.2-10.4-3.2-15.2-2-4.9-5-9.2-8.8-12.9-3.7-3.7-8.1-6.6-13-8.6-4.8-1.9-10-2.9-15.3-2.9zm39.6-135c-5 0-9.9 0.9-14.5 2.8-4.6 1.8-8.7 4.6-12.3 8.1-3.5 3.4-6.3 7.6-8.2 12.1-1.9 4.6-3 9.5-3 14.4 0 20.6 17 37.4 38 37.4 21 0 38-16.8 38-37.4-0.1-4.9-1.1-9.8-3-14.4-2-4.5-4.8-8.7-8.3-12.1-3.5-3.5-7.7-6.3-12.3-8.1-4.6-1.9-9.5-2.8-14.4-2.8zm68.5-105c-4.2 0-8.3 0.7-12.2 2.3-3.9 1.6-7.4 3.9-10.3 6.8-3 2.9-5.4 6.4-7 10.3-1.6 3.8-2.5 7.9-2.5 12.1 0 17.3 14.3 31.4 32 31.4 4.1 0 8.2-0.7 12.1-2.3 3.9-1.6 7.4-3.9 10.3-6.8 3-2.9 5.4-6.4 7-10.2 1.6-3.8 2.5-8 2.5-12.1 0-4.2-0.9-8.3-2.5-12.1-1.6-3.9-4-7.4-7-10.3-2.9-2.9-6.4-5.2-10.3-6.8-3.9-1.6-8-2.3-12.1-2.3zm81.8-78.3c-3.6 0-7.2 0.7-10.5 2-3.3 1.4-6.4 3.4-8.9 5.9-2.6 2.5-4.6 5.5-6 8.8-1.4 3.3-2.1 6.9-2.2 10.5 0 15 12.3 27.2 27.6 27.2 3.6 0 7.2-0.7 10.5-2 3.3-1.4 6.3-3.4 8.9-5.9 2.6-2.5 4.6-5.5 6-8.9 1.4-3.3 2.1-6.8 2.2-10.4-0.1-3.6-0.8-7.2-2.2-10.5-1.4-3.3-3.4-6.3-6-8.8-2.6-2.5-5.6-4.5-8.9-5.9-3.3-1.3-6.9-2-10.5-2zm86.6-55.9c-3.1 0-6.2 0.6-9.1 1.7-2.8 1.2-5.5 2.9-7.7 5.1-2.2 2.2-3.9 4.7-5.1 7.6-1.2 2.8-1.9 5.9-1.9 9 0 3.1 0.7 6.2 1.9 9 1.2 2.8 3 5.4 5.2 7.6 2.2 2.2 4.8 3.9 7.6 5 2.9 1.2 6 1.8 9.1 1.8 3.1 0 6.1-0.6 9-1.8 2.9-1.1 5.5-2.8 7.7-5 2.2-2.2 3.9-4.8 5.2-7.6 1.2-2.8 1.8-5.9 1.8-9 0-3.1-0.6-6.2-1.8-9-1.2-2.9-3-5.4-5.2-7.6-2.2-2.2-4.8-3.9-7.7-5.1-2.9-1.1-5.9-1.7-9-1.7zm98-43.1c-3.5 0-7.1 0.6-10.4 2-3.4 1.3-6.4 3.3-8.9 5.8-2.6 2.6-4.6 5.6-6 8.9-1.4 3.3-2.2 6.8-2.2 10.4 0 15 12.3 27.1 27.6 27.1 3.6 0 7.1-0.6 10.5-2 3.3-1.3 6.3-3.3 8.9-5.8 2.5-2.6 4.5-5.6 5.9-8.9 1.4-3.3 2.2-6.8 2.2-10.4 0-3.6-0.7-7.1-2.1-10.4-1.4-3.3-3.5-6.3-6-8.9-2.6-2.5-5.6-4.5-8.9-5.8-3.4-1.4-6.9-2-10.6-2zm114.9-27.2c-4.2-0.1-8.3 0.7-12.2 2.3-3.9 1.6-7.4 3.9-10.3 6.8-3 2.9-5.4 6.4-7 10.2-1.6 3.9-2.5 8-2.5 12.2 0 17.4 14.3 31.4 32 31.4 4.1 0.1 8.3-0.7 12.1-2.3 3.9-1.5 7.4-3.9 10.4-6.8 3-2.9 5.3-6.4 7-10.2 1.6-3.9 2.5-8 2.5-12.1 0-4.2-0.9-8.3-2.5-12.2-1.7-3.8-4-7.3-7-10.3-3-2.9-6.5-5.2-10.4-6.8-3.8-1.5-8-2.3-12.1-2.2zm131.9-5.8c-22.9 0-41.5 18.3-41.5 40.8 0 22.6 18.6 41 41.5 41 23 0 41.6-18.4 41.6-41 0-22.6-18.6-40.8-41.6-40.8zm134.6 31.3c-6.3 0-12.7 1.2-18.6 3.6-5.9 2.4-11.3 6-15.9 10.4-4.5 4.5-8.2 9.9-10.7 15.7-2.5 5.9-3.8 12.2-3.8 18.6 0 26.7 21.9 48.4 49 48.4 6.4 0.1 12.8-1.2 18.7-3.6 5.9-2.4 11.3-5.9 15.9-10.4 4.6-4.5 8.2-9.9 10.7-15.7 2.5-5.9 3.8-12.3 3.8-18.7 0-6.4-1.3-12.7-3.8-18.6-2.5-5.9-6.2-11.2-10.7-15.7-4.6-4.4-10-8-15.9-10.4-5.9-2.4-12.3-3.6-18.7-3.6zm184.8 132.7c0-31.3-25.8-56.7-57.6-56.7-31.9 0-57.6 25.4-57.6 56.7 0 31.4 25.7 56.8 57.6 56.8 31.8 0 57.6-25.4 57.6-56.8zm105.8 132.5c0-34-27.9-61.4-62.4-61.4-34.4 0-62.3 27.4-62.3 61.4 0 33.9 27.9 61.3 62.3 61.3 34.5 0 62.4-27.4 62.4-61.3zm-4.5 107c-27.1 0-49 21.6-49 48.3 0 26.7 21.9 48.2 49 48.2 27.1 0 49-21.5 49-48.3 0-26.7-21.9-48.2-49-48.2zm250.6 140.5c0-44.4-36.5-80.3-81.6-80.3-45.1 0-81.6 35.9-81.6 80.3 0 44.4 36.5 80.3 81.6 80.3 45.1 0 81.6-35.9 81.6-80.3z"/>
	</g>
</svg>